Nunito-M500SlantItalic.ufo
<glyph name="exclam" format="2">
  <advance width="248"/>
  <unicode hex="0021"/>
  <outline>
    <contour>
      <point x="121" y="208" type="curve" smooth="yes"/>
      <point x="145" y="208"/>
      <point x="159" y="222"/>
      <point x="165" y="246" type="curve" smooth="yes"/>
      <point x="255" y="625" type="line" smooth="yes"/>
      <point x="268" y="679"/>
      <point x="242" y="713"/>
      <point x="193" y="713" type="curve" smooth="yes"/>
      <point x="146" y="713"/>
      <point x="119" y="689"/>
      <point x="115" y="640" type="curve" smooth="yes"/>
      <point x="84" y="253" type="line" smooth="yes"/>
      <point x="81" y="220"/>
      <point x="96" y="208"/>
    </contour>
    <contour>
      <point x="98" y="-5" type="curve" smooth="yes"/>
      <point x="144" y="-5"/>
      <point x="172" y="26"/>
      <point x="172" y="70" type="curve" smooth="yes"/>
      <point x="172" y="113"/>
      <point x="144" y="143"/>
      <point x="98" y="143" type="curve" smooth="yes"/>
      <point x="52" y="143"/>
      <point x="23" y="113"/>
      <point x="23" y="70" type="curve" smooth="yes"/>
      <point x="23" y="26"/>
      <point x="52" y="-5"/>
    </contour>
  </outline>
</glyph>
<glyph name="one" format="2">
  <advance width="600"/>
  <unicode hex="0031"/>
  <outline>
    <contour>
      <point x="127" y="0" type="curve" smooth="yes"/>
      <point x="459" y="0" type="line" smooth="yes"/>
      <point x="499" y="0"/>
      <point x="523" y="25"/>
      <point x="523" y="60" type="curve" smooth="yes"/>
      <point x="523" y="92"/>
      <point x="502" y="106"/>
      <point x="466" y="106" type="curve" smooth="yes"/>
      <point x="374" y="106" type="line"/>
      <point x="460" y="650" type="line" smooth="yes"/>
      <point x="466" y="688"/>
      <point x="450" y="713"/>
      <point x="414" y="713" type="curve" smooth="yes"/>
      <point x="392" y="713"/>
      <point x="370" y="706"/>
      <point x="342" y="690" type="curve" smooth="yes"/>
      <point x="185" y="599" type="line" smooth="yes"/>
      <point x="117" y="560"/>
      <point x="167" y="468"/>
      <point x="236" y="507" type="curve" smooth="yes"/>
      <point x="384" y="592" type="line"/>
      <point x="324" y="597" type="line"/>
      <point x="246" y="106" type="line"/>
      <point x="134" y="106" type="line" smooth="yes"/>
      <point x="95" y="106"/>
      <point x="70" y="82"/>
      <point x="70" y="47" type="curve" smooth="yes"/>
      <point x="70" y="15"/>
      <point x="91" y="0"/>
    </contour>
  </outline>
</glyph>
<glyph name="two" format="2">
  <advance width="600"/>
  <unicode hex="0032"/>
  <outline>
    <contour>
      <point x="109" y="0" type="curve" smooth="yes"/>
      <point x="462" y="0" type="line" smooth="yes"/>
      <point x="503" y="0"/>
      <point x="526" y="24"/>
      <point x="526" y="62" type="curve" smooth="yes"/>
      <point x="526" y="91"/>
      <point x="506" y="106"/>
      <point x="469" y="106" type="curve" smooth="yes"/>
      <point x="185" y="106" type="line"/>
      <point x="186" y="72" type="line"/>
      <point x="399" y="263" type="line" smooth="yes"/>
      <point x="493" y="347"/>
      <point x="563" y="425"/>
      <point x="563" y="541" type="curve" smooth="yes"/>
      <point x="563" y="642"/>
      <point x="481" y="715"/>
      <point x="355" y="715" type="curve" smooth="yes"/>
      <point x="277" y="715"/>
      <point x="199" y="691"/>
      <point x="138" y="652" type="curve" smooth="yes"/>
      <point x="81" y="615"/>
      <point x="128" y="525"/>
      <point x="190" y="563" type="curve" smooth="yes"/>
      <point x="241" y="594"/>
      <point x="288" y="607"/>
      <point x="330" y="607" type="curve" smooth="yes"/>
      <point x="396" y="607"/>
      <point x="436" y="576"/>
      <point x="436" y="521" type="curve" smooth="yes"/>
      <point x="436" y="456"/>
      <point x="391" y="401"/>
      <point x="320" y="336" type="curve" smooth="yes"/>
      <point x="90" y="123" type="line" smooth="yes"/>
      <point x="60" y="95"/>
      <point x="48" y="78"/>
      <point x="48" y="51" type="curve" smooth="yes"/>
      <point x="48" y="17"/>
      <point x="73" y="0"/>
    </contour>
  </outline>
</glyph>
<glyph name="greater" format="2">
  <advance width="600"/>
  <unicode hex="003E"/>
  <outline>
    <contour>
      <point x="87" y="59" type="curve" smooth="yes"/>
      <point x="501" y="223" type="line" smooth="yes"/>
      <point x="536" y="237"/>
      <point x="559" y="260"/>
      <point x="559" y="296" type="curve" smooth="yes"/>
      <point x="559" y="323"/>
      <point x="542" y="342"/>
      <point x="505" y="359" type="curve" smooth="yes"/>
      <point x="147" y="522" type="line" smooth="yes"/>
      <point x="89" y="549"/>
      <point x="57" y="464"/>
      <point x="113" y="439" type="curve" smooth="yes"/>
      <point x="508" y="261" type="line"/>
      <point x="518" y="323" type="line"/>
      <point x="56" y="141" type="line" smooth="yes"/>
      <point x="-1" y="118"/>
      <point x="27" y="35"/>
    </contour>
  </outline>
</glyph>
<glyph name="question" format="2">
  <advance width="459"/>
  <unicode hex="003F"/>
  <outline>
    <contour>
      <point x="222" y="204" type="curve" smooth="yes"/>
      <point x="246" y="204"/>
      <point x="256" y="216"/>
      <point x="262" y="236" type="curve" smooth="yes"/>
      <point x="275" y="281"/>
      <point x="299" y="323"/>
      <point x="369" y="371" type="curve" smooth="yes"/>
      <point x="435" y="416"/>
      <point x="491" y="475"/>
      <point x="491" y="560" type="curve" smooth="yes"/>
      <point x="491" y="645"/>
      <point x="422" y="715"/>
      <point x="307" y="715" type="curve" smooth="yes"/>
      <point x="238" y="715"/>
      <point x="157" y="695"/>
      <point x="99" y="656" type="curve" smooth="yes"/>
      <point x="37" y="614"/>
      <point x="76" y="527"/>
      <point x="147" y="567" type="curve" smooth="yes"/>
      <point x="191" y="592"/>
      <point x="233" y="607"/>
      <point x="282" y="607" type="curve" smooth="yes"/>
      <point x="339" y="607"/>
      <point x="364" y="579"/>
      <point x="364" y="540" type="curve" smooth="yes"/>
      <point x="364" y="493"/>
      <point x="337" y="466"/>
      <point x="285" y="421" type="curve" smooth="yes"/>
      <point x="211" y="357"/>
      <point x="194" y="316"/>
      <point x="184" y="254" type="curve" smooth="yes"/>
      <point x="179" y="223"/>
      <point x="193" y="204"/>
    </contour>
    <contour>
      <point x="194" y="-5" type="curve" smooth="yes"/>
      <point x="240" y="-5"/>
      <point x="268" y="26"/>
      <point x="268" y="70" type="curve" smooth="yes"/>
      <point x="268" y="113"/>
      <point x="240" y="143"/>
      <point x="194" y="143" type="curve" smooth="yes"/>
      <point x="148" y="143"/>
      <point x="119" y="113"/>
      <point x="119" y="70" type="curve" smooth="yes"/>
      <point x="119" y="26"/>
      <point x="148" y="-5"/>
    </contour>
  </outline>
</glyph>
<glyph name="at" format="2">
  <advance width="950"/>
  <unicode hex="0040"/>
  <outline>
    <contour>
      <point x="496" y="-165" type="curve" smooth="yes"/>
      <point x="598" y="-165"/>
      <point x="687" y="-140"/>
      <point x="752" y="-93" type="curve" smooth="yes"/>
      <point x="799" y="-59"/>
      <point x="765" y="5"/>
      <point x="713" y="-26" type="curve" smooth="yes"/>
      <point x="657" y="-66"/>
      <point x="584" y="-88"/>
      <point x="496" y="-88" type="curve" smooth="yes"/>
      <point x="285" y="-88"/>
      <point x="151" y="46"/>
      <point x="151" y="268" type="curve" smooth="yes"/>
      <point x="151" y="493"/>
      <point x="294" y="638"/>
      <point x="512" y="638" type="curve" smooth="yes"/>
      <point x="707" y="638"/>
      <point x="828" y="527"/>
      <point x="828" y="342" type="curve" smooth="yes"/>
      <point x="828" y="217"/>
      <point x="782" y="133"/>
      <point x="718" y="133" type="curve" smooth="yes"/>
      <point x="683" y="133"/>
      <point x="666" y="152"/>
      <point x="666" y="194" type="curve" smooth="yes"/>
      <point x="666" y="208"/>
      <point x="668" y="226"/>
      <point x="672" y="248" type="curve" smooth="yes"/>
      <point x="705" y="441" type="line" smooth="yes"/>
      <point x="711" y="474"/>
      <point x="696" y="492"/>
      <point x="665" y="492" type="curve" smooth="yes"/>
      <point x="636" y="492"/>
      <point x="619" y="479"/>
      <point x="613" y="449" type="curve" smooth="yes"/>
      <point x="603" y="395" type="line"/>
      <point x="621" y="395" type="line"/>
      <point x="605" y="463"/>
      <point x="559" y="499"/>
      <point x="487" y="499" type="curve" smooth="yes"/>
      <point x="364" y="499"/>
      <point x="273" y="392"/>
      <point x="273" y="246" type="curve" smooth="yes"/>
      <point x="273" y="130"/>
      <point x="335" y="59"/>
      <point x="441" y="59" type="curve" smooth="yes"/>
      <point x="514" y="59"/>
      <point x="579" y="105"/>
      <point x="612" y="196" type="curve"/>
      <point x="582" y="186" type="line"/>
      <point x="583" y="106"/>
      <point x="631" y="59"/>
      <point x="711" y="59" type="curve" smooth="yes"/>
      <point x="828" y="59"/>
      <point x="906" y="169"/>
      <point x="906" y="342" type="curve" smooth="yes"/>
      <point x="906" y="567"/>
      <point x="749" y="715"/>
      <point x="512" y="715" type="curve" smooth="yes"/>
      <point x="244" y="715"/>
      <point x="64" y="536"/>
      <point x="64" y="268" type="curve" smooth="yes"/>
      <point x="64" y="7"/>
      <point x="238" y="-165"/>
    </contour>
    <contour>
      <point x="460" y="138" type="curve" smooth="yes"/>
      <point x="404" y="138"/>
      <point x="372" y="176"/>
      <point x="372" y="247" type="curve" smooth="yes"/>
      <point x="372" y="348"/>
      <point x="427" y="419"/>
      <point x="504" y="419" type="curve" smooth="yes"/>
      <point x="563" y="419"/>
      <point x="590" y="386"/>
      <point x="590" y="322" type="curve" smooth="yes"/>
      <point x="590" y="213"/>
      <point x="536" y="138"/>
    </contour>
  </outline>
</glyph>
<glyph name="H" format="2">
  <advance width="773"/>
  <unicode hex="0048"/>
  <anchor x="354" y="0" name="bottom"/>
  <anchor x="437" y="561" name="center"/>
  <anchor x="458" y="705" name="top"/>
  <anchor x="96" y="705" name="topleft"/>
  <outline>
    <contour>
      <point x="103" y="-8" type="curve" smooth="yes"/>
      <point x="146" y="-8"/>
      <point x="168" y="14"/>
      <point x="175" y="57" type="curve" smooth="yes"/>
      <point x="214" y="304" type="line"/>
      <point x="577" y="304" type="line"/>
      <point x="540" y="68" type="line" smooth="yes"/>
      <point x="532" y="20"/>
      <point x="550" y="-8"/>
      <point x="594" y="-8" type="curve" smooth="yes"/>
      <point x="636" y="-8"/>
      <point x="659" y="14"/>
      <point x="666" y="57" type="curve" smooth="yes"/>
      <point x="758" y="637" type="line" smooth="yes"/>
      <point x="766" y="686"/>
      <point x="747" y="713"/>
      <point x="704" y="713" type="curve" smooth="yes"/>
      <point x="661" y="713"/>
      <point x="639" y="692"/>
      <point x="632" y="649" type="curve" smooth="yes"/>
      <point x="594" y="411" type="line"/>
      <point x="231" y="411" type="line"/>
      <point x="267" y="637" type="line" smooth="yes"/>
      <point x="275" y="685"/>
      <point x="257" y="713"/>
      <point x="214" y="713" type="curve" smooth="yes"/>
      <point x="171" y="713"/>
      <point x="148" y="692"/>
      <point x="141" y="649" type="curve" smooth="yes"/>
      <point x="49" y="68" type="line" smooth="yes"/>
      <point x="41" y="20"/>
      <point x="60" y="-8"/>
    </contour>
  </outline>
</glyph>
<glyph name="I" format="2">
  <advance width="282"/>
  <unicode hex="0049"/>
  <anchor x="102" y="0" name="bottom"/>
  <anchor x="138" y="0" name="ogonek"/>
  <anchor x="214" y="705" name="top"/>
  <anchor x="96" y="705" name="topleft"/>
  <outline>
    <contour>
      <point x="104" y="-8" type="curve" smooth="yes"/>
      <point x="146" y="-8"/>
      <point x="168" y="14"/>
      <point x="175" y="57" type="curve" smooth="yes"/>
      <point x="267" y="637" type="line" smooth="yes"/>
      <point x="275" y="686"/>
      <point x="257" y="713"/>
      <point x="214" y="713" type="curve" smooth="yes"/>
      <point x="171" y="713"/>
      <point x="148" y="692"/>
      <point x="141" y="649" type="curve" smooth="yes"/>
      <point x="49" y="68" type="line" smooth="yes"/>
      <point x="41" y="20"/>
      <point x="60" y="-8"/>
    </contour>
  </outline>
</glyph>
<glyph name="L" format="2">
  <advance width="562"/>
  <unicode hex="004C"/>
  <anchor x="273" y="0" name="bottom"/>
  <anchor x="208" y="387" name="center"/>
  <anchor x="449" y="394" name="dot"/>
  <anchor x="213" y="705" name="top"/>
  <anchor x="385" y="705" name="topright"/>
  <outline>
    <contour>
      <point x="109" y="0" type="curve" smooth="yes"/>
      <point x="456" y="0" type="line" smooth="yes"/>
      <point x="496" y="0"/>
      <point x="521" y="23"/>
      <point x="521" y="65" type="curve" smooth="yes"/>
      <point x="521" y="93"/>
      <point x="500" y="109"/>
      <point x="463" y="109" type="curve" smooth="yes"/>
      <point x="184" y="109" type="line"/>
      <point x="268" y="643" type="line" smooth="yes"/>
      <point x="275" y="687"/>
      <point x="254" y="713"/>
      <point x="211" y="713" type="curve" smooth="yes"/>
      <point x="171" y="713"/>
      <point x="148" y="694"/>
      <point x="142" y="654" type="curve" smooth="yes"/>
      <point x="49" y="71" type="line" smooth="yes"/>
      <point x="42" y="26"/>
      <point x="64" y="0"/>
    </contour>
  </outline>
</glyph>
<glyph name="P" format="2">
  <advance width="652"/>
  <unicode hex="0050"/>
  <anchor x="293" y="0" name="bottom"/>
  <anchor x="404" y="705" name="top"/>
  <outline>
    <contour>
      <point x="103" y="-8" type="curve" smooth="yes"/>
      <point x="145" y="-8"/>
      <point x="168" y="13"/>
      <point x="175" y="56" type="curve" smooth="yes"/>
      <point x="208" y="264" type="line"/>
      <point x="386" y="264" type="line" smooth="yes"/>
      <point x="566" y="264"/>
      <point x="663" y="355"/>
      <point x="663" y="509" type="curve" smooth="yes"/>
      <point x="663" y="635"/>
      <point x="580" y="705"/>
      <point x="424" y="705" type="curve" smooth="yes"/>
      <point x="214" y="705" type="line" smooth="yes"/>
      <point x="172" y="705"/>
      <point x="147" y="685"/>
      <point x="140" y="642" type="curve" smooth="yes"/>
      <point x="49" y="67" type="line" smooth="yes"/>
      <point x="42" y="20"/>
      <point x="62" y="-8"/>
    </contour>
    <contour>
      <point x="224" y="365" type="line"/>
      <point x="262" y="604" type="line"/>
      <point x="409" y="604" type="line" smooth="yes"/>
      <point x="496" y="604"/>
      <point x="539" y="571"/>
      <point x="539" y="499" type="curve" smooth="yes"/>
      <point x="539" y="412"/>
      <point x="488" y="365"/>
      <point x="392" y="365" type="curve" smooth="yes"/>
    </contour>
  </outline>
</glyph>
<glyph name="R" format="2">
  <advance width="686"/>
  <unicode hex="0052"/>
  <anchor x="316" y="0" name="bottom"/>
  <anchor x="408" y="705" name="top"/>
  <outline>
    <contour>
      <point x="102" y="-8" type="curve" smooth="yes"/>
      <point x="145" y="-8"/>
      <point x="169" y="13"/>
      <point x="176" y="56" type="curve" smooth="yes"/>
      <point x="211" y="282" type="line"/>
      <point x="314" y="282" type="line" smooth="yes"/>
      <point x="367" y="282"/>
      <point x="393" y="264"/>
      <point x="411" y="216" type="curve" smooth="yes"/>
      <point x="475" y="48" type="line" smooth="yes"/>
      <point x="490" y="9"/>
      <point x="508" y="-8"/>
      <point x="543" y="-8" type="curve" smooth="yes"/>
      <point x="597" y="-8"/>
      <point x="615" y="23"/>
      <point x="595" y="75" type="curve" smooth="yes"/>
      <point x="547" y="200" type="line" smooth="yes"/>
      <point x="523" y="263"/>
      <point x="485" y="300"/>
      <point x="422" y="300" type="curve" smooth="yes"/>
      <point x="396" y="300" type="line"/>
      <point x="396" y="285" type="line"/>
      <point x="550" y="283"/>
      <point x="663" y="356"/>
      <point x="663" y="510" type="curve" smooth="yes"/>
      <point x="663" y="631"/>
      <point x="581" y="705"/>
      <point x="425" y="705" type="curve" smooth="yes"/>
      <point x="215" y="705" type="line" smooth="yes"/>
      <point x="172" y="705"/>
      <point x="147" y="684"/>
      <point x="140" y="641" type="curve" smooth="yes"/>
      <point x="49" y="68" type="line" smooth="yes"/>
      <point x="41" y="20"/>
      <point x="62" y="-8"/>
    </contour>
    <contour>
      <point x="226" y="377" type="line"/>
      <point x="262" y="604" type="line"/>
      <point x="406" y="604" type="line" smooth="yes"/>
      <point x="498" y="604"/>
      <point x="539" y="569"/>
      <point x="539" y="500" type="curve" smooth="yes"/>
      <point x="539" y="420"/>
      <point x="487" y="377"/>
      <point x="396" y="377" type="curve" smooth="yes"/>
    </contour>
  </outline>
</glyph>
<glyph name="S" format="2">
  <advance width="631"/>
  <unicode hex="0053"/>
  <anchor x="301" y="0" name="bottom"/>
  <anchor x="379" y="705" name="top"/>
  <outline>
    <contour>
      <point x="300" y="-10" type="curve" smooth="yes"/>
      <point x="456" y="-10"/>
      <point x="590" y="64"/>
      <point x="590" y="211" type="curve" smooth="yes"/>
      <point x="590" y="298"/>
      <point x="530" y="361"/>
      <point x="412" y="389" type="curve" smooth="yes"/>
      <point x="303" y="415" type="line" smooth="yes"/>
      <point x="245" y="429"/>
      <point x="216" y="453"/>
      <point x="216" y="504" type="curve" smooth="yes"/>
      <point x="216" y="566"/>
      <point x="278" y="607"/>
      <point x="367" y="607" type="curve" smooth="yes"/>
      <point x="423" y="607"/>
      <point x="485" y="593"/>
      <point x="532" y="565" type="curve" smooth="yes"/>
      <point x="611" y="518"/>
      <point x="646" y="616"/>
      <point x="591" y="653" type="curve" smooth="yes"/>
      <point x="525" y="697"/>
      <point x="440" y="715"/>
      <point x="369" y="715" type="curve" smooth="yes"/>
      <point x="218" y="715"/>
      <point x="89" y="632"/>
      <point x="89" y="493" type="curve" smooth="yes"/>
      <point x="89" y="394"/>
      <point x="151" y="336"/>
      <point x="248" y="313" type="curve" smooth="yes"/>
      <point x="357" y="287" type="line" smooth="yes"/>
      <point x="434" y="269"/>
      <point x="463" y="240"/>
      <point x="463" y="196" type="curve" smooth="yes"/>
      <point x="463" y="137"/>
      <point x="405" y="98"/>
      <point x="312" y="98" type="curve" smooth="yes"/>
      <point x="244" y="98"/>
      <point x="173" y="111"/>
      <point x="111" y="146" type="curve" smooth="yes"/>
      <point x="42" y="185"/>
      <point x="-2" y="86"/>
      <point x="60" y="49" type="curve" smooth="yes"/>
      <point x="129" y="8"/>
      <point x="216" y="-10"/>
    </contour>
  </outline>
</glyph>
<glyph name="W" format="2">
  <advance width="1113"/>
  <unicode hex="0057"/>
  <anchor x="518" y="0" name="bottom"/>
  <anchor x="627" y="705" name="top"/>
  <outline>
    <contour>
      <point x="284" y="-8" type="curve" smooth="yes"/>
      <point x="321" y="-8"/>
      <point x="342" y="7"/>
      <point x="359" y="40" type="curve" smooth="yes"/>
      <point x="616" y="541" type="line"/>
      <point x="593" y="541" type="line"/>
      <point x="687" y="52" type="line" smooth="yes"/>
      <point x="695" y="12"/>
      <point x="714" y="-8"/>
      <point x="749" y="-8" type="curve" smooth="yes"/>
      <point x="785" y="-8"/>
      <point x="807" y="7"/>
      <point x="824" y="40" type="curve" smooth="yes"/>
      <point x="1126" y="630" type="line" smooth="yes"/>
      <point x="1150" y="676"/>
      <point x="1130" y="713"/>
      <point x="1081" y="713" type="curve" smooth="yes"/>
      <point x="1048" y="713"/>
      <point x="1030" y="698"/>
      <point x="1014" y="666" type="curve" smooth="yes"/>
      <point x="743" y="127" type="line"/>
      <point x="779" y="127" type="line"/>
      <point x="683" y="652" type="line" smooth="yes"/>
      <point x="675" y="694"/>
      <point x="658" y="713"/>
      <point x="627" y="713" type="curve" smooth="yes"/>
      <point x="595" y="713"/>
      <point x="574" y="698"/>
      <point x="557" y="665" type="curve" smooth="yes"/>
      <point x="283" y="127" type="line"/>
      <point x="323" y="127" type="line"/>
      <point x="228" y="654" type="line" smooth="yes"/>
      <point x="221" y="694"/>
      <point x="200" y="713"/>
      <point x="167" y="713" type="curve" smooth="yes"/>
      <point x="123" y="713"/>
      <point x="99" y="682"/>
      <point x="108" y="636" type="curve" smooth="yes"/>
      <point x="222" y="52" type="line" smooth="yes"/>
      <point x="230" y="12"/>
      <point x="249" y="-8"/>
    </contour>
  </outline>
</glyph>
<glyph name="Y" format="2">
  <advance width="618"/>
  <unicode hex="0059"/>
  <anchor x="270" y="0" name="bottom"/>
  <anchor x="371" y="705" name="top"/>
  <anchor x="89" y="705" name="topleft"/>
  <outline>
    <contour>
      <point x="269" y="-8" type="curve" smooth="yes"/>
      <point x="311" y="-8"/>
      <point x="336" y="13"/>
      <point x="343" y="56" type="curve" smooth="yes"/>
      <point x="392" y="363" type="line"/>
      <point x="352" y="286" type="line"/>
      <point x="644" y="622" type="line" smooth="yes"/>
      <point x="680" y="664"/>
      <point x="658" y="713"/>
      <point x="608" y="713" type="curve" smooth="yes"/>
      <point x="579" y="713"/>
      <point x="562" y="703"/>
      <point x="536" y="673" type="curve" smooth="yes"/>
      <point x="315" y="417" type="line"/>
      <point x="343" y="417" type="line"/>
      <point x="209" y="665" type="line" smooth="yes"/>
      <point x="189" y="701"/>
      <point x="172" y="713"/>
      <point x="142" y="713" type="curve" smooth="yes"/>
      <point x="90" y="713"/>
      <point x="67" y="669"/>
      <point x="93" y="622" type="curve" smooth="yes"/>
      <point x="278" y="286" type="line"/>
      <point x="264" y="363" type="line"/>
      <point x="217" y="67" type="line" smooth="yes"/>
      <point x="210" y="20"/>
      <point x="228" y="-8"/>
    </contour>
  </outline>
</glyph>
<glyph name="Z" format="2">
  <advance width="605"/>
  <unicode hex="005A"/>
  <anchor x="286" y="0" name="bottom"/>
  <anchor x="375" y="705" name="top"/>
  <outline>
    <contour>
      <point x="69" y="0" type="curve" smooth="yes"/>
      <point x="499" y="0" type="line" smooth="yes"/>
      <point x="537" y="0"/>
      <point x="563" y="23"/>
      <point x="563" y="64" type="curve" smooth="yes"/>
      <point x="563" y="92"/>
      <point x="542" y="107"/>
      <point x="506" y="107" type="curve" smooth="yes"/>
      <point x="145" y="107" type="line"/>
      <point x="148" y="67" type="line"/>
      <point x="604" y="584" type="line" smooth="yes"/>
      <point x="656" y="643"/>
      <point x="643" y="705"/>
      <point x="576" y="705" type="curve" smooth="yes"/>
      <point x="167" y="705" type="line" smooth="yes"/>
      <point x="128" y="705"/>
      <point x="103" y="683"/>
      <point x="103" y="642" type="curve" smooth="yes"/>
      <point x="103" y="614"/>
      <point x="123" y="598"/>
      <point x="159" y="598" type="curve" smooth="yes"/>
      <point x="505" y="598" type="line"/>
      <point x="503" y="639" type="line"/>
      <point x="48" y="123" type="line" smooth="yes"/>
      <point x="-7" y="61"/>
      <point x="14" y="0"/>
    </contour>
  </outline>
</glyph>
<glyph name="backslash" format="2">
  <advance width="313"/>
  <unicode hex="005C"/>
  <outline>
    <contour>
      <point x="184" y="-25" type="line" smooth="yes"/>
      <point x="195" y="-92"/>
      <point x="291" y="-75"/>
      <point x="280" y="-11" type="curve" smooth="yes"/>
      <point x="160" y="714" type="line" smooth="yes"/>
      <point x="149" y="781"/>
      <point x="55" y="761"/>
      <point x="65" y="699" type="curve" smooth="yes"/>
    </contour>
  </outline>
</glyph>
<glyph name="bracketright" format="2">
  <advance width="354"/>
  <unicode hex="005D"/>
  <outline>
    <contour>
      <point x="0" y="-180" type="curve" smooth="yes"/>
      <point x="132" y="-180" type="line" smooth="yes"/>
      <point x="161" y="-180"/>
      <point x="184" y="-160"/>
      <point x="188" y="-132" type="curve" smooth="yes"/>
      <point x="309" y="632" type="line" smooth="yes"/>
      <point x="316" y="673"/>
      <point x="288" y="705"/>
      <point x="247" y="705" type="curve" smooth="yes"/>
      <point x="125" y="705" type="line" smooth="yes"/>
      <point x="89" y="705"/>
      <point x="69" y="683"/>
      <point x="69" y="649" type="curve" smooth="yes"/>
      <point x="69" y="627"/>
      <point x="80" y="611"/>
      <point x="112" y="611" type="curve" smooth="yes"/>
      <point x="181" y="611" type="line"/>
      <point x="71" y="-86" type="line"/>
      <point x="0" y="-86" type="line" smooth="yes"/>
      <point x="-35" y="-86"/>
      <point x="-56" y="-100"/>
      <point x="-56" y="-137" type="curve" smooth="yes"/>
      <point x="-56" y="-164"/>
      <point x="-37" y="-180"/>
    </contour>
  </outline>
</glyph>
<glyph name="d" format="2">
  <advance width="600"/>
  <unicode hex="0064"/>
  <anchor x="268" y="0" name="bottom"/>
  <anchor x="297" y="246" name="center"/>
  <anchor x="478" y="588" name="stroke"/>
  <anchor x="359" y="595" name="top"/>
  <anchor x="649" y="705" name="topright"/>
  <outline>
    <contour>
      <point x="220" y="-10" type="curve" smooth="yes"/>
      <point x="297" y="-10"/>
      <point x="359" y="29"/>
      <point x="395" y="92" type="curve"/>
      <point x="394" y="122" type="line"/>
      <point x="385" y="67" type="line" smooth="yes"/>
      <point x="377" y="21"/>
      <point x="394" y="-8"/>
      <point x="433" y="-8" type="curve" smooth="yes"/>
      <point x="474" y="-8"/>
      <point x="498" y="14"/>
      <point x="505" y="56" type="curve" smooth="yes"/>
      <point x="598" y="642" type="line" smooth="yes"/>
      <point x="605" y="688"/>
      <point x="586" y="713"/>
      <point x="547" y="713" type="curve" smooth="yes"/>
      <point x="506" y="713"/>
      <point x="481" y="695"/>
      <point x="475" y="654" type="curve" smooth="yes"/>
      <point x="434" y="393" type="line"/>
      <point x="441" y="392" type="line"/>
      <point x="418" y="463"/>
      <point x="357" y="499"/>
      <point x="282" y="499" type="curve" smooth="yes"/>
      <point x="129" y="499"/>
      <point x="36" y="368"/>
      <point x="36" y="201" type="curve" smooth="yes"/>
      <point x="36" y="72"/>
      <point x="109" y="-10"/>
    </contour>
    <contour>
      <point x="269" y="85" type="curve" smooth="yes"/>
      <point x="202" y="85"/>
      <point x="162" y="128"/>
      <point x="162" y="207" type="curve" smooth="yes"/>
      <point x="162" y="318"/>
      <point x="214" y="404"/>
      <point x="305" y="404" type="curve" smooth="yes"/>
      <point x="372" y="404"/>
      <point x="412" y="361"/>
      <point x="412" y="282" type="curve" smooth="yes"/>
      <point x="412" y="172"/>
      <point x="360" y="85"/>
    </contour>
  </outline>
</glyph>
<glyph name="e" format="2">
  <advance width="542"/>
  <unicode hex="0065"/>
  <anchor x="255" y="0" name="bottom"/>
  <anchor x="340" y="0" name="ogonek"/>
  <anchor x="320" y="484" name="top"/>
  <outline>
    <contour>
      <point x="280" y="-10" type="curve" smooth="yes"/>
      <point x="333" y="-10"/>
      <point x="404" y="4"/>
      <point x="451" y="35" type="curve" smooth="yes"/>
      <point x="505" y="71"/>
      <point x="473" y="149"/>
      <point x="411" y="113" type="curve" smooth="yes"/>
      <point x="376" y="93"/>
      <point x="331" y="85"/>
      <point x="291" y="85" type="curve" smooth="yes"/>
      <point x="192" y="85"/>
      <point x="141" y="146"/>
      <point x="157" y="244" type="curve" smooth="yes"/>
      <point x="162" y="275" type="line" smooth="yes"/>
      <point x="174" y="346"/>
      <point x="217" y="414"/>
      <point x="306" y="414" type="curve" smooth="yes"/>
      <point x="391" y="414"/>
      <point x="421" y="352"/>
      <point x="410" y="273" type="curve"/>
      <point x="427" y="288" type="line"/>
      <point x="147" y="288" type="line"/>
      <point x="137" y="216" type="line"/>
      <point x="473" y="216" type="line" smooth="yes"/>
      <point x="494" y="216"/>
      <point x="506" y="221"/>
      <point x="509" y="249" type="curve" smooth="yes"/>
      <point x="522" y="375"/>
      <point x="470" y="499"/>
      <point x="307" y="499" type="curve" smooth="yes"/>
      <point x="148" y="499"/>
      <point x="37" y="375"/>
      <point x="37" y="212" type="curve" smooth="yes"/>
      <point x="37" y="77"/>
      <point x="132" y="-10"/>
    </contour>
  </outline>
</glyph>
<glyph name="g" format="2">
  <advance width="604"/>
  <unicode hex="0067"/>
  <anchor x="335" y="484" name="top"/>
  <outline>
    <contour>
      <point x="256" y="-190" type="curve" smooth="yes"/>
      <point x="400" y="-190"/>
      <point x="482" y="-114"/>
      <point x="504" y="26" type="curve" smooth="yes"/>
      <point x="567" y="424" type="line" smooth="yes"/>
      <point x="574" y="470"/>
      <point x="556" y="497"/>
      <point x="518" y="497" type="curve" smooth="yes"/>
      <point x="478" y="497"/>
      <point x="453" y="478"/>
      <point x="447" y="437" type="curve" smooth="yes"/>
      <point x="436" y="364" type="line"/>
      <point x="448" y="392" type="line"/>
      <point x="425" y="463"/>
      <point x="363" y="499"/>
      <point x="286" y="499" type="curve" smooth="yes"/>
      <point x="133" y="499"/>
      <point x="37" y="366"/>
      <point x="37" y="213" type="curve" smooth="yes"/>
      <point x="37" y="88"/>
      <point x="115" y="12"/>
      <point x="233" y="12" type="curve" smooth="yes"/>
      <point x="309" y="12"/>
      <point x="374" y="48"/>
      <point x="406" y="113" type="curve"/>
      <point x="398" y="114" type="line"/>
      <point x="382" y="19" type="line" smooth="yes"/>
      <point x="369" y="-61"/>
      <point x="318" y="-95"/>
      <point x="238" y="-95" type="curve" smooth="yes"/>
      <point x="186" y="-95"/>
      <point x="137" y="-80"/>
      <point x="94" y="-57" type="curve" smooth="yes"/>
      <point x="34" y="-25"/>
      <point x="-8" y="-106"/>
      <point x="49" y="-140" type="curve" smooth="yes"/>
      <point x="102" y="-171"/>
      <point x="176" y="-190"/>
    </contour>
    <contour>
      <point x="272" y="107" type="curve" smooth="yes"/>
      <point x="202" y="107"/>
      <point x="163" y="149"/>
      <point x="163" y="220" type="curve" smooth="yes"/>
      <point x="163" y="318"/>
      <point x="215" y="404"/>
      <point x="308" y="404" type="curve" smooth="yes"/>
      <point x="378" y="404"/>
      <point x="418" y="361"/>
      <point x="418" y="292" type="curve" smooth="yes"/>
      <point x="418" y="193"/>
      <point x="365" y="107"/>
    </contour>
  </outline>
</glyph>
<glyph name="j" format="2">
  <advance width="259"/>
  <unicode hex="006A"/>
  <outline>
    <contour>
      <point x="-64" y="-191" type="curve" smooth="yes"/>
      <point x="77" y="-183"/>
      <point x="135" y="-127"/>
      <point x="156" y="7" type="curve" smooth="yes"/>
      <point x="222" y="424" type="line" smooth="yes"/>
      <point x="229" y="470"/>
      <point x="209" y="497"/>
      <point x="170" y="497" type="curve" smooth="yes"/>
      <point x="129" y="497"/>
      <point x="106" y="476"/>
      <point x="99" y="435" type="curve" smooth="yes"/>
      <point x="29" y="-7" type="line" smooth="yes"/>
      <point x="19" y="-69"/>
      <point x="-16" y="-96"/>
      <point x="-70" y="-98" type="curve" smooth="yes"/>
      <point x="-130" y="-100"/>
      <point x="-130" y="-195"/>
    </contour>
    <contour>
      <point x="185" y="589" type="curve" smooth="yes"/>
      <point x="235" y="589"/>
      <point x="264" y="613"/>
      <point x="270" y="658" type="curve" smooth="yes"/>
      <point x="275" y="698"/>
      <point x="251" y="721"/>
      <point x="206" y="721" type="curve" smooth="yes"/>
      <point x="156" y="721"/>
      <point x="126" y="697"/>
      <point x="121" y="652" type="curve" smooth="yes"/>
      <point x="117" y="612"/>
      <point x="140" y="589"/>
    </contour>
  </outline>
</glyph>
<glyph name="n" format="2">
  <advance width="585"/>
  <unicode hex="006E"/>
  <anchor x="258" y="0" name="bottom"/>
  <anchor x="328" y="484" name="top"/>
  <outline>
    <contour>
      <point x="88" y="-7" type="curve" smooth="yes"/>
      <point x="130" y="-7"/>
      <point x="154" y="14"/>
      <point x="160" y="55" type="curve" smooth="yes"/>
      <point x="193" y="263" type="line" smooth="yes"/>
      <point x="206" y="348"/>
      <point x="254" y="401"/>
      <point x="333" y="401" type="curve" smooth="yes"/>
      <point x="394" y="401"/>
      <point x="417" y="364"/>
      <point x="405" y="291" type="curve" smooth="yes"/>
      <point x="369" y="66" type="line" smooth="yes"/>
      <point x="362" y="20"/>
      <point x="382" y="-7"/>
      <point x="421" y="-7" type="curve" smooth="yes"/>
      <point x="462" y="-7"/>
      <point x="487" y="14"/>
      <point x="493" y="55" type="curve" smooth="yes"/>
      <point x="530" y="293" type="line" smooth="yes"/>
      <point x="552" y="435"/>
      <point x="490" y="499"/>
      <point x="383" y="499" type="curve" smooth="yes"/>
      <point x="299" y="499"/>
      <point x="235" y="460"/>
      <point x="202" y="390" type="curve"/>
      <point x="206" y="365" type="line"/>
      <point x="216" y="429" type="line" smooth="yes"/>
      <point x="223" y="474"/>
      <point x="204" y="497"/>
      <point x="167" y="497" type="curve" smooth="yes"/>
      <point x="127" y="497"/>
      <point x="101" y="476"/>
      <point x="95" y="435" type="curve" smooth="yes"/>
      <point x="37" y="66" type="line" smooth="yes"/>
      <point x="30" y="20"/>
      <point x="49" y="-7"/>
    </contour>
  </outline>
</glyph>
<glyph name="p" format="2">
  <advance width="600"/>
  <unicode hex="0070"/>
  <anchor x="260" y="0" name="bottom"/>
  <anchor x="336" y="484" name="top"/>
  <outline>
    <contour>
      <point x="60" y="-188" type="curve" smooth="yes"/>
      <point x="102" y="-188"/>
      <point x="124" y="-170"/>
      <point x="131" y="-129" type="curve" smooth="yes"/>
      <point x="167" y="97" type="line"/>
      <point x="158" y="97" type="line"/>
      <point x="181" y="26"/>
      <point x="243" y="-10"/>
      <point x="318" y="-10" type="curve" smooth="yes"/>
      <point x="471" y="-10"/>
      <point x="564" y="122"/>
      <point x="564" y="288" type="curve" smooth="yes"/>
      <point x="564" y="418"/>
      <point x="491" y="499"/>
      <point x="379" y="499" type="curve" smooth="yes"/>
      <point x="303" y="499"/>
      <point x="242" y="463"/>
      <point x="205" y="398" type="curve"/>
      <point x="207" y="368" type="line"/>
      <point x="216" y="424" type="line" smooth="yes"/>
      <point x="223" y="470"/>
      <point x="206" y="497"/>
      <point x="167" y="497" type="curve" smooth="yes"/>
      <point x="126" y="497"/>
      <point x="102" y="475"/>
      <point x="95" y="433" type="curve" smooth="yes"/>
      <point x="8" y="-116" type="line" smooth="yes"/>
      <point x="1" y="-162"/>
      <point x="21" y="-188"/>
    </contour>
    <contour>
      <point x="295" y="85" type="curve" smooth="yes"/>
      <point x="228" y="85"/>
      <point x="188" y="128"/>
      <point x="188" y="207" type="curve" smooth="yes"/>
      <point x="188" y="318"/>
      <point x="240" y="404"/>
      <point x="331" y="404" type="curve" smooth="yes"/>
      <point x="398" y="404"/>
      <point x="438" y="361"/>
      <point x="438" y="282" type="curve" smooth="yes"/>
      <point x="438" y="171"/>
      <point x="386" y="85"/>
    </contour>
  </outline>
</glyph>
<glyph name="q" format="2">
  <advance width="600"/>
  <unicode hex="0071"/>
  <anchor x="263" y="0" name="bottom"/>
  <anchor x="340" y="484" name="top"/>
  <outline>
    <contour>
      <point x="404" y="-188" type="curve" smooth="yes"/>
      <point x="445" y="-188"/>
      <point x="470" y="-167"/>
      <point x="477" y="-124" type="curve" smooth="yes"/>
      <point x="564" y="424" type="line" smooth="yes"/>
      <point x="571" y="470"/>
      <point x="551" y="497"/>
      <point x="512" y="497" type="curve" smooth="yes"/>
      <point x="471" y="497"/>
      <point x="451" y="477"/>
      <point x="444" y="436" type="curve" smooth="yes"/>
      <point x="433" y="367" type="line"/>
      <point x="441" y="392" type="line"/>
      <point x="418" y="463"/>
      <point x="357" y="499"/>
      <point x="284" y="499" type="curve" smooth="yes"/>
      <point x="129" y="499"/>
      <point x="36" y="368"/>
      <point x="36" y="201" type="curve" smooth="yes"/>
      <point x="36" y="72"/>
      <point x="109" y="-10"/>
      <point x="221" y="-10" type="curve" smooth="yes"/>
      <point x="297" y="-10"/>
      <point x="359" y="29"/>
      <point x="395" y="92" type="curve"/>
      <point x="386" y="92" type="line"/>
      <point x="353" y="-116" type="line" smooth="yes"/>
      <point x="346" y="-162"/>
      <point x="365" y="-188"/>
    </contour>
    <contour>
      <point x="269" y="85" type="curve" smooth="yes"/>
      <point x="202" y="85"/>
      <point x="162" y="128"/>
      <point x="162" y="207" type="curve" smooth="yes"/>
      <point x="162" y="318"/>
      <point x="214" y="404"/>
      <point x="305" y="404" type="curve" smooth="yes"/>
      <point x="372" y="404"/>
      <point x="412" y="361"/>
      <point x="412" y="282" type="curve" smooth="yes"/>
      <point x="412" y="172"/>
      <point x="360" y="85"/>
    </contour>
  </outline>
</glyph>
<glyph name="t" format="2">
  <advance width="384"/>
  <unicode hex="0074"/>
  <anchor x="200" y="0" name="bottom"/>
  <anchor x="182" y="261" name="center"/>
  <anchor x="219" y="635" name="top"/>
  <anchor x="353" y="705" name="topright"/>
  <outline>
    <contour>
      <point x="258" y="-10" type="curve" smooth="yes"/>
      <point x="277" y="-10"/>
      <point x="302" y="-7"/>
      <point x="318" y="-2" type="curve" smooth="yes"/>
      <point x="343" y="6"/>
      <point x="359" y="19"/>
      <point x="359" y="64" type="curve" smooth="yes"/>
      <point x="359" y="91"/>
      <point x="350" y="99"/>
      <point x="332" y="99" type="curve" smooth="yes"/>
      <point x="318" y="99"/>
      <point x="307" y="93"/>
      <point x="283" y="93" type="curve" smooth="yes"/>
      <point x="232" y="93"/>
      <point x="200" y="120"/>
      <point x="211" y="190" type="curve" smooth="yes"/>
      <point x="244" y="395" type="line"/>
      <point x="351" y="395" type="line" smooth="yes"/>
      <point x="387" y="395"/>
      <point x="409" y="418"/>
      <point x="409" y="450" type="curve" smooth="yes"/>
      <point x="409" y="476"/>
      <point x="390" y="489"/>
      <point x="357" y="489" type="curve" smooth="yes"/>
      <point x="259" y="489" type="line"/>
      <point x="272" y="574" type="line" smooth="yes"/>
      <point x="279" y="618"/>
      <point x="259" y="643"/>
      <point x="217" y="643" type="curve" smooth="yes"/>
      <point x="178" y="643"/>
      <point x="155" y="624"/>
      <point x="149" y="585" type="curve" smooth="yes"/>
      <point x="134" y="489" type="line"/>
      <point x="87" y="489" type="line" smooth="yes"/>
      <point x="48" y="489"/>
      <point x="24" y="470"/>
      <point x="24" y="435" type="curve" smooth="yes"/>
      <point x="24" y="409"/>
      <point x="43" y="395"/>
      <point x="75" y="395" type="curve" smooth="yes"/>
      <point x="119" y="395" type="line"/>
      <point x="85" y="182" type="line" smooth="yes"/>
      <point x="67" y="68"/>
      <point x="127" y="-10"/>
    </contour>
  </outline>
</glyph>
<glyph name="w" format="2">
  <advance width="853"/>
  <unicode hex="0077"/>
  <anchor x="387" y="0" name="bottom"/>
  <anchor x="455" y="484" name="top"/>
  <outline>
    <contour>
      <point x="215" y="-8" type="curve" smooth="yes"/>
      <point x="250" y="-8"/>
      <point x="274" y="8"/>
      <point x="291" y="41" type="curve" smooth="yes"/>
      <point x="477" y="391" type="line"/>
      <point x="420" y="391" type="line"/>
      <point x="495" y="50" type="line" smooth="yes"/>
      <point x="504" y="11"/>
      <point x="528" y="-8"/>
      <point x="562" y="-8" type="curve" smooth="yes"/>
      <point x="595" y="-8"/>
      <point x="620" y="7"/>
      <point x="637" y="39" type="curve" smooth="yes"/>
      <point x="847" y="421" type="line" smooth="yes"/>
      <point x="869" y="462"/>
      <point x="854" y="497"/>
      <point x="806" y="497" type="curve" smooth="yes"/>
      <point x="773" y="497"/>
      <point x="755" y="486"/>
      <point x="737" y="451" type="curve" smooth="yes"/>
      <point x="561" y="114" type="line"/>
      <point x="581" y="114" type="line"/>
      <point x="512" y="451" type="line" smooth="yes"/>
      <point x="505" y="483"/>
      <point x="486" y="497"/>
      <point x="460" y="497" type="curve" smooth="yes"/>
      <point x="432" y="497"/>
      <point x="415" y="486"/>
      <point x="401" y="460" type="curve" smooth="yes"/>
      <point x="218" y="114" type="line"/>
      <point x="243" y="114" type="line"/>
      <point x="176" y="442" type="line" smooth="yes"/>
      <point x="168" y="482"/>
      <point x="153" y="497"/>
      <point x="121" y="497" type="curve" smooth="yes"/>
      <point x="76" y="497"/>
      <point x="52" y="462"/>
      <point x="64" y="411" type="curve" smooth="yes"/>
      <point x="149" y="50" type="line" smooth="yes"/>
      <point x="158" y="10"/>
      <point x="182" y="-8"/>
    </contour>
  </outline>
</glyph>
<glyph name="asciitilde" format="2">
  <advance width="600"/>
  <unicode hex="007E"/>
  <outline>
    <contour>
      <point x="417" y="209" type="curve" smooth="yes"/>
      <point x="468" y="209"/>
      <point x="508" y="235"/>
      <point x="540" y="285" type="curve" smooth="yes"/>
      <point x="570" y="331"/>
      <point x="508" y="370"/>
      <point x="478" y="331" type="curve" smooth="yes"/>
      <point x="461" y="309"/>
      <point x="440" y="293"/>
      <point x="409" y="293" type="curve" smooth="yes"/>
      <point x="383" y="293"/>
      <point x="356" y="308"/>
      <point x="322" y="325" type="curve" smooth="yes"/>
      <point x="284" y="344"/>
      <point x="241" y="366"/>
      <point x="196" y="366" type="curve" smooth="yes"/>
      <point x="145" y="366"/>
      <point x="105" y="340"/>
      <point x="73" y="290" type="curve" smooth="yes"/>
      <point x="43" y="243"/>
      <point x="105" y="204"/>
      <point x="136" y="244" type="curve" smooth="yes"/>
      <point x="153" y="266"/>
      <point x="174" y="282"/>
      <point x="204" y="282" type="curve" smooth="yes"/>
      <point x="230" y="282"/>
      <point x="260" y="267"/>
      <point x="294" y="249" type="curve" smooth="yes"/>
      <point x="331" y="230"/>
      <point x="373" y="209"/>
    </contour>
  </outline>
</glyph>
<glyph name="cent" format="2">
  <advance width="600"/>
  <unicode hex="00A2"/>
  <outline>
    <contour>
      <point x="258" y="-123" type="curve" smooth="yes"/>
      <point x="289" y="-123"/>
      <point x="308" y="-108"/>
      <point x="313" y="-80" type="curve" smooth="yes"/>
      <point x="328" y="19" type="line"/>
      <point x="303" y="-3" type="line"/>
      <point x="345" y="-7"/>
      <point x="405" y="2"/>
      <point x="453" y="26" type="curve" smooth="yes"/>
      <point x="511" y="55"/>
      <point x="477" y="144"/>
      <point x="424" y="115" type="curve" smooth="yes"/>
      <point x="395" y="99"/>
      <point x="362" y="93"/>
      <point x="337" y="93" type="curve" smooth="yes"/>
      <point x="245" y="93"/>
      <point x="210" y="144"/>
      <point x="210" y="214" type="curve" smooth="yes"/>
      <point x="210" y="302"/>
      <point x="253" y="398"/>
      <point x="370" y="398" type="curve" smooth="yes"/>
      <point x="405" y="398"/>
      <point x="434" y="391"/>
      <point x="463" y="377" type="curve" smooth="yes"/>
      <point x="521" y="349"/>
      <point x="563" y="425"/>
      <point x="506" y="460" type="curve" smooth="yes"/>
      <point x="477" y="478"/>
      <point x="426" y="493"/>
      <point x="381" y="494" type="curve"/>
      <point x="398" y="466" type="line"/>
      <point x="414" y="565" type="line" smooth="yes"/>
      <point x="420" y="601"/>
      <point x="396" y="617"/>
      <point x="369" y="617" type="curve" smooth="yes"/>
      <point x="339" y="617"/>
      <point x="319" y="600"/>
      <point x="315" y="574" type="curve" smooth="yes"/>
      <point x="297" y="459" type="line"/>
      <point x="325" y="492" type="line"/>
      <point x="157" y="476"/>
      <point x="82" y="345"/>
      <point x="82" y="213" type="curve" smooth="yes"/>
      <point x="82" y="106"/>
      <point x="135" y="26"/>
      <point x="246" y="4" type="curve"/>
      <point x="229" y="25" type="line"/>
      <point x="214" y="-70" type="line" smooth="yes"/>
      <point x="208" y="-107"/>
      <point x="228" y="-123"/>
    </contour>
  </outline>
</glyph>
<glyph name="yen" format="2">
  <advance width="600"/>
  <unicode hex="00A5"/>
  <outline>
    <contour>
      <point x="260" y="-8" type="curve" smooth="yes"/>
      <point x="302" y="-8"/>
      <point x="327" y="12"/>
      <point x="334" y="55" type="curve" smooth="yes"/>
      <point x="350" y="159" type="line"/>
      <point x="485" y="159" type="line" smooth="yes"/>
      <point x="511" y="159"/>
      <point x="534" y="178"/>
      <point x="534" y="205" type="curve" smooth="yes"/>
      <point x="534" y="232"/>
      <point x="515" y="247"/>
      <point x="481" y="247" type="curve" smooth="yes"/>
      <point x="365" y="247" type="line"/>
      <point x="375" y="315" type="line"/>
      <point x="510" y="315" type="line" smooth="yes"/>
      <point x="536" y="315"/>
      <point x="559" y="334"/>
      <point x="559" y="361" type="curve" smooth="yes"/>
      <point x="559" y="388"/>
      <point x="540" y="403"/>
      <point x="506" y="403" type="curve" smooth="yes"/>
      <point x="416" y="403" type="line"/>
      <point x="414" y="381" type="line"/>
      <point x="624" y="628" type="line" smooth="yes"/>
      <point x="656" y="665"/>
      <point x="629" y="713"/>
      <point x="582" y="713" type="curve" smooth="yes"/>
      <point x="555" y="713"/>
      <point x="541" y="702"/>
      <point x="519" y="676" type="curve" smooth="yes"/>
      <point x="308" y="421" type="line"/>
      <point x="336" y="421" type="line"/>
      <point x="209" y="668" type="line" smooth="yes"/>
      <point x="192" y="702"/>
      <point x="180" y="713"/>
      <point x="151" y="713" type="curve" smooth="yes"/>
      <point x="102" y="713"/>
      <point x="75" y="671"/>
      <point x="99" y="627" type="curve" smooth="yes"/>
      <point x="231" y="381" type="line"/>
      <point x="233" y="403" type="line"/>
      <point x="126" y="403" type="line" smooth="yes"/>
      <point x="100" y="403"/>
      <point x="77" y="385"/>
      <point x="77" y="357" type="curve" smooth="yes"/>
      <point x="77" y="332"/>
      <point x="96" y="315"/>
      <point x="130" y="315" type="curve" smooth="yes"/>
      <point x="248" y="315" type="line"/>
      <point x="236" y="247" type="line"/>
      <point x="101" y="247" type="line" smooth="yes"/>
      <point x="75" y="247"/>
      <point x="52" y="229"/>
      <point x="52" y="201" type="curve" smooth="yes"/>
      <point x="52" y="176"/>
      <point x="71" y="159"/>
      <point x="105" y="159" type="curve" smooth="yes"/>
      <point x="222" y="159" type="line"/>
      <point x="207" y="66" type="line" smooth="yes"/>
      <point x="199" y="19"/>
      <point x="219" y="-8"/>
    </contour>
  </outline>
</glyph>
<glyph name="brokenbar" format="2">
  <advance width="288"/>
  <unicode hex="00A6"/>
  <outline>
    <contour>
      <point x="163" y="364" type="curve" smooth="yes"/>
      <point x="205" y="364"/>
      <point x="229" y="385"/>
      <point x="236" y="426" type="curve" smooth="yes"/>
      <point x="270" y="640" type="line" smooth="yes"/>
      <point x="277" y="686"/>
      <point x="257" y="713"/>
      <point x="218" y="713" type="curve" smooth="yes"/>
      <point x="177" y="713"/>
      <point x="153" y="692"/>
      <point x="146" y="651" type="curve" smooth="yes"/>
      <point x="112" y="437" type="line" smooth="yes"/>
      <point x="105" y="391"/>
      <point x="124" y="364"/>
    </contour>
    <contour>
      <point x="76" y="-188" type="curve" smooth="yes"/>
      <point x="118" y="-188"/>
      <point x="143" y="-167"/>
      <point x="149" y="-126" type="curve" smooth="yes"/>
      <point x="183" y="89" type="line" smooth="yes"/>
      <point x="190" y="135"/>
      <point x="170" y="162"/>
      <point x="131" y="162" type="curve" smooth="yes"/>
      <point x="90" y="162"/>
      <point x="66" y="141"/>
      <point x="59" y="99" type="curve" smooth="yes"/>
      <point x="25" y="-115" type="line" smooth="yes"/>
      <point x="18" y="-161"/>
      <point x="37" y="-188"/>
    </contour>
  </outline>
</glyph>
<glyph name="section" format="2">
  <advance width="570"/>
  <unicode hex="00A7"/>
  <outline>
    <contour>
      <point x="222" y="-190" type="curve" smooth="yes"/>
      <point x="349" y="-190"/>
      <point x="455" y="-118"/>
      <point x="455" y="7" type="curve" smooth="yes"/>
      <point x="455" y="36"/>
      <point x="448" y="60"/>
      <point x="435" y="82" type="curve"/>
      <point x="432" y="63" type="line"/>
      <point x="494" y="101"/>
      <point x="529" y="155"/>
      <point x="529" y="222" type="curve" smooth="yes"/>
      <point x="529" y="283"/>
      <point x="491" y="336"/>
      <point x="416" y="378" type="curve" smooth="yes"/>
      <point x="304" y="441" type="line" smooth="yes"/>
      <point x="258" y="467"/>
      <point x="241" y="490"/>
      <point x="241" y="531" type="curve" smooth="yes"/>
      <point x="241" y="588"/>
      <point x="286" y="627"/>
      <point x="357" y="627" type="curve" smooth="yes"/>
      <point x="399" y="627"/>
      <point x="448" y="614"/>
      <point x="485" y="593" type="curve" smooth="yes"/>
      <point x="543" y="560"/>
      <point x="591" y="635"/>
      <point x="528" y="671" type="curve" smooth="yes"/>
      <point x="472" y="703"/>
      <point x="416" y="715"/>
      <point x="354" y="715" type="curve" smooth="yes"/>
      <point x="227" y="715"/>
      <point x="121" y="642"/>
      <point x="121" y="520" type="curve" smooth="yes"/>
      <point x="121" y="491"/>
      <point x="127" y="468"/>
      <point x="138" y="447" type="curve"/>
      <point x="142" y="460" type="line"/>
      <point x="80" y="422"/>
      <point x="47" y="370"/>
      <point x="47" y="302" type="curve" smooth="yes"/>
      <point x="47" y="242"/>
      <point x="85" y="187"/>
      <point x="158" y="146" type="curve" smooth="yes"/>
      <point x="272" y="82" type="line" smooth="yes"/>
      <point x="317" y="57"/>
      <point x="335" y="35"/>
      <point x="335" y="-7" type="curve" smooth="yes"/>
      <point x="335" y="-63"/>
      <point x="289" y="-102"/>
      <point x="218" y="-102" type="curve" smooth="yes"/>
      <point x="166" y="-102"/>
      <point x="117" y="-89"/>
      <point x="74" y="-64" type="curve" smooth="yes"/>
      <point x="17" y="-31"/>
      <point x="-26" y="-112"/>
      <point x="34" y="-145" type="curve" smooth="yes"/>
      <point x="87" y="-174"/>
      <point x="151" y="-190"/>
    </contour>
    <contour>
      <point x="158" y="324" type="curve" smooth="yes"/>
      <point x="158" y="350"/>
      <point x="169" y="381"/>
      <point x="196" y="408" type="curve"/>
      <point x="180" y="403" type="line"/>
      <point x="194" y="384"/>
      <point x="214" y="366"/>
      <point x="242" y="351" type="curve" smooth="yes"/>
      <point x="343" y="296" type="line" smooth="yes"/>
      <point x="392" y="269"/>
      <point x="418" y="238"/>
      <point x="418" y="201" type="curve" smooth="yes"/>
      <point x="418" y="176"/>
      <point x="406" y="146"/>
      <point x="382" y="121" type="curve"/>
      <point x="396" y="121" type="line"/>
      <point x="382" y="140"/>
      <point x="363" y="156"/>
      <point x="334" y="172" type="curve" smooth="yes"/>
      <point x="231" y="229" type="line" smooth="yes"/>
      <point x="183" y="255"/>
      <point x="158" y="287"/>
    </contour>
  </outline>
</glyph>
<glyph name="ordfeminine" format="2">
  <advance width="339"/>
  <unicode hex="00AA"/>
  <outline>
    <contour>
      <point x="165" y="408" type="curve" smooth="yes"/>
      <point x="207" y="408"/>
      <point x="241" y="429"/>
      <point x="264" y="469" type="curve"/>
      <point x="267" y="469" type="line"/>
      <point x="263" y="447" type="line" smooth="yes"/>
      <point x="260" y="425"/>
      <point x="271" y="408"/>
      <point x="298" y="408" type="curve" smooth="yes"/>
      <point x="321" y="408"/>
      <point x="335" y="420"/>
      <point x="339" y="444" type="curve" smooth="yes"/>
      <point x="361" y="579" type="line" smooth="yes"/>
      <point x="373" y="657"/>
      <point x="331" y="715"/>
      <point x="234" y="715" type="curve" smooth="yes"/>
      <point x="197" y="715"/>
      <point x="161" y="708"/>
      <point x="133" y="696" type="curve" smooth="yes"/>
      <point x="89" y="680"/>
      <point x="107" y="625"/>
      <point x="150" y="639" type="curve" smooth="yes"/>
      <point x="174" y="649"/>
      <point x="202" y="654"/>
      <point x="226" y="654" type="curve" smooth="yes"/>
      <point x="268" y="654"/>
      <point x="290" y="636"/>
      <point x="284" y="599" type="curve" smooth="yes"/>
      <point x="273" y="530" type="line" smooth="yes"/>
      <point x="267" y="492"/>
      <point x="230" y="463"/>
      <point x="191" y="463" type="curve" smooth="yes"/>
      <point x="163" y="463"/>
      <point x="144" y="480"/>
      <point x="144" y="505" type="curve" smooth="yes"/>
      <point x="144" y="533"/>
      <point x="174" y="545"/>
      <point x="242" y="545" type="curve" smooth="yes"/>
      <point x="290" y="545" type="line"/>
      <point x="297" y="589" type="line"/>
      <point x="238" y="589" type="line" smooth="yes"/>
      <point x="123" y="589"/>
      <point x="63" y="561"/>
      <point x="63" y="500" type="curve" smooth="yes"/>
      <point x="63" y="450"/>
      <point x="107" y="408"/>
    </contour>
  </outline>
</glyph>
<glyph name="plusminus" format="2">
  <advance width="600"/>
  <unicode hex="00B1"/>
  <outline>
    <contour>
      <point x="285" y="131" type="curve" smooth="yes"/>
      <point x="315" y="131"/>
      <point x="330" y="146"/>
      <point x="335" y="176" type="curve" smooth="yes"/>
      <point x="353" y="291" type="line"/>
      <point x="515" y="291" type="line" smooth="yes"/>
      <point x="548" y="291"/>
      <point x="567" y="311"/>
      <point x="567" y="343" type="curve" smooth="yes"/>
      <point x="567" y="366"/>
      <point x="551" y="379"/>
      <point x="520" y="379" type="curve" smooth="yes"/>
      <point x="368" y="379" type="line"/>
      <point x="384" y="486" type="line" smooth="yes"/>
      <point x="389" y="518"/>
      <point x="375" y="539"/>
      <point x="344" y="539" type="curve" smooth="yes"/>
      <point x="315" y="539"/>
      <point x="298" y="523"/>
      <point x="294" y="494" type="curve" smooth="yes"/>
      <point x="277" y="379" type="line"/>
      <point x="115" y="379" type="line" smooth="yes"/>
      <point x="82" y="379"/>
      <point x="63" y="359"/>
      <point x="63" y="327" type="curve" smooth="yes"/>
      <point x="63" y="304"/>
      <point x="79" y="291"/>
      <point x="109" y="291" type="curve" smooth="yes"/>
      <point x="262" y="291" type="line"/>
      <point x="245" y="184" type="line" smooth="yes"/>
      <point x="240" y="150"/>
      <point x="255" y="131"/>
    </contour>
    <contour>
      <point x="63" y="0" type="curve" smooth="yes"/>
      <point x="469" y="0" type="line" smooth="yes"/>
      <point x="502" y="0"/>
      <point x="521" y="20"/>
      <point x="521" y="52" type="curve" smooth="yes"/>
      <point x="521" y="75"/>
      <point x="505" y="88"/>
      <point x="474" y="88" type="curve" smooth="yes"/>
      <point x="68" y="88" type="line" smooth="yes"/>
      <point x="35" y="88"/>
      <point x="16" y="68"/>
      <point x="16" y="36" type="curve" smooth="yes"/>
      <point x="16" y="13"/>
      <point x="32" y="0"/>
    </contour>
  </outline>
</glyph>
<glyph name="ordmasculine" format="2">
  <advance width="353"/>
  <unicode hex="00BA"/>
  <outline>
    <contour>
      <point x="221" y="410" type="curve" smooth="yes"/>
      <point x="311" y="410"/>
      <point x="383" y="472"/>
      <point x="383" y="573" type="curve" smooth="yes"/>
      <point x="383" y="660"/>
      <point x="320" y="715"/>
      <point x="232" y="715" type="curve" smooth="yes"/>
      <point x="142" y="715"/>
      <point x="70" y="653"/>
      <point x="70" y="552" type="curve" smooth="yes"/>
      <point x="70" y="465"/>
      <point x="133" y="410"/>
    </contour>
    <contour>
      <point x="222" y="472" type="curve" smooth="yes"/>
      <point x="181" y="472"/>
      <point x="153" y="500"/>
      <point x="153" y="551" type="curve" smooth="yes"/>
      <point x="153" y="619"/>
      <point x="185" y="653"/>
      <point x="231" y="653" type="curve" smooth="yes"/>
      <point x="272" y="653"/>
      <point x="300" y="625"/>
      <point x="300" y="574" type="curve" smooth="yes"/>
      <point x="300" y="506"/>
      <point x="268" y="472"/>
    </contour>
  </outline>
</glyph>
<glyph name="thorn" format="2">
  <advance width="600"/>
  <unicode hex="00FE"/>
  <anchor x="262" y="0" name="bottom"/>
  <anchor x="339" y="484" name="top"/>
  <outline>
    <contour>
      <point x="60" y="-188" type="curve" smooth="yes"/>
      <point x="102" y="-188"/>
      <point x="124" y="-170"/>
      <point x="131" y="-129" type="curve" smooth="yes"/>
      <point x="167" y="97" type="line"/>
      <point x="158" y="97" type="line"/>
      <point x="181" y="26"/>
      <point x="243" y="-10"/>
      <point x="318" y="-10" type="curve" smooth="yes"/>
      <point x="471" y="-10"/>
      <point x="564" y="122"/>
      <point x="564" y="288" type="curve" smooth="yes"/>
      <point x="564" y="418"/>
      <point x="491" y="499"/>
      <point x="379" y="499" type="curve" smooth="yes"/>
      <point x="303" y="499"/>
      <point x="242" y="463"/>
      <point x="205" y="398" type="curve"/>
      <point x="210" y="368" type="line"/>
      <point x="253" y="643" type="line" smooth="yes"/>
      <point x="260" y="689"/>
      <point x="240" y="713"/>
      <point x="201" y="713" type="curve" smooth="yes"/>
      <point x="160" y="713"/>
      <point x="136" y="691"/>
      <point x="129" y="649" type="curve" smooth="yes"/>
      <point x="8" y="-116" type="line" smooth="yes"/>
      <point x="1" y="-162"/>
      <point x="21" y="-188"/>
    </contour>
    <contour>
      <point x="295" y="85" type="curve" smooth="yes"/>
      <point x="228" y="85"/>
      <point x="188" y="128"/>
      <point x="188" y="207" type="curve" smooth="yes"/>
      <point x="188" y="318"/>
      <point x="240" y="404"/>
      <point x="331" y="404" type="curve" smooth="yes"/>
      <point x="398" y="404"/>
      <point x="438" y="361"/>
      <point x="438" y="282" type="curve" smooth="yes"/>
      <point x="438" y="171"/>
      <point x="386" y="85"/>
    </contour>
  </outline>
</glyph>
<glyph name="dcroat" format="2">
  <advance width="600"/>
  <unicode hex="0111"/>
  <outline>
    <contour>
      <point x="220" y="-10" type="curve" smooth="yes"/>
      <point x="297" y="-10"/>
      <point x="359" y="29"/>
      <point x="395" y="92" type="curve"/>
      <point x="394" y="122" type="line"/>
      <point x="385" y="67" type="line" smooth="yes"/>
      <point x="377" y="21"/>
      <point x="394" y="-8"/>
      <point x="433" y="-8" type="curve" smooth="yes"/>
      <point x="474" y="-8"/>
      <point x="498" y="14"/>
      <point x="505" y="56" type="curve" smooth="yes"/>
      <point x="582" y="544" type="line"/>
      <point x="629" y="544" type="line" smooth="yes"/>
      <point x="662" y="544"/>
      <point x="683" y="563"/>
      <point x="683" y="596" type="curve" smooth="yes"/>
      <point x="683" y="619"/>
      <point x="665" y="632"/>
      <point x="635" y="632" type="curve" smooth="yes"/>
      <point x="570" y="632" type="line"/>
      <point x="588" y="582" type="line"/>
      <point x="598" y="644" type="line" smooth="yes"/>
      <point x="606" y="691"/>
      <point x="586" y="713"/>
      <point x="547" y="713" type="curve" smooth="yes"/>
      <point x="506" y="713"/>
      <point x="481" y="693"/>
      <point x="475" y="652" type="curve" smooth="yes"/>
      <point x="464" y="582" type="line"/>
      <point x="496" y="632" type="line"/>
      <point x="323" y="632" type="line" smooth="yes"/>
      <point x="290" y="632"/>
      <point x="270" y="612"/>
      <point x="270" y="580" type="curve" smooth="yes"/>
      <point x="270" y="556"/>
      <point x="287" y="544"/>
      <point x="318" y="544" type="curve" smooth="yes"/>
      <point x="458" y="544" type="line"/>
      <point x="434" y="393" type="line"/>
      <point x="441" y="392" type="line"/>
      <point x="418" y="463"/>
      <point x="357" y="499"/>
      <point x="282" y="499" type="curve" smooth="yes"/>
      <point x="129" y="499"/>
      <point x="36" y="368"/>
      <point x="36" y="201" type="curve" smooth="yes"/>
      <point x="36" y="72"/>
      <point x="109" y="-10"/>
    </contour>
    <contour>
      <point x="269" y="85" type="curve" smooth="yes"/>
      <point x="202" y="85"/>
      <point x="162" y="128"/>
      <point x="162" y="207" type="curve" smooth="yes"/>
      <point x="162" y="318"/>
      <point x="214" y="404"/>
      <point x="305" y="404" type="curve" smooth="yes"/>
      <point x="372" y="404"/>
      <point x="412" y="361"/>
      <point x="412" y="282" type="curve" smooth="yes"/>
      <point x="412" y="172"/>
      <point x="360" y="85"/>
    </contour>
  </outline>
</glyph>
<glyph name="Hbar" format="2">
  <advance width="817"/>
  <unicode hex="0126"/>
  <outline>
    <contour>
      <point x="126" y="-8" type="curve" smooth="yes"/>
      <point x="168" y="-8"/>
      <point x="190" y="14"/>
      <point x="197" y="57" type="curve" smooth="yes"/>
      <point x="235" y="294" type="line"/>
      <point x="597" y="294" type="line"/>
      <point x="561" y="68" type="line" smooth="yes"/>
      <point x="553" y="20"/>
      <point x="575" y="-8"/>
      <point x="616" y="-8" type="curve" smooth="yes"/>
      <point x="658" y="-8"/>
      <point x="680" y="14"/>
      <point x="687" y="57" type="curve" smooth="yes"/>
      <point x="763" y="539" type="line"/>
      <point x="734" y="511" type="line"/>
      <point x="803" y="511" type="line" smooth="yes"/>
      <point x="838" y="511"/>
      <point x="860" y="532"/>
      <point x="860" y="567" type="curve" smooth="yes"/>
      <point x="860" y="591"/>
      <point x="842" y="605"/>
      <point x="809" y="605" type="curve" smooth="yes"/>
      <point x="749" y="605" type="line"/>
      <point x="768" y="564" type="line"/>
      <point x="780" y="640" type="line" smooth="yes"/>
      <point x="787" y="686"/>
      <point x="767" y="713"/>
      <point x="727" y="713" type="curve" smooth="yes"/>
      <point x="684" y="713"/>
      <point x="660" y="693"/>
      <point x="653" y="650" type="curve" smooth="yes"/>
      <point x="640" y="570" type="line"/>
      <point x="672" y="605" type="line"/>
      <point x="256" y="605" type="line"/>
      <point x="277" y="565" type="line"/>
      <point x="290" y="640" type="line" smooth="yes"/>
      <point x="298" y="686"/>
      <point x="276" y="713"/>
      <point x="236" y="713" type="curve" smooth="yes"/>
      <point x="193" y="713"/>
      <point x="170" y="692"/>
      <point x="163" y="649" type="curve" smooth="yes"/>
      <point x="151" y="574" type="line"/>
      <point x="181" y="605" type="line"/>
      <point x="111" y="605" type="line" smooth="yes"/>
      <point x="76" y="605"/>
      <point x="54" y="584"/>
      <point x="54" y="549" type="curve" smooth="yes"/>
      <point x="54" y="524"/>
      <point x="72" y="511"/>
      <point x="105" y="511" type="curve" smooth="yes"/>
      <point x="165" y="511" type="line"/>
      <point x="145" y="536" type="line"/>
      <point x="71" y="68" type="line" smooth="yes"/>
      <point x="63" y="20"/>
      <point x="85" y="-8"/>
    </contour>
    <contour>
      <point x="252" y="401" type="line"/>
      <point x="269" y="511" type="line"/>
      <point x="632" y="511" type="line"/>
      <point x="614" y="401" type="line"/>
    </contour>
  </outline>
</glyph>
<glyph name="hbar" format="2">
  <advance width="585"/>
  <unicode hex="0127"/>
  <outline>
    <contour>
      <point x="88" y="-8" type="curve" smooth="yes"/>
      <point x="129" y="-8"/>
      <point x="154" y="14"/>
      <point x="160" y="55" type="curve" smooth="yes"/>
      <point x="193" y="263" type="line" smooth="yes"/>
      <point x="206" y="348"/>
      <point x="254" y="401"/>
      <point x="332" y="401" type="curve" smooth="yes"/>
      <point x="394" y="401"/>
      <point x="417" y="365"/>
      <point x="405" y="292" type="curve" smooth="yes"/>
      <point x="369" y="65" type="line" smooth="yes"/>
      <point x="362" y="19"/>
      <point x="382" y="-8"/>
      <point x="421" y="-8" type="curve" smooth="yes"/>
      <point x="462" y="-8"/>
      <point x="487" y="14"/>
      <point x="493" y="55" type="curve" smooth="yes"/>
      <point x="530" y="293" type="line" smooth="yes"/>
      <point x="552" y="435"/>
      <point x="490" y="499"/>
      <point x="382" y="499" type="curve" smooth="yes"/>
      <point x="299" y="499"/>
      <point x="236" y="460"/>
      <point x="202" y="390" type="curve"/>
      <point x="213" y="390" type="line"/>
      <point x="237" y="544" type="line"/>
      <point x="385" y="544" type="line" smooth="yes"/>
      <point x="415" y="544"/>
      <point x="434" y="559"/>
      <point x="438" y="589" type="curve" smooth="yes"/>
      <point x="442" y="617"/>
      <point x="424" y="632"/>
      <point x="390" y="632" type="curve" smooth="yes"/>
      <point x="225" y="632" type="line"/>
      <point x="243" y="579" type="line"/>
      <point x="253" y="644" type="line" smooth="yes"/>
      <point x="262" y="693"/>
      <point x="241" y="713"/>
      <point x="202" y="713" type="curve" smooth="yes"/>
      <point x="160" y="713"/>
      <point x="136" y="698"/>
      <point x="129" y="651" type="curve" smooth="yes"/>
      <point x="120" y="588" type="line"/>
      <point x="156" y="632" type="line"/>
      <point x="79" y="632" type="line" smooth="yes"/>
      <point x="48" y="632"/>
      <point x="29" y="616"/>
      <point x="26" y="586" type="curve" smooth="yes"/>
      <point x="23" y="559"/>
      <point x="39" y="544"/>
      <point x="71" y="544" type="curve" smooth="yes"/>
      <point x="112" y="544" type="line"/>
      <point x="36" y="65" type="line" smooth="yes"/>
      <point x="29" y="19"/>
      <point x="49" y="-8"/>
    </contour>
  </outline>
</glyph>
<glyph name="kgreenlandic" format="2">
  <advance width="536"/>
  <unicode hex="0138"/>
  <anchor x="229" y="0" name="bottom"/>
  <anchor x="306" y="484" name="top"/>
  <outline>
    <contour>
      <point x="92" y="-8" type="curve" smooth="yes"/>
      <point x="128" y="-8"/>
      <point x="153" y="10"/>
      <point x="160" y="52" type="curve" smooth="yes"/>
      <point x="187" y="223" type="line"/>
      <point x="189" y="223" type="line"/>
      <point x="339" y="39" type="line" smooth="yes"/>
      <point x="365" y="7"/>
      <point x="380" y="-8"/>
      <point x="410" y="-8" type="curve" smooth="yes"/>
      <point x="462" y="-8"/>
      <point x="486" y="39"/>
      <point x="453" y="80" type="curve" smooth="yes"/>
      <point x="294" y="280" type="line"/>
      <point x="294" y="226" type="line"/>
      <point x="490" y="410" type="line" smooth="yes"/>
      <point x="529" y="446"/>
      <point x="515" y="497"/>
      <point x="464" y="497" type="curve" smooth="yes"/>
      <point x="432" y="497"/>
      <point x="412" y="477"/>
      <point x="393" y="460" type="curve" smooth="yes"/>
      <point x="198" y="281" type="line"/>
      <point x="196" y="281" type="line"/>
      <point x="219" y="423" type="line" smooth="yes"/>
      <point x="226" y="469"/>
      <point x="209" y="497"/>
      <point x="165" y="497" type="curve" smooth="yes"/>
      <point x="126" y="497"/>
      <point x="102" y="476"/>
      <point x="96" y="437" type="curve" smooth="yes"/>
      <point x="37" y="64" type="line" smooth="yes"/>
      <point x="30" y="18"/>
      <point x="48" y="-8"/>
    </contour>
  </outline>
</glyph>
<glyph name="Eng" format="2">
  <advance width="747"/>
  <unicode hex="014A"/>
  <anchor x="335" y="0" name="bottom"/>
  <anchor x="446" y="705" name="top"/>
  <outline>
    <contour>
      <point x="413" y="-191" type="curve" smooth="yes"/>
      <point x="545" y="-191"/>
      <point x="611" y="-127"/>
      <point x="632" y="7" type="curve" smooth="yes"/>
      <point x="733" y="643" type="line" smooth="yes"/>
      <point x="740" y="687"/>
      <point x="721" y="713"/>
      <point x="684" y="713" type="curve" smooth="yes"/>
      <point x="644" y="713"/>
      <point x="622" y="694"/>
      <point x="616" y="654" type="curve" smooth="yes"/>
      <point x="539" y="166" type="line"/>
      <point x="563" y="166" type="line"/>
      <point x="265" y="673" type="line" smooth="yes"/>
      <point x="248" y="701"/>
      <point x="235" y="713"/>
      <point x="202" y="713" type="curve" smooth="yes"/>
      <point x="171" y="713"/>
      <point x="149" y="695"/>
      <point x="143" y="658" type="curve" smooth="yes"/>
      <point x="48" y="63" type="line" smooth="yes"/>
      <point x="41" y="18"/>
      <point x="62" y="-8"/>
      <point x="100" y="-8" type="curve" smooth="yes"/>
      <point x="140" y="-8"/>
      <point x="159" y="11"/>
      <point x="165" y="51" type="curve" smooth="yes"/>
      <point x="242" y="539" type="line"/>
      <point x="217" y="539" type="line"/>
      <point x="536" y="0" type="line"/>
      <point x="520" y="49" type="line"/>
      <point x="511" y="-7" type="line" smooth="yes"/>
      <point x="501" y="-69"/>
      <point x="462" y="-95"/>
      <point x="408" y="-98" type="curve" smooth="yes"/>
      <point x="348" y="-101"/>
      <point x="347" y="-191"/>
    </contour>
  </outline>
</glyph>
<glyph name="gstroke" format="2">
  <advance width="604"/>
  <unicode hex="01E5"/>
  <outline>
    <contour>
      <point x="256" y="-190" type="curve" smooth="yes"/>
      <point x="376" y="-190"/>
      <point x="446" y="-140"/>
      <point x="486" y="-45" type="curve"/>
      <point x="466" y="-57" type="line"/>
      <point x="517" y="-57" type="line" smooth="yes"/>
      <point x="541" y="-57"/>
      <point x="563" y="-42"/>
      <point x="563" y="-18" type="curve" smooth="yes"/>
      <point x="563" y="5"/>
      <point x="552" y="21"/>
      <point x="519" y="21" type="curve" smooth="yes"/>
      <point x="493" y="21" type="line"/>
      <point x="499" y="7" type="line"/>
      <point x="502" y="17"/>
      <point x="504" y="27"/>
      <point x="506" y="37" type="curve" smooth="yes"/>
      <point x="567" y="424" type="line" smooth="yes"/>
      <point x="574" y="470"/>
      <point x="556" y="497"/>
      <point x="518" y="497" type="curve" smooth="yes"/>
      <point x="478" y="497"/>
      <point x="453" y="478"/>
      <point x="447" y="437" type="curve" smooth="yes"/>
      <point x="436" y="364" type="line"/>
      <point x="448" y="393" type="line"/>
      <point x="432" y="461"/>
      <point x="370" y="499"/>
      <point x="291" y="499" type="curve" smooth="yes"/>
      <point x="148" y="499"/>
      <point x="40" y="385"/>
      <point x="40" y="236" type="curve" smooth="yes"/>
      <point x="40" y="126"/>
      <point x="111" y="43"/>
      <point x="229" y="43" type="curve" smooth="yes"/>
      <point x="307" y="43"/>
      <point x="378" y="84"/>
      <point x="409" y="149" type="curve"/>
      <point x="404" y="150" type="line"/>
      <point x="384" y="26" type="line" smooth="yes"/>
      <point x="383" y="20"/>
      <point x="380" y="11"/>
      <point x="379" y="5" type="curve"/>
      <point x="392" y="21" type="line"/>
      <point x="288" y="21" type="line" smooth="yes"/>
      <point x="264" y="21"/>
      <point x="242" y="10"/>
      <point x="242" y="-18" type="curve" smooth="yes"/>
      <point x="242" y="-39"/>
      <point x="253" y="-57"/>
      <point x="286" y="-57" type="curve" smooth="yes"/>
      <point x="362" y="-57" type="line"/>
      <point x="358" y="-45" type="line"/>
      <point x="332" y="-79"/>
      <point x="293" y="-95"/>
      <point x="238" y="-95" type="curve" smooth="yes"/>
      <point x="186" y="-95"/>
      <point x="137" y="-80"/>
      <point x="94" y="-57" type="curve" smooth="yes"/>
      <point x="34" y="-25"/>
      <point x="-8" y="-106"/>
      <point x="49" y="-140" type="curve" smooth="yes"/>
      <point x="102" y="-171"/>
      <point x="176" y="-190"/>
    </contour>
    <contour>
      <point x="275" y="138" type="curve" smooth="yes"/>
      <point x="206" y="138"/>
      <point x="166" y="179"/>
      <point x="166" y="243" type="curve" smooth="yes"/>
      <point x="166" y="335"/>
      <point x="229" y="404"/>
      <point x="314" y="404" type="curve" smooth="yes"/>
      <point x="383" y="404"/>
      <point x="423" y="364"/>
      <point x="423" y="299" type="curve" smooth="yes"/>
      <point x="423" y="206"/>
      <point x="360" y="138"/>
    </contour>
  </outline>
</glyph>
<glyph name="ringhalfright" format="2">
  <advance width="500"/>
  <unicode hex="02BE"/>
  <anchor x="288" y="484" name="_top"/>
  <anchor x="320" y="685" name="top"/>
  <outline>
    <contour>
      <point x="332" y="555" type="curve" smooth="yes"/>
      <point x="384" y="569"/>
      <point x="423" y="613"/>
      <point x="423" y="666" type="curve" smooth="yes"/>
      <point x="423" y="706"/>
      <point x="400" y="742"/>
      <point x="360" y="755" type="curve" smooth="yes"/>
      <point x="338" y="762"/>
      <point x="323" y="751"/>
      <point x="320" y="734" type="curve" smooth="yes"/>
      <point x="317" y="717"/>
      <point x="329" y="712"/>
      <point x="345" y="700" type="curve" smooth="yes"/>
      <point x="357" y="691"/>
      <point x="364" y="679"/>
      <point x="364" y="664" type="curve" smooth="yes"/>
      <point x="364" y="641"/>
      <point x="351" y="619"/>
      <point x="329" y="610" type="curve" smooth="yes"/>
      <point x="310" y="602"/>
      <point x="298" y="598"/>
      <point x="295" y="579" type="curve" smooth="yes"/>
      <point x="292" y="562"/>
      <point x="306" y="548"/>
    </contour>
  </outline>
</glyph>
<glyph name="fourthtonechinese" format="2">
  <advance width="500"/>
  <unicode hex="02CB"/>
  <anchor x="288" y="484" name="_top"/>
  <anchor x="320" y="685" name="top"/>
  <outline>
    <contour>
      <point x="248" y="565" type="line" smooth="yes"/>
      <point x="280" y="520"/>
      <point x="341" y="553"/>
      <point x="318" y="598" type="curve" smooth="yes"/>
      <point x="247" y="737" type="line" smooth="yes"/>
      <point x="211" y="808"/>
      <point x="111" y="760"/>
      <point x="157" y="695" type="curve" smooth="yes"/>
    </contour>
  </outline>
</glyph>
<glyph name="verticallinelowmod" format="2">
  <advance width="500"/>
  <unicode hex="02CC"/>
  <outline>
    <contour>
      <point x="168" y="-278" type="curve" smooth="yes"/>
      <point x="195" y="-278"/>
      <point x="210" y="-265"/>
      <point x="214" y="-238" type="curve" smooth="yes"/>
      <point x="235" y="-107" type="line" smooth="yes"/>
      <point x="240" y="-77"/>
      <point x="228" y="-59"/>
      <point x="202" y="-59" type="curve" smooth="yes"/>
      <point x="175" y="-59"/>
      <point x="159" y="-73"/>
      <point x="155" y="-100" type="curve" smooth="yes"/>
      <point x="135" y="-230" type="line" smooth="yes"/>
      <point x="130" y="-260"/>
      <point x="142" y="-278"/>
    </contour>
  </outline>
</glyph>
<glyph name="gravecomb" format="2">
  <unicode hex="0300"/>
  <anchor x="0" y="484" name="_top"/>
  <anchor x="32" y="685" name="top"/>
  <outline>
    <contour>
      <point x="-39" y="564" type="line" smooth="yes"/>
      <point x="-8" y="519"/>
      <point x="52" y="554"/>
      <point x="29" y="599" type="curve" smooth="yes"/>
      <point x="-41" y="736" type="line" smooth="yes"/>
      <point x="-78" y="809"/>
      <point x="-175" y="760"/>
      <point x="-130" y="695" type="curve" smooth="yes"/>
    </contour>
  </outline>
</glyph>
<glyph name="tildecomb" format="2">
  <unicode hex="0303"/>
  <anchor x="0" y="484" name="_top"/>
  <anchor x="25" y="685" name="top"/>
  <outline>
    <contour>
      <point x="-146" y="582" type="curve" smooth="yes"/>
      <point x="-127" y="581"/>
      <point x="-113" y="590"/>
      <point x="-108" y="607" type="curve" smooth="yes"/>
      <point x="-100" y="635"/>
      <point x="-75" y="654"/>
      <point x="-49" y="654" type="curve" smooth="yes"/>
      <point x="-1" y="654"/>
      <point x="25" y="588"/>
      <point x="91" y="588" type="curve" smooth="yes"/>
      <point x="150" y="588"/>
      <point x="197" y="630"/>
      <point x="214" y="705" type="curve" smooth="yes"/>
      <point x="219" y="727"/>
      <point x="208" y="741"/>
      <point x="188" y="742" type="curve" smooth="yes"/>
      <point x="169" y="743"/>
      <point x="155" y="734"/>
      <point x="150" y="717" type="curve" smooth="yes"/>
      <point x="142" y="689"/>
      <point x="117" y="670"/>
      <point x="91" y="670" type="curve" smooth="yes"/>
      <point x="40" y="670"/>
      <point x="17" y="736"/>
      <point x="-49" y="736" type="curve" smooth="yes"/>
      <point x="-108" y="736"/>
      <point x="-155" y="694"/>
      <point x="-172" y="619" type="curve" smooth="yes"/>
      <point x="-177" y="597"/>
      <point x="-166" y="583"/>
    </contour>
  </outline>
</glyph>
<glyph name="macroncomb" format="2">
  <unicode hex="0304"/>
  <anchor x="0" y="484" name="_top"/>
  <anchor x="32" y="685" name="top"/>
  <outline>
    <contour>
      <point x="-99" y="616" type="curve" smooth="yes"/>
      <point x="148" y="616" type="line" smooth="yes"/>
      <point x="176" y="616"/>
      <point x="193" y="633"/>
      <point x="193" y="659" type="curve" smooth="yes"/>
      <point x="193" y="679"/>
      <point x="178" y="690"/>
      <point x="153" y="690" type="curve" smooth="yes"/>
      <point x="-94" y="690" type="line" smooth="yes"/>
      <point x="-122" y="690"/>
      <point x="-139" y="673"/>
      <point x="-139" y="647" type="curve" smooth="yes"/>
      <point x="-139" y="628"/>
      <point x="-124" y="616"/>
    </contour>
  </outline>
</glyph>
<glyph name="hungarumlautcomb" format="2">
  <unicode hex="030B"/>
  <anchor x="0" y="484" name="_top"/>
  <anchor x="32" y="685" name="top"/>
  <outline>
    <contour>
      <point x="123" y="565" type="curve" smooth="yes"/>
      <point x="198" y="709" type="line" smooth="yes"/>
      <point x="229" y="769"/>
      <point x="134" y="805"/>
      <point x="112" y="738" type="curve" smooth="yes"/>
      <point x="62" y="588" type="line" smooth="yes"/>
      <point x="48" y="545"/>
      <point x="103" y="526"/>
    </contour>
    <contour>
      <point x="-26" y="565" type="curve" smooth="yes"/>
      <point x="50" y="709" type="line" smooth="yes"/>
      <point x="82" y="769"/>
      <point x="-13" y="805"/>
      <point x="-36" y="738" type="curve" smooth="yes"/>
      <point x="-87" y="588" type="line" smooth="yes"/>
      <point x="-102" y="545"/>
      <point x="-46" y="526"/>
    </contour>
  </outline>
</glyph>
<glyph name="dblgravecomb" format="2">
  <unicode hex="030F"/>
  <anchor x="0" y="484" name="_top"/>
  <anchor x="32" y="685" name="top"/>
  <outline>
    <contour>
      <point x="49" y="569" type="line" smooth="yes"/>
      <point x="63" y="529"/>
      <point x="123" y="539"/>
      <point x="116" y="583" type="curve" smooth="yes"/>
      <point x="92" y="732" type="line" smooth="yes"/>
      <point x="81" y="803"/>
      <point x="-24" y="779"/>
      <point x="-1" y="713" type="curve" smooth="yes"/>
    </contour>
    <contour>
      <point x="-99" y="569" type="line" smooth="yes"/>
      <point x="-85" y="529"/>
      <point x="-25" y="539"/>
      <point x="-32" y="583" type="curve" smooth="yes"/>
      <point x="-56" y="732" type="line" smooth="yes"/>
      <point x="-67" y="803"/>
      <point x="-172" y="779"/>
      <point x="-149" y="713" type="curve" smooth="yes"/>
    </contour>
  </outline>
</glyph>
<glyph name="breveinvertedcomb" format="2">
  <unicode hex="0311"/>
  <anchor x="0" y="484" name="_top"/>
  <anchor x="27" y="685" name="top"/>
  <outline>
    <contour>
      <point x="-125" y="550" type="curve" smooth="yes"/>
      <point x="-103" y="548"/>
      <point x="-88" y="559"/>
      <point x="-83" y="581" type="curve" smooth="yes"/>
      <point x="-69" y="641"/>
      <point x="-31" y="675"/>
      <point x="16" y="675" type="curve" smooth="yes"/>
      <point x="64" y="675"/>
      <point x="95" y="643"/>
      <point x="100" y="582" type="curve" smooth="yes"/>
      <point x="102" y="557"/>
      <point x="118" y="547"/>
      <point x="140" y="550" type="curve" smooth="yes"/>
      <point x="163" y="553"/>
      <point x="173" y="568"/>
      <point x="172" y="592" type="curve" smooth="yes"/>
      <point x="168" y="690"/>
      <point x="108" y="751"/>
      <point x="20" y="751" type="curve" smooth="yes"/>
      <point x="-64" y="751"/>
      <point x="-129" y="694"/>
      <point x="-153" y="598" type="curve" smooth="yes"/>
      <point x="-160" y="570"/>
      <point x="-148" y="552"/>
    </contour>
  </outline>
</glyph>
<glyph name="dieresisbelowcomb" format="2">
  <unicode hex="0324"/>
  <anchor x="0" y="0" name="_bottom"/>
  <anchor x="-27" y="-170" name="bottom"/>
  <outline>
    <contour>
      <point x="64" y="-197" type="curve" smooth="yes"/>
      <point x="110" y="-197"/>
      <point x="136" y="-167"/>
      <point x="136" y="-121" type="curve" smooth="yes"/>
      <point x="136" y="-91"/>
      <point x="117" y="-73"/>
      <point x="82" y="-73" type="curve" smooth="yes"/>
      <point x="36" y="-73"/>
      <point x="10" y="-103"/>
      <point x="10" y="-148" type="curve" smooth="yes"/>
      <point x="10" y="-179"/>
      <point x="29" y="-197"/>
    </contour>
    <contour>
      <point x="-125" y="-197" type="curve" smooth="yes"/>
      <point x="-78" y="-197"/>
      <point x="-53" y="-167"/>
      <point x="-53" y="-121" type="curve" smooth="yes"/>
      <point x="-53" y="-91"/>
      <point x="-72" y="-73"/>
      <point x="-106" y="-73" type="curve" smooth="yes"/>
      <point x="-152" y="-73"/>
      <point x="-178" y="-103"/>
      <point x="-178" y="-148" type="curve" smooth="yes"/>
      <point x="-178" y="-179"/>
      <point x="-159" y="-197"/>
    </contour>
  </outline>
</glyph>
<glyph name="cedillacomb" format="2">
  <unicode hex="0327"/>
  <anchor x="0" y="0" name="_bottom"/>
  <outline>
    <contour>
      <point x="-21" y="-195" type="curve" smooth="yes"/>
      <point x="51" y="-195"/>
      <point x="105" y="-159"/>
      <point x="105" y="-103" type="curve" smooth="yes"/>
      <point x="105" y="-61"/>
      <point x="74" y="-37"/>
      <point x="22" y="-37" type="curve" smooth="yes"/>
      <point x="8" y="-37"/>
      <point x="-8" y="-40"/>
      <point x="-24" y="-45" type="curve"/>
      <point x="7" y="-56" type="line"/>
      <point x="31" y="20" type="line"/>
      <point x="-35" y="20" type="line"/>
      <point x="-60" y="-59" type="line" smooth="yes"/>
      <point x="-63" y="-70"/>
      <point x="-63" y="-76"/>
      <point x="-57" y="-82" type="curve" smooth="yes"/>
      <point x="-52" y="-87"/>
      <point x="-44" y="-87"/>
      <point x="-33" y="-85" type="curve" smooth="yes"/>
      <point x="-22" y="-83"/>
      <point x="-12" y="-82"/>
      <point x="-3" y="-82" type="curve" smooth="yes"/>
      <point x="21" y="-82"/>
      <point x="31" y="-90"/>
      <point x="31" y="-103" type="curve" smooth="yes"/>
      <point x="31" y="-124"/>
      <point x="11" y="-135"/>
      <point x="-26" y="-135" type="curve" smooth="yes"/>
      <point x="-44" y="-135"/>
      <point x="-62" y="-132"/>
      <point x="-77" y="-127" type="curve" smooth="yes"/>
      <point x="-119" y="-113"/>
      <point x="-136" y="-175"/>
      <point x="-93" y="-186" type="curve" smooth="yes"/>
      <point x="-70" y="-192"/>
      <point x="-47" y="-195"/>
    </contour>
  </outline>
</glyph>
<glyph name="strokeshortcomb" format="2">
  <unicode hex="0335"/>
  <anchor x="0" y="575" name="_stroke"/>
  <outline>
    <contour>
      <point x="-161" y="531" type="curve" smooth="yes"/>
      <point x="155" y="531" type="line" smooth="yes"/>
      <point x="188" y="531"/>
      <point x="209" y="550"/>
      <point x="209" y="583" type="curve" smooth="yes"/>
      <point x="209" y="607"/>
      <point x="191" y="619"/>
      <point x="161" y="619" type="curve" smooth="yes"/>
      <point x="-156" y="619" type="line" smooth="yes"/>
      <point x="-189" y="619"/>
      <point x="-209" y="600"/>
      <point x="-209" y="567" type="curve" smooth="yes"/>
      <point x="-209" y="544"/>
      <point x="-192" y="531"/>
    </contour>
  </outline>
</glyph>
<glyph name="E-cy" format="2">
  <advance width="680"/>
  <unicode hex="0404"/>
  <anchor x="352" y="0" name="bottom"/>
  <anchor x="464" y="705" name="top"/>
  <outline>
    <contour>
      <point x="392" y="-10" type="curve" smooth="yes"/>
      <point x="463" y="-10"/>
      <point x="538" y="10"/>
      <point x="595" y="47" type="curve" smooth="yes"/>
      <point x="660" y="89"/>
      <point x="621" y="188"/>
      <point x="544" y="142" type="curve" smooth="yes"/>
      <point x="497" y="114"/>
      <point x="452" y="104"/>
      <point x="407" y="104" type="curve" smooth="yes"/>
      <point x="262" y="104"/>
      <point x="205" y="185"/>
      <point x="206" y="322" type="curve"/>
      <point x="198" y="308" type="line"/>
      <point x="475" y="308" type="line" smooth="yes"/>
      <point x="512" y="308"/>
      <point x="536" y="329"/>
      <point x="537" y="366" type="curve" smooth="yes"/>
      <point x="538" y="394"/>
      <point x="518" y="410"/>
      <point x="481" y="410" type="curve" smooth="yes"/>
      <point x="201" y="410" type="line"/>
      <point x="212" y="384" type="line"/>
      <point x="233" y="512"/>
      <point x="318" y="601"/>
      <point x="447" y="601" type="curve" smooth="yes"/>
      <point x="500" y="601"/>
      <point x="552" y="588"/>
      <point x="595" y="558" type="curve" smooth="yes"/>
      <point x="664" y="510"/>
      <point x="723" y="609"/>
      <point x="654" y="657" type="curve" smooth="yes"/>
      <point x="596" y="697"/>
      <point x="522" y="715"/>
      <point x="451" y="715" type="curve" smooth="yes"/>
      <point x="210" y="715"/>
      <point x="71" y="538"/>
      <point x="71" y="302" type="curve" smooth="yes"/>
      <point x="71" y="99"/>
      <point x="205" y="-10"/>
    </contour>
  </outline>
</glyph>
<glyph name="Ge-cy" format="2">
  <advance width="559"/>
  <unicode hex="0413"/>
  <anchor x="45" y="0" name="bottomright"/>
  <anchor x="180" y="356" name="stroke"/>
  <anchor x="353" y="705" name="top"/>
  <outline>
    <contour>
      <point x="103" y="-8" type="curve" smooth="yes"/>
      <point x="145" y="-8"/>
      <point x="168" y="14"/>
      <point x="175" y="57" type="curve" smooth="yes"/>
      <point x="261" y="598" type="line"/>
      <point x="554" y="598" type="line" smooth="yes"/>
      <point x="594" y="598"/>
      <point x="618" y="622"/>
      <point x="618" y="662" type="curve" smooth="yes"/>
      <point x="618" y="690"/>
      <point x="597" y="705"/>
      <point x="561" y="705" type="curve" smooth="yes"/>
      <point x="212" y="705" type="line" smooth="yes"/>
      <point x="171" y="705"/>
      <point x="147" y="684"/>
      <point x="140" y="643" type="curve" smooth="yes"/>
      <point x="49" y="68" type="line" smooth="yes"/>
      <point x="41" y="20"/>
      <point x="59" y="-8"/>
    </contour>
  </outline>
</glyph>
<glyph name="Tse-cy" format="2">
  <advance width="812"/>
  <unicode hex="0426"/>
  <outline>
    <contour>
      <point x="669" y="-173" type="curve" smooth="yes"/>
      <point x="704" y="-173"/>
      <point x="726" y="-157"/>
      <point x="732" y="-120" type="curve" smooth="yes"/>
      <point x="757" y="39" type="line" smooth="yes"/>
      <point x="764" y="82"/>
      <point x="742" y="107"/>
      <point x="700" y="107" type="curve" smooth="yes"/>
      <point x="620" y="107" type="line"/>
      <point x="665" y="87" type="line"/>
      <point x="753" y="642" type="line" smooth="yes"/>
      <point x="760" y="687"/>
      <point x="739" y="713"/>
      <point x="695" y="713" type="curve" smooth="yes"/>
      <point x="655" y="713"/>
      <point x="632" y="691"/>
      <point x="626" y="651" type="curve" smooth="yes"/>
      <point x="540" y="107" type="line"/>
      <point x="183" y="107" type="line"/>
      <point x="268" y="642" type="line" smooth="yes"/>
      <point x="275" y="687"/>
      <point x="255" y="713"/>
      <point x="212" y="713" type="curve" smooth="yes"/>
      <point x="172" y="713"/>
      <point x="148" y="693"/>
      <point x="142" y="654" type="curve" smooth="yes"/>
      <point x="50" y="73" type="line" smooth="yes"/>
      <point x="43" y="27"/>
      <point x="66" y="0"/>
      <point x="112" y="0" type="curve" smooth="yes"/>
      <point x="637" y="0" type="line"/>
      <point x="620" y="-107" type="line" smooth="yes"/>
      <point x="613" y="-148"/>
      <point x="632" y="-173"/>
    </contour>
  </outline>
</glyph>
<glyph name="Che-cy" format="2">
  <advance width="696"/>
  <unicode hex="0427"/>
  <anchor x="452" y="0" name="bottomright"/>
  <anchor x="314" y="295" name="center"/>
  <anchor x="404" y="705" name="top"/>
  <outline>
    <contour>
      <point x="519" y="-8" type="curve" smooth="yes"/>
      <point x="558" y="-8"/>
      <point x="583" y="13"/>
      <point x="590" y="56" type="curve" smooth="yes"/>
      <point x="682" y="638" type="line" smooth="yes"/>
      <point x="689" y="685"/>
      <point x="672" y="713"/>
      <point x="628" y="713" type="curve" smooth="yes"/>
      <point x="589" y="713"/>
      <point x="563" y="692"/>
      <point x="556" y="649" type="curve" smooth="yes"/>
      <point x="514" y="387" type="line"/>
      <point x="470" y="365"/>
      <point x="415" y="356"/>
      <point x="367" y="356" type="curve" smooth="yes"/>
      <point x="254" y="356"/>
      <point x="210" y="414"/>
      <point x="231" y="548" type="curve" smooth="yes"/>
      <point x="245" y="638" type="line" smooth="yes"/>
      <point x="252" y="685"/>
      <point x="234" y="713"/>
      <point x="191" y="713" type="curve" smooth="yes"/>
      <point x="152" y="713"/>
      <point x="126" y="692"/>
      <point x="119" y="649" type="curve" smooth="yes"/>
      <point x="103" y="547" type="line" smooth="yes"/>
      <point x="73" y="355"/>
      <point x="169" y="246"/>
      <point x="344" y="246" type="curve" smooth="yes"/>
      <point x="400" y="246"/>
      <point x="457" y="257"/>
      <point x="496" y="275" type="curve"/>
      <point x="464" y="68" type="line" smooth="yes"/>
      <point x="457" y="20"/>
      <point x="475" y="-8"/>
    </contour>
  </outline>
</glyph>
<glyph name="Sha-cy" format="2">
  <advance width="1070"/>
  <unicode hex="0428"/>
  <outline>
    <contour>
      <point x="112" y="0" type="curve" smooth="yes"/>
      <point x="890" y="0" type="line" smooth="yes"/>
      <point x="930" y="0"/>
      <point x="956" y="20"/>
      <point x="963" y="63" type="curve" smooth="yes"/>
      <point x="1055" y="642" type="line" smooth="yes"/>
      <point x="1062" y="687"/>
      <point x="1041" y="713"/>
      <point x="999" y="713" type="curve" smooth="yes"/>
      <point x="958" y="713"/>
      <point x="936" y="691"/>
      <point x="930" y="652" type="curve" smooth="yes"/>
      <point x="844" y="107" type="line"/>
      <point x="575" y="107" type="line"/>
      <point x="660" y="642" type="line" smooth="yes"/>
      <point x="667" y="687"/>
      <point x="647" y="713"/>
      <point x="605" y="713" type="curve" smooth="yes"/>
      <point x="564" y="713"/>
      <point x="541" y="691"/>
      <point x="535" y="652" type="curve" smooth="yes"/>
      <point x="449" y="107" type="line"/>
      <point x="181" y="107" type="line"/>
      <point x="266" y="642" type="line" smooth="yes"/>
      <point x="273" y="687"/>
      <point x="253" y="713"/>
      <point x="211" y="713" type="curve" smooth="yes"/>
      <point x="172" y="713"/>
      <point x="148" y="692"/>
      <point x="142" y="652" type="curve" smooth="yes"/>
      <point x="50" y="73" type="line" smooth="yes"/>
      <point x="43" y="27"/>
      <point x="66" y="0"/>
    </contour>
  </outline>
</glyph>
<glyph name="Shcha-cy" format="2">
  <advance width="1115"/>
  <unicode hex="0429"/>
  <outline>
    <contour>
      <point x="971" y="-173" type="curve" smooth="yes"/>
      <point x="1006" y="-173"/>
      <point x="1030" y="-154"/>
      <point x="1036" y="-117" type="curve" smooth="yes"/>
      <point x="1061" y="40" type="line" smooth="yes"/>
      <point x="1068" y="82"/>
      <point x="1045" y="107"/>
      <point x="1003" y="107" type="curve" smooth="yes"/>
      <point x="922" y="107" type="line"/>
      <point x="967" y="87" type="line"/>
      <point x="1055" y="645" type="line" smooth="yes"/>
      <point x="1062" y="690"/>
      <point x="1041" y="713"/>
      <point x="999" y="713" type="curve" smooth="yes"/>
      <point x="958" y="713"/>
      <point x="935" y="691"/>
      <point x="929" y="652" type="curve" smooth="yes"/>
      <point x="843" y="107" type="line"/>
      <point x="575" y="107" type="line"/>
      <point x="660" y="642" type="line" smooth="yes"/>
      <point x="667" y="687"/>
      <point x="647" y="713"/>
      <point x="605" y="713" type="curve" smooth="yes"/>
      <point x="564" y="713"/>
      <point x="542" y="691"/>
      <point x="536" y="652" type="curve" smooth="yes"/>
      <point x="449" y="107" type="line"/>
      <point x="181" y="107" type="line"/>
      <point x="266" y="642" type="line" smooth="yes"/>
      <point x="273" y="687"/>
      <point x="253" y="713"/>
      <point x="211" y="713" type="curve" smooth="yes"/>
      <point x="172" y="713"/>
      <point x="148" y="692"/>
      <point x="142" y="652" type="curve" smooth="yes"/>
      <point x="50" y="73" type="line" smooth="yes"/>
      <point x="42" y="27"/>
      <point x="66" y="0"/>
      <point x="112" y="0" type="curve" smooth="yes"/>
      <point x="940" y="0" type="line"/>
      <point x="923" y="-107" type="line" smooth="yes"/>
      <point x="916" y="-148"/>
      <point x="934" y="-173"/>
    </contour>
  </outline>
</glyph>
<glyph name="ge-cy" format="2">
  <advance width="457"/>
  <unicode hex="0433"/>
  <anchor x="40" y="0" name="bottomright"/>
  <anchor x="165" y="246" name="center"/>
  <anchor x="277" y="484" name="top"/>
  <outline>
    <contour>
      <point x="94" y="-8" type="curve" smooth="yes"/>
      <point x="135" y="-8"/>
      <point x="160" y="14"/>
      <point x="167" y="56" type="curve" smooth="yes"/>
      <point x="220" y="391" type="line"/>
      <point x="421" y="391" type="line" smooth="yes"/>
      <point x="458" y="391"/>
      <point x="480" y="413"/>
      <point x="480" y="449" type="curve" smooth="yes"/>
      <point x="480" y="474"/>
      <point x="461" y="489"/>
      <point x="427" y="489" type="curve" smooth="yes"/>
      <point x="167" y="489" type="line" smooth="yes"/>
      <point x="129" y="489"/>
      <point x="107" y="470"/>
      <point x="101" y="432" type="curve" smooth="yes"/>
      <point x="43" y="65" type="line" smooth="yes"/>
      <point x="36" y="19"/>
      <point x="55" y="-8"/>
    </contour>
  </outline>
</glyph>
<glyph name="zhe-cy" format="2">
  <advance width="826"/>
  <unicode hex="0436"/>
  <anchor x="667" y="0" name="bottomright"/>
  <anchor x="452" y="484" name="top"/>
  <outline>
    <contour>
      <point x="377" y="-8" type="curve" smooth="yes"/>
      <point x="416" y="-8"/>
      <point x="439" y="11"/>
      <point x="445" y="50" type="curve" smooth="yes"/>
      <point x="469" y="202" type="line"/>
      <point x="520" y="202" type="line" smooth="yes"/>
      <point x="560" y="202"/>
      <point x="582" y="190"/>
      <point x="602" y="144" type="curve" smooth="yes"/>
      <point x="652" y="31" type="line" smooth="yes"/>
      <point x="683" y="-39"/>
      <point x="794" y="-2"/>
      <point x="760" y="75" type="curve" smooth="yes"/>
      <point x="715" y="177" type="line" smooth="yes"/>
      <point x="687" y="240"/>
      <point x="652" y="274"/>
      <point x="597" y="279" type="curve"/>
      <point x="633" y="244" type="line"/>
      <point x="779" y="410" type="line" smooth="yes"/>
      <point x="830" y="468"/>
      <point x="749" y="528"/>
      <point x="701" y="475" type="curve" smooth="yes"/>
      <point x="542" y="299" type="line"/>
      <point x="484" y="299" type="line"/>
      <point x="505" y="431" type="line" smooth="yes"/>
      <point x="512" y="474"/>
      <point x="491" y="497"/>
      <point x="449" y="497" type="curve" smooth="yes"/>
      <point x="410" y="497"/>
      <point x="387" y="478"/>
      <point x="381" y="439" type="curve" smooth="yes"/>
      <point x="359" y="299" type="line"/>
      <point x="298" y="299" type="line"/>
      <point x="202" y="463" type="line" smooth="yes"/>
      <point x="163" y="529"/>
      <point x="62" y="483"/>
      <point x="102" y="414" type="curve" smooth="yes"/>
      <point x="199" y="244" type="line"/>
      <point x="219" y="283" type="line"/>
      <point x="169" y="276"/>
      <point x="127" y="245"/>
      <point x="83" y="183" type="curve" smooth="yes"/>
      <point x="10" y="79" type="line" smooth="yes"/>
      <point x="-34" y="16"/>
      <point x="58" y="-43"/>
      <point x="104" y="20" type="curve" smooth="yes"/>
      <point x="195" y="144" type="line" smooth="yes"/>
      <point x="228" y="189"/>
      <point x="252" y="202"/>
      <point x="296" y="202" type="curve" smooth="yes"/>
      <point x="344" y="202" type="line"/>
      <point x="321" y="60" type="line" smooth="yes"/>
      <point x="314" y="16"/>
      <point x="335" y="-8"/>
    </contour>
  </outline>
</glyph>
<glyph name="te-cy" format="2">
  <advance width="473"/>
  <unicode hex="0442"/>
  <anchor x="135" y="0" name="bottomright"/>
  <outline>
    <contour>
      <point x="196" y="-8" type="curve" smooth="yes"/>
      <point x="238" y="-8"/>
      <point x="263" y="13"/>
      <point x="270" y="55" type="curve" smooth="yes"/>
      <point x="323" y="391" type="line"/>
      <point x="443" y="391" type="line" smooth="yes"/>
      <point x="482" y="391"/>
      <point x="506" y="412"/>
      <point x="506" y="449" type="curve" smooth="yes"/>
      <point x="506" y="474"/>
      <point x="486" y="489"/>
      <point x="450" y="489" type="curve" smooth="yes"/>
      <point x="91" y="489" type="line" smooth="yes"/>
      <point x="53" y="489"/>
      <point x="29" y="468"/>
      <point x="29" y="431" type="curve" smooth="yes"/>
      <point x="29" y="405"/>
      <point x="49" y="391"/>
      <point x="85" y="391" type="curve" smooth="yes"/>
      <point x="198" y="391" type="line"/>
      <point x="146" y="65" type="line" smooth="yes"/>
      <point x="138" y="18"/>
      <point x="157" y="-8"/>
    </contour>
  </outline>
</glyph>
<glyph name="che-cy" format="2">
  <advance width="574"/>
  <unicode hex="0447"/>
  <anchor x="349" y="0" name="bottomright"/>
  <anchor x="270" y="200" name="center"/>
  <anchor x="315" y="484" name="top"/>
  <outline>
    <contour>
      <point x="403" y="-8" type="curve" smooth="yes"/>
      <point x="445" y="-8"/>
      <point x="466" y="13"/>
      <point x="473" y="55" type="curve" smooth="yes"/>
      <point x="531" y="425" type="line" smooth="yes"/>
      <point x="538" y="472"/>
      <point x="521" y="497"/>
      <point x="481" y="497" type="curve" smooth="yes"/>
      <point x="439" y="497"/>
      <point x="415" y="478"/>
      <point x="408" y="435" type="curve" smooth="yes"/>
      <point x="383" y="277" type="line"/>
      <point x="354" y="259"/>
      <point x="325" y="252"/>
      <point x="289" y="252" type="curve" smooth="yes"/>
      <point x="209" y="252"/>
      <point x="182" y="288"/>
      <point x="196" y="373" type="curve" smooth="yes"/>
      <point x="205" y="428" type="line" smooth="yes"/>
      <point x="212" y="472"/>
      <point x="191" y="497"/>
      <point x="150" y="497" type="curve" smooth="yes"/>
      <point x="111" y="497"/>
      <point x="87" y="478"/>
      <point x="81" y="439" type="curve" smooth="yes"/>
      <point x="69" y="362" type="line" smooth="yes"/>
      <point x="47" y="223"/>
      <point x="115" y="151"/>
      <point x="258" y="151" type="curve" smooth="yes"/>
      <point x="299" y="151"/>
      <point x="331" y="159"/>
      <point x="369" y="177" type="curve"/>
      <point x="351" y="65" type="line" smooth="yes"/>
      <point x="343" y="18"/>
      <point x="364" y="-8"/>
    </contour>
  </outline>
</glyph>
<glyph name="hardsign-cy" format="2">
  <advance width="633"/>
  <unicode hex="044A"/>
  <outline>
    <contour>
      <point x="180" y="0" type="curve" smooth="yes"/>
      <point x="375" y="0" type="line" smooth="yes"/>
      <point x="501" y="0"/>
      <point x="589" y="64"/>
      <point x="589" y="179" type="curve" smooth="yes"/>
      <point x="589" y="268"/>
      <point x="529" y="327"/>
      <point x="414" y="327" type="curve" smooth="yes"/>
      <point x="289" y="327" type="line"/>
      <point x="304" y="423" type="line" smooth="yes"/>
      <point x="311" y="465"/>
      <point x="289" y="489"/>
      <point x="247" y="489" type="curve" smooth="yes"/>
      <point x="90" y="489" type="line" smooth="yes"/>
      <point x="54" y="489"/>
      <point x="33" y="473"/>
      <point x="28" y="440" type="curve" smooth="yes"/>
      <point x="23" y="409"/>
      <point x="44" y="391"/>
      <point x="83" y="391" type="curve" smooth="yes"/>
      <point x="175" y="391" type="line"/>
      <point x="123" y="65" type="line" smooth="yes"/>
      <point x="116" y="23"/>
      <point x="138" y="0"/>
    </contour>
    <contour>
      <point x="251" y="82" type="line"/>
      <point x="277" y="245" type="line"/>
      <point x="383" y="245" type="line" smooth="yes"/>
      <point x="441" y="245"/>
      <point x="473" y="221"/>
      <point x="473" y="171" type="curve" smooth="yes"/>
      <point x="473" y="112"/>
      <point x="434" y="82"/>
      <point x="364" y="82" type="curve" smooth="yes"/>
    </contour>
  </outline>
</glyph>
<glyph name="ia-cy" format="2">
  <advance width="561"/>
  <unicode hex="044F"/>
  <outline>
    <contour>
      <point x="396" y="-8" type="curve" smooth="yes"/>
      <point x="432" y="-8"/>
      <point x="453" y="9"/>
      <point x="458" y="43" type="curve" smooth="yes"/>
      <point x="518" y="422" type="line" smooth="yes"/>
      <point x="525" y="465"/>
      <point x="503" y="489"/>
      <point x="460" y="489" type="curve" smooth="yes"/>
      <point x="272" y="489" type="line" smooth="yes"/>
      <point x="146" y="489"/>
      <point x="64" y="428"/>
      <point x="64" y="322" type="curve" smooth="yes"/>
      <point x="64" y="240"/>
      <point x="120" y="191"/>
      <point x="222" y="190" type="curve"/>
      <point x="223" y="201" type="line"/>
      <point x="200" y="201" type="line" smooth="yes"/>
      <point x="162" y="201"/>
      <point x="116" y="172"/>
      <point x="89" y="136" type="curve" smooth="yes"/>
      <point x="48" y="80" type="line" smooth="yes"/>
      <point x="1" y="15"/>
      <point x="100" y="-45"/>
      <point x="147" y="21" type="curve" smooth="yes"/>
      <point x="212" y="113" type="line" smooth="yes"/>
      <point x="236" y="147"/>
      <point x="270" y="169"/>
      <point x="309" y="169" type="curve" smooth="yes"/>
      <point x="362" y="169" type="line"/>
      <point x="343" y="52" type="line" smooth="yes"/>
      <point x="337" y="14"/>
      <point x="357" y="-8"/>
    </contour>
    <contour>
      <point x="268" y="251" type="line" smooth="yes"/>
      <point x="213" y="251"/>
      <point x="183" y="274"/>
      <point x="183" y="323" type="curve" smooth="yes"/>
      <point x="183" y="375"/>
      <point x="219" y="407"/>
      <point x="286" y="407" type="curve" smooth="yes"/>
      <point x="400" y="407" type="line"/>
      <point x="375" y="251" type="line"/>
    </contour>
  </outline>
</glyph>
<glyph name="Yat-cy" format="2">
  <advance width="744"/>
  <unicode hex="0462"/>
  <outline>
    <contour>
      <point x="181" y="0" type="curve" smooth="yes"/>
      <point x="430" y="0" type="line" smooth="yes"/>
      <point x="607" y="0"/>
      <point x="699" y="78"/>
      <point x="699" y="225" type="curve" smooth="yes"/>
      <point x="699" y="334"/>
      <point x="621" y="411"/>
      <point x="464" y="411" type="curve" smooth="yes"/>
      <point x="301" y="411" type="line"/>
      <point x="319" y="523" type="line"/>
      <point x="515" y="523" type="line" smooth="yes"/>
      <point x="547" y="523"/>
      <point x="566" y="538"/>
      <point x="572" y="570" type="curve" smooth="yes"/>
      <point x="577" y="599"/>
      <point x="557" y="616"/>
      <point x="521" y="616" type="curve" smooth="yes"/>
      <point x="308" y="616" type="line"/>
      <point x="327" y="569" type="line"/>
      <point x="338" y="642" type="line" smooth="yes"/>
      <point x="345" y="687"/>
      <point x="325" y="713"/>
      <point x="286" y="713" type="curve" smooth="yes"/>
      <point x="245" y="713"/>
      <point x="218" y="693"/>
      <point x="212" y="652" type="curve" smooth="yes"/>
      <point x="199" y="569" type="line"/>
      <point x="238" y="616" type="line"/>
      <point x="81" y="616" type="line" smooth="yes"/>
      <point x="49" y="616"/>
      <point x="29" y="601"/>
      <point x="24" y="570" type="curve" smooth="yes"/>
      <point x="19" y="540"/>
      <point x="39" y="523"/>
      <point x="75" y="523" type="curve" smooth="yes"/>
      <point x="191" y="523" type="line"/>
      <point x="119" y="71" type="line" smooth="yes"/>
      <point x="112" y="25"/>
      <point x="135" y="0"/>
    </contour>
    <contour>
      <point x="252" y="102" type="line"/>
      <point x="285" y="309" type="line"/>
      <point x="447" y="309" type="line" smooth="yes"/>
      <point x="536" y="309"/>
      <point x="575" y="280"/>
      <point x="575" y="218" type="curve" smooth="yes"/>
      <point x="575" y="140"/>
      <point x="527" y="102"/>
      <point x="432" y="102" type="curve" smooth="yes"/>
    </contour>
  </outline>
</glyph>
<glyph name="Izhitsa-cy" format="2">
  <advance width="770"/>
  <unicode hex="0474"/>
  <outline>
    <contour>
      <point x="320" y="-8" type="curve" smooth="yes"/>
      <point x="355" y="-8"/>
      <point x="374" y="6"/>
      <point x="393" y="38" type="curve" smooth="yes"/>
      <point x="643" y="464" type="line" smooth="yes"/>
      <point x="698" y="558"/>
      <point x="734" y="598"/>
      <point x="802" y="607" type="curve" smooth="yes"/>
      <point x="872" y="616"/>
      <point x="866" y="719"/>
      <point x="790" y="713" type="curve" smooth="yes"/>
      <point x="671" y="703"/>
      <point x="611" y="646"/>
      <point x="535" y="513" type="curve" smooth="yes"/>
      <point x="307" y="114" type="line"/>
      <point x="351" y="114" type="line"/>
      <point x="204" y="654" type="line" smooth="yes"/>
      <point x="193" y="696"/>
      <point x="171" y="710"/>
      <point x="138" y="710" type="curve" smooth="yes"/>
      <point x="95" y="710"/>
      <point x="70" y="678"/>
      <point x="83" y="631" type="curve" smooth="yes"/>
      <point x="250" y="49" type="line" smooth="yes"/>
      <point x="261" y="11"/>
      <point x="282" y="-8"/>
    </contour>
  </outline>
</glyph>
<glyph name="Semisoftsign-cy" format="2">
  <advance width="734"/>
  <unicode hex="048C"/>
  <outline>
    <contour>
      <point x="172" y="0" type="curve" smooth="yes"/>
      <point x="421" y="0" type="line" smooth="yes"/>
      <point x="598" y="0"/>
      <point x="690" y="78"/>
      <point x="690" y="225" type="curve" smooth="yes"/>
      <point x="690" y="334"/>
      <point x="612" y="411"/>
      <point x="455" y="411" type="curve" smooth="yes"/>
      <point x="292" y="411" type="line"/>
      <point x="310" y="523" type="line"/>
      <point x="410" y="523" type="line" smooth="yes"/>
      <point x="442" y="523"/>
      <point x="461" y="538"/>
      <point x="467" y="570" type="curve" smooth="yes"/>
      <point x="472" y="599"/>
      <point x="452" y="616"/>
      <point x="416" y="616" type="curve" smooth="yes"/>
      <point x="299" y="616" type="line"/>
      <point x="318" y="569" type="line"/>
      <point x="329" y="642" type="line" smooth="yes"/>
      <point x="336" y="687"/>
      <point x="316" y="713"/>
      <point x="277" y="713" type="curve" smooth="yes"/>
      <point x="236" y="713"/>
      <point x="209" y="693"/>
      <point x="203" y="652" type="curve" smooth="yes"/>
      <point x="190" y="569" type="line"/>
      <point x="229" y="616" type="line"/>
      <point x="101" y="616" type="line" smooth="yes"/>
      <point x="69" y="616"/>
      <point x="49" y="601"/>
      <point x="44" y="570" type="curve" smooth="yes"/>
      <point x="39" y="540"/>
      <point x="59" y="523"/>
      <point x="95" y="523" type="curve" smooth="yes"/>
      <point x="182" y="523" type="line"/>
      <point x="110" y="73" type="line" smooth="yes"/>
      <point x="103" y="27"/>
      <point x="126" y="0"/>
    </contour>
    <contour>
      <point x="243" y="102" type="line"/>
      <point x="276" y="309" type="line"/>
      <point x="438" y="309" type="line" smooth="yes"/>
      <point x="527" y="309"/>
      <point x="566" y="280"/>
      <point x="566" y="218" type="curve" smooth="yes"/>
      <point x="566" y="140"/>
      <point x="518" y="102"/>
      <point x="423" y="102" type="curve" smooth="yes"/>
    </contour>
  </outline>
</glyph>
<glyph name="Ertick-cy" format="2">
  <advance width="653"/>
  <unicode hex="048E"/>
  <outline>
    <contour>
      <point x="103" y="-8" type="curve" smooth="yes"/>
      <point x="145" y="-8"/>
      <point x="168" y="13"/>
      <point x="175" y="56" type="curve" smooth="yes"/>
      <point x="208" y="264" type="line"/>
      <point x="386" y="264" type="line" smooth="yes"/>
      <point x="409" y="264"/>
      <point x="430" y="266"/>
      <point x="450" y="269" type="curve"/>
      <point x="434" y="276" type="line"/>
      <point x="474" y="207" type="line" smooth="yes"/>
      <point x="501" y="161"/>
      <point x="559" y="195"/>
      <point x="533" y="240" type="curve" smooth="yes"/>
      <point x="503" y="292" type="line"/>
      <point x="501" y="280" type="line"/>
      <point x="607" y="312"/>
      <point x="663" y="392"/>
      <point x="663" y="509" type="curve" smooth="yes"/>
      <point x="663" y="635"/>
      <point x="580" y="705"/>
      <point x="424" y="705" type="curve" smooth="yes"/>
      <point x="214" y="705" type="line" smooth="yes"/>
      <point x="172" y="705"/>
      <point x="147" y="685"/>
      <point x="140" y="642" type="curve" smooth="yes"/>
      <point x="49" y="67" type="line" smooth="yes"/>
      <point x="42" y="20"/>
      <point x="62" y="-8"/>
    </contour>
    <contour>
      <point x="262" y="604" type="line"/>
      <point x="409" y="604" type="line" smooth="yes"/>
      <point x="496" y="604"/>
      <point x="539" y="571"/>
      <point x="539" y="499" type="curve" smooth="yes"/>
      <point x="539" y="431"/>
      <point x="508" y="388"/>
      <point x="449" y="373" type="curve"/>
      <point x="461" y="368" type="line"/>
      <point x="418" y="441" type="line" smooth="yes"/>
      <point x="390" y="488"/>
      <point x="334" y="455"/>
      <point x="359" y="411" type="curve" smooth="yes"/>
      <point x="397" y="345" type="line"/>
      <point x="416" y="366" type="line"/>
      <point x="404" y="365"/>
      <point x="397" y="365"/>
      <point x="392" y="365" type="curve"/>
      <point x="224" y="365" type="line"/>
    </contour>
  </outline>
</glyph>
<glyph name="Gheupturn-cy" format="2">
  <advance width="559"/>
  <unicode hex="0490"/>
  <outline>
    <contour>
      <point x="104" y="-8" type="curve" smooth="yes"/>
      <point x="146" y="-8"/>
      <point x="168" y="14"/>
      <point x="175" y="57" type="curve" smooth="yes"/>
      <point x="261" y="598" type="line"/>
      <point x="536" y="598" type="line" smooth="yes"/>
      <point x="577" y="598"/>
      <point x="601" y="619"/>
      <point x="608" y="660" type="curve" smooth="yes"/>
      <point x="632" y="810" type="line" smooth="yes"/>
      <point x="638" y="849"/>
      <point x="619" y="873"/>
      <point x="582" y="873" type="curve" smooth="yes"/>
      <point x="547" y="873"/>
      <point x="526" y="856"/>
      <point x="520" y="820" type="curve" smooth="yes"/>
      <point x="501" y="705" type="line"/>
      <point x="213" y="705" type="line" smooth="yes"/>
      <point x="171" y="705"/>
      <point x="147" y="684"/>
      <point x="140" y="643" type="curve" smooth="yes"/>
      <point x="49" y="68" type="line" smooth="yes"/>
      <point x="41" y="20"/>
      <point x="60" y="-8"/>
    </contour>
  </outline>
</glyph>
<glyph name="ghestroke-cy" format="2">
  <advance width="481"/>
  <unicode hex="0493"/>
  <outline>
    <contour>
      <point x="118" y="-8" type="curve" smooth="yes"/>
      <point x="160" y="-8"/>
      <point x="185" y="14"/>
      <point x="191" y="56" type="curve" smooth="yes"/>
      <point x="210" y="181" type="line"/>
      <point x="311" y="181" type="line" smooth="yes"/>
      <point x="345" y="181"/>
      <point x="366" y="201"/>
      <point x="366" y="231" type="curve" smooth="yes"/>
      <point x="366" y="258"/>
      <point x="347" y="269"/>
      <point x="317" y="269" type="curve" smooth="yes"/>
      <point x="225" y="269" type="line"/>
      <point x="244" y="391" type="line"/>
      <point x="445" y="391" type="line" smooth="yes"/>
      <point x="482" y="391"/>
      <point x="505" y="413"/>
      <point x="505" y="449" type="curve" smooth="yes"/>
      <point x="505" y="474"/>
      <point x="485" y="489"/>
      <point x="451" y="489" type="curve" smooth="yes"/>
      <point x="192" y="489" type="line" smooth="yes"/>
      <point x="154" y="489"/>
      <point x="131" y="470"/>
      <point x="125" y="432" type="curve" smooth="yes"/>
      <point x="100" y="269" type="line"/>
      <point x="48" y="269" type="line" smooth="yes"/>
      <point x="14" y="269"/>
      <point x="-7" y="249"/>
      <point x="-7" y="220" type="curve" smooth="yes"/>
      <point x="-7" y="194"/>
      <point x="11" y="181"/>
      <point x="43" y="181" type="curve" smooth="yes"/>
      <point x="85" y="181" type="line"/>
      <point x="67" y="66" type="line" smooth="yes"/>
      <point x="60" y="20"/>
      <point x="79" y="-8"/>
    </contour>
  </outline>
</glyph>
<glyph name="Ghemiddlehook-cy" format="2">
  <advance width="700"/>
  <unicode hex="0494"/>
  <outline>
    <contour>
      <point x="371" y="-190" type="curve" smooth="yes"/>
      <point x="506" y="-190"/>
      <point x="592" y="-99"/>
      <point x="618" y="60" type="curve" smooth="yes"/>
      <point x="631" y="140" type="line" smooth="yes"/>
      <point x="662" y="333"/>
      <point x="555" y="442"/>
      <point x="380" y="442" type="curve" smooth="yes"/>
      <point x="324" y="442"/>
      <point x="271" y="431"/>
      <point x="232" y="413" type="curve"/>
      <point x="261" y="598" type="line"/>
      <point x="568" y="598" type="line" smooth="yes"/>
      <point x="608" y="598"/>
      <point x="632" y="622"/>
      <point x="632" y="662" type="curve" smooth="yes"/>
      <point x="632" y="690"/>
      <point x="612" y="705"/>
      <point x="575" y="705" type="curve" smooth="yes"/>
      <point x="214" y="705" type="line" smooth="yes"/>
      <point x="172" y="705"/>
      <point x="146" y="684"/>
      <point x="140" y="643" type="curve" smooth="yes"/>
      <point x="49" y="68" type="line" smooth="yes"/>
      <point x="42" y="21"/>
      <point x="62" y="-8"/>
      <point x="103" y="-8" type="curve" smooth="yes"/>
      <point x="145" y="-8"/>
      <point x="169" y="14"/>
      <point x="175" y="56" type="curve" smooth="yes"/>
      <point x="214" y="302" type="line"/>
      <point x="258" y="324"/>
      <point x="309" y="332"/>
      <point x="357" y="332" type="curve" smooth="yes"/>
      <point x="468" y="332"/>
      <point x="524" y="269"/>
      <point x="502" y="134" type="curve" smooth="yes"/>
      <point x="489" y="55" type="line" smooth="yes"/>
      <point x="474" y="-38"/>
      <point x="424" y="-88"/>
      <point x="353" y="-88" type="curve" smooth="yes"/>
      <point x="333" y="-88"/>
      <point x="316" y="-86"/>
      <point x="297" y="-83" type="curve" smooth="yes"/>
      <point x="242" y="-74"/>
      <point x="220" y="-169"/>
      <point x="285" y="-182" type="curve" smooth="yes"/>
      <point x="309" y="-187"/>
      <point x="341" y="-190"/>
    </contour>
  </outline>
</glyph>
<glyph name="ghemiddlehook-cy" format="2">
  <advance width="576"/>
  <unicode hex="0495"/>
  <outline>
    <contour>
      <point x="319" y="-177" type="curve" smooth="yes"/>
      <point x="442" y="-138"/>
      <point x="487" y="-65"/>
      <point x="507" y="58" type="curve" smooth="yes"/>
      <point x="516" y="113" type="line" smooth="yes"/>
      <point x="540" y="257"/>
      <point x="473" y="319"/>
      <point x="364" y="319" type="curve" smooth="yes"/>
      <point x="279" y="319"/>
      <point x="214" y="280"/>
      <point x="180" y="210" type="curve"/>
      <point x="191" y="210" type="line"/>
      <point x="219" y="391" type="line"/>
      <point x="419" y="391" type="line" smooth="yes"/>
      <point x="455" y="391"/>
      <point x="472" y="411"/>
      <point x="475" y="441" type="curve" smooth="yes"/>
      <point x="478" y="468"/>
      <point x="465" y="489"/>
      <point x="427" y="489" type="curve" smooth="yes"/>
      <point x="167" y="489" type="line" smooth="yes"/>
      <point x="129" y="489"/>
      <point x="107" y="470"/>
      <point x="101" y="432" type="curve" smooth="yes"/>
      <point x="43" y="66" type="line" smooth="yes"/>
      <point x="36" y="20"/>
      <point x="55" y="-8"/>
      <point x="94" y="-8" type="curve" smooth="yes"/>
      <point x="134" y="-8"/>
      <point x="159" y="5"/>
      <point x="165" y="43" type="curve" smooth="yes"/>
      <point x="172" y="89" type="line" smooth="yes"/>
      <point x="184" y="165"/>
      <point x="235" y="221"/>
      <point x="314" y="221" type="curve" smooth="yes"/>
      <point x="378" y="221"/>
      <point x="403" y="185"/>
      <point x="391" y="111" type="curve" smooth="yes"/>
      <point x="382" y="56" type="line" smooth="yes"/>
      <point x="371" y="-13"/>
      <point x="352" y="-60"/>
      <point x="278" y="-85" type="curve" smooth="yes"/>
      <point x="211" y="-108"/>
      <point x="241" y="-202"/>
    </contour>
  </outline>
</glyph>
<glyph name="Zhedescender-cy" format="2">
  <advance width="1053"/>
  <unicode hex="0496"/>
  <outline>
    <contour>
      <point x="941" y="-173" type="curve" smooth="yes"/>
      <point x="979" y="-173"/>
      <point x="1000" y="-156"/>
      <point x="1006" y="-118" type="curve" smooth="yes"/>
      <point x="1031" y="36" type="line" smooth="yes"/>
      <point x="1038" y="79"/>
      <point x="1016" y="103"/>
      <point x="973" y="103" type="curve" smooth="yes"/>
      <point x="896" y="103" type="line"/>
      <point x="948" y="66" type="line"/>
      <point x="883" y="251" type="line" smooth="yes"/>
      <point x="852" y="339"/>
      <point x="804" y="388"/>
      <point x="720" y="401" type="curve"/>
      <point x="771" y="364" type="line"/>
      <point x="978" y="618" type="line" smooth="yes"/>
      <point x="1035" y="688"/>
      <point x="940" y="749"/>
      <point x="888" y="684" type="curve" smooth="yes"/>
      <point x="654" y="389" type="line"/>
      <point x="677" y="406" type="line"/>
      <point x="594" y="406" type="line"/>
      <point x="632" y="645" type="line" smooth="yes"/>
      <point x="639" y="688"/>
      <point x="619" y="713"/>
      <point x="578" y="713" type="curve" smooth="yes"/>
      <point x="539" y="713"/>
      <point x="517" y="694"/>
      <point x="511" y="656" type="curve" smooth="yes"/>
      <point x="471" y="406" type="line"/>
      <point x="381" y="406" type="line"/>
      <point x="404" y="389" type="line"/>
      <point x="270" y="672" type="line" smooth="yes"/>
      <point x="233" y="750"/>
      <point x="120" y="704"/>
      <point x="159" y="626" type="curve" smooth="yes"/>
      <point x="289" y="364" type="line"/>
      <point x="334" y="401" type="line"/>
      <point x="246" y="388"/>
      <point x="180" y="341"/>
      <point x="123" y="251" type="curve" smooth="yes"/>
      <point x="21" y="89" type="line" smooth="yes"/>
      <point x="-31" y="6"/>
      <point x="76" y="-45"/>
      <point x="121" y="27" type="curve" smooth="yes"/>
      <point x="232" y="203" type="line" smooth="yes"/>
      <point x="275" y="272"/>
      <point x="321" y="299"/>
      <point x="388" y="299" type="curve" smooth="yes"/>
      <point x="455" y="299" type="line"/>
      <point x="417" y="60" type="line" smooth="yes"/>
      <point x="410" y="17"/>
      <point x="430" y="-8"/>
      <point x="471" y="-8" type="curve" smooth="yes"/>
      <point x="509" y="-8"/>
      <point x="532" y="12"/>
      <point x="538" y="50" type="curve" smooth="yes"/>
      <point x="578" y="299" type="line"/>
      <point x="645" y="299" type="line" smooth="yes"/>
      <point x="712" y="299"/>
      <point x="749" y="271"/>
      <point x="772" y="204" type="curve" smooth="yes"/>
      <point x="827" y="40" type="line" smooth="yes"/>
      <point x="838" y="7"/>
      <point x="864" y="0"/>
      <point x="889" y="0" type="curve" smooth="yes"/>
      <point x="950" y="0" type="line"/>
      <point x="917" y="38" type="line"/>
      <point x="894" y="-107" type="line" smooth="yes"/>
      <point x="887" y="-149"/>
      <point x="907" y="-173"/>
    </contour>
  </outline>
</glyph>
<glyph name="zhedescender-cy" format="2">
  <advance width="873"/>
  <unicode hex="0497"/>
  <outline>
    <contour>
      <point x="738" y="-136" type="curve" smooth="yes"/>
      <point x="776" y="-136"/>
      <point x="794" y="-118"/>
      <point x="799" y="-84" type="curve" smooth="yes"/>
      <point x="816" y="28" type="line" smooth="yes"/>
      <point x="822" y="70"/>
      <point x="802" y="95"/>
      <point x="758" y="95" type="curve" smooth="yes"/>
      <point x="743" y="95" type="line"/>
      <point x="768" y="60" type="line"/>
      <point x="716" y="177" type="line" smooth="yes"/>
      <point x="688" y="240"/>
      <point x="653" y="274"/>
      <point x="598" y="279" type="curve"/>
      <point x="634" y="244" type="line"/>
      <point x="780" y="410" type="line" smooth="yes"/>
      <point x="831" y="468"/>
      <point x="750" y="528"/>
      <point x="702" y="475" type="curve" smooth="yes"/>
      <point x="543" y="299" type="line"/>
      <point x="485" y="299" type="line"/>
      <point x="506" y="431" type="line" smooth="yes"/>
      <point x="513" y="474"/>
      <point x="492" y="497"/>
      <point x="450" y="497" type="curve" smooth="yes"/>
      <point x="411" y="497"/>
      <point x="388" y="478"/>
      <point x="382" y="439" type="curve" smooth="yes"/>
      <point x="360" y="299" type="line"/>
      <point x="299" y="299" type="line"/>
      <point x="203" y="463" type="line" smooth="yes"/>
      <point x="164" y="529"/>
      <point x="63" y="484"/>
      <point x="103" y="414" type="curve" smooth="yes"/>
      <point x="200" y="244" type="line"/>
      <point x="220" y="283" type="line"/>
      <point x="170" y="276"/>
      <point x="128" y="245"/>
      <point x="84" y="183" type="curve" smooth="yes"/>
      <point x="11" y="79" type="line" smooth="yes"/>
      <point x="-33" y="16"/>
      <point x="59" y="-43"/>
      <point x="105" y="20" type="curve" smooth="yes"/>
      <point x="196" y="144" type="line" smooth="yes"/>
      <point x="229" y="189"/>
      <point x="253" y="202"/>
      <point x="297" y="202" type="curve" smooth="yes"/>
      <point x="345" y="202" type="line"/>
      <point x="322" y="60" type="line" smooth="yes"/>
      <point x="315" y="16"/>
      <point x="336" y="-8"/>
      <point x="378" y="-8" type="curve" smooth="yes"/>
      <point x="417" y="-8"/>
      <point x="440" y="11"/>
      <point x="446" y="50" type="curve" smooth="yes"/>
      <point x="470" y="202" type="line"/>
      <point x="521" y="202" type="line" smooth="yes"/>
      <point x="561" y="202"/>
      <point x="583" y="189"/>
      <point x="603" y="144" type="curve" smooth="yes"/>
      <point x="650" y="37" type="line" smooth="yes"/>
      <point x="661" y="12"/>
      <point x="684" y="0"/>
      <point x="706" y="0" type="curve" smooth="yes"/>
      <point x="716" y="0" type="line"/>
      <point x="713" y="38" type="line"/>
      <point x="695" y="-73" type="line" smooth="yes"/>
      <point x="689" y="-112"/>
      <point x="702" y="-136"/>
    </contour>
  </outline>
</glyph>
<glyph name="kadescender-cy" format="2">
  <advance width="603"/>
  <unicode hex="049B"/>
  <outline>
    <contour>
      <point x="474" y="-136" type="curve" smooth="yes"/>
      <point x="512" y="-136"/>
      <point x="530" y="-118"/>
      <point x="535" y="-84" type="curve" smooth="yes"/>
      <point x="552" y="28" type="line" smooth="yes"/>
      <point x="558" y="70"/>
      <point x="538" y="95"/>
      <point x="494" y="95" type="curve" smooth="yes"/>
      <point x="465" y="95" type="line"/>
      <point x="500" y="60" type="line"/>
      <point x="448" y="177" type="line" smooth="yes"/>
      <point x="420" y="240"/>
      <point x="382" y="274"/>
      <point x="333" y="279" type="curve"/>
      <point x="366" y="244" type="line"/>
      <point x="513" y="410" type="line" smooth="yes"/>
      <point x="565" y="468"/>
      <point x="481" y="528"/>
      <point x="434" y="475" type="curve" smooth="yes"/>
      <point x="275" y="299" type="line"/>
      <point x="205" y="299" type="line"/>
      <point x="226" y="430" type="line" smooth="yes"/>
      <point x="233" y="473"/>
      <point x="211" y="497"/>
      <point x="169" y="497" type="curve" smooth="yes"/>
      <point x="131" y="497"/>
      <point x="108" y="479"/>
      <point x="102" y="439" type="curve" smooth="yes"/>
      <point x="43" y="61" type="line" smooth="yes"/>
      <point x="36" y="17"/>
      <point x="56" y="-8"/>
      <point x="98" y="-8" type="curve" smooth="yes"/>
      <point x="136" y="-8"/>
      <point x="160" y="11"/>
      <point x="166" y="50" type="curve" smooth="yes"/>
      <point x="190" y="202" type="line"/>
      <point x="253" y="202" type="line" smooth="yes"/>
      <point x="292" y="202"/>
      <point x="315" y="190"/>
      <point x="335" y="144" type="curve" smooth="yes"/>
      <point x="383" y="36" type="line" smooth="yes"/>
      <point x="395" y="10"/>
      <point x="420" y="0"/>
      <point x="442" y="0" type="curve" smooth="yes"/>
      <point x="462" y="0" type="line"/>
      <point x="449" y="38" type="line"/>
      <point x="431" y="-73" type="line" smooth="yes"/>
      <point x="425" y="-112"/>
      <point x="438" y="-136"/>
    </contour>
  </outline>
</glyph>
<glyph name="Kastroke-cy" format="2">
  <advance width="730"/>
  <unicode hex="049E"/>
  <outline>
    <contour>
      <point x="156" y="-8" type="curve" smooth="yes"/>
      <point x="196" y="-8"/>
      <point x="219" y="11"/>
      <point x="226" y="52" type="curve" smooth="yes"/>
      <point x="266" y="299" type="line"/>
      <point x="353" y="299" type="line" smooth="yes"/>
      <point x="420" y="299"/>
      <point x="457" y="272"/>
      <point x="480" y="203" type="curve" smooth="yes"/>
      <point x="535" y="41" type="line" smooth="yes"/>
      <point x="563" y="-42"/>
      <point x="683" y="-9"/>
      <point x="652" y="79" type="curve" smooth="yes"/>
      <point x="591" y="251" type="line" smooth="yes"/>
      <point x="559" y="341"/>
      <point x="511" y="388"/>
      <point x="428" y="401" type="curve"/>
      <point x="483" y="364" type="line"/>
      <point x="686" y="619" type="line" smooth="yes"/>
      <point x="742" y="690"/>
      <point x="647" y="749"/>
      <point x="595" y="684" type="curve" smooth="yes"/>
      <point x="362" y="389" type="line"/>
      <point x="385" y="406" type="line"/>
      <point x="283" y="406" type="line"/>
      <point x="302" y="527" type="line"/>
      <point x="384" y="527" type="line" smooth="yes"/>
      <point x="414" y="527"/>
      <point x="432" y="543"/>
      <point x="437" y="571" type="curve" smooth="yes"/>
      <point x="442" y="599"/>
      <point x="424" y="615"/>
      <point x="390" y="615" type="curve" smooth="yes"/>
      <point x="293" y="615" type="line"/>
      <point x="307" y="562" type="line"/>
      <point x="320" y="642" type="line" smooth="yes"/>
      <point x="328" y="689"/>
      <point x="306" y="713"/>
      <point x="263" y="713" type="curve" smooth="yes"/>
      <point x="223" y="713"/>
      <point x="201" y="693"/>
      <point x="194" y="653" type="curve" smooth="yes"/>
      <point x="179" y="564" type="line"/>
      <point x="214" y="615" type="line"/>
      <point x="84" y="615" type="line" smooth="yes"/>
      <point x="55" y="615"/>
      <point x="37" y="600"/>
      <point x="32" y="571" type="curve" smooth="yes"/>
      <point x="27" y="544"/>
      <point x="45" y="527"/>
      <point x="79" y="527" type="curve" smooth="yes"/>
      <point x="174" y="527" type="line"/>
      <point x="100" y="63" type="line" smooth="yes"/>
      <point x="93" y="18"/>
      <point x="113" y="-8"/>
    </contour>
  </outline>
</glyph>
<glyph name="enghe-cy" format="2">
  <advance width="761"/>
  <unicode hex="04A5"/>
  <outline>
    <contour>
      <point x="96" y="-8" type="curve" smooth="yes"/>
      <point x="134" y="-8"/>
      <point x="159" y="10"/>
      <point x="166" y="53" type="curve" smooth="yes"/>
      <point x="189" y="202" type="line"/>
      <point x="405" y="202" type="line"/>
      <point x="383" y="65" type="line" smooth="yes"/>
      <point x="375" y="18"/>
      <point x="395" y="-8"/>
      <point x="437" y="-8" type="curve" smooth="yes"/>
      <point x="475" y="-8"/>
      <point x="500" y="13"/>
      <point x="507" y="55" type="curve" smooth="yes"/>
      <point x="560" y="391" type="line"/>
      <point x="725" y="391" type="line" smooth="yes"/>
      <point x="762" y="391"/>
      <point x="784" y="413"/>
      <point x="784" y="449" type="curve" smooth="yes"/>
      <point x="784" y="474"/>
      <point x="765" y="489"/>
      <point x="731" y="489" type="curve" smooth="yes"/>
      <point x="510" y="489" type="line" smooth="yes"/>
      <point x="472" y="489"/>
      <point x="448" y="470"/>
      <point x="442" y="432" type="curve" smooth="yes"/>
      <point x="421" y="300" type="line"/>
      <point x="205" y="300" type="line"/>
      <point x="224" y="424" type="line" smooth="yes"/>
      <point x="231" y="470"/>
      <point x="213" y="497"/>
      <point x="171" y="497" type="curve" smooth="yes"/>
      <point x="133" y="497"/>
      <point x="108" y="477"/>
      <point x="101" y="435" type="curve" smooth="yes"/>
      <point x="43" y="66" type="line" smooth="yes"/>
      <point x="36" y="19"/>
      <point x="54" y="-8"/>
    </contour>
  </outline>
</glyph>
<glyph name="Haabkhasian-cy" format="2">
  <advance width="833"/>
  <unicode hex="04A8"/>
  <outline>
    <contour>
      <point x="366" y="-10" type="curve" smooth="yes"/>
      <point x="593" y="-10"/>
      <point x="778" y="159"/>
      <point x="778" y="368" type="curve" smooth="yes"/>
      <point x="778" y="485"/>
      <point x="707" y="557"/>
      <point x="593" y="557" type="curve" smooth="yes"/>
      <point x="451" y="557"/>
      <point x="349" y="438"/>
      <point x="349" y="272" type="curve" smooth="yes"/>
      <point x="349" y="113"/>
      <point x="479" y="-10"/>
      <point x="656" y="-10" type="curve" smooth="yes"/>
      <point x="706" y="-10"/>
      <point x="763" y="-2"/>
      <point x="799" y="15" type="curve" smooth="yes"/>
      <point x="858" y="43"/>
      <point x="837" y="131"/>
      <point x="768" y="107" type="curve" smooth="yes"/>
      <point x="737" y="96"/>
      <point x="701" y="91"/>
      <point x="670" y="91" type="curve" smooth="yes"/>
      <point x="540" y="91"/>
      <point x="470" y="146"/>
      <point x="470" y="264" type="curve" smooth="yes"/>
      <point x="470" y="376"/>
      <point x="515" y="454"/>
      <point x="583" y="454" type="curve" smooth="yes"/>
      <point x="629" y="454"/>
      <point x="657" y="418"/>
      <point x="657" y="356" type="curve" smooth="yes"/>
      <point x="657" y="190"/>
      <point x="555" y="91"/>
      <point x="386" y="91" type="curve" smooth="yes"/>
      <point x="269" y="91"/>
      <point x="201" y="153"/>
      <point x="201" y="291" type="curve" smooth="yes"/>
      <point x="201" y="477"/>
      <point x="293" y="598"/>
      <point x="436" y="608" type="curve" smooth="yes"/>
      <point x="450" y="609"/>
      <point x="467" y="608"/>
      <point x="482" y="607" type="curve" smooth="yes"/>
      <point x="508" y="605"/>
      <point x="533" y="623"/>
      <point x="536" y="654" type="curve" smooth="yes"/>
      <point x="539" y="685"/>
      <point x="527" y="709"/>
      <point x="488" y="713" type="curve" smooth="yes"/>
      <point x="478" y="714"/>
      <point x="468" y="715"/>
      <point x="458" y="715" type="curve" smooth="yes"/>
      <point x="225" y="715"/>
      <point x="68" y="541"/>
      <point x="68" y="286" type="curve" smooth="yes"/>
      <point x="68" y="97"/>
      <point x="185" y="-10"/>
    </contour>
  </outline>
</glyph>
<glyph name="tedescender-cy" format="2">
  <advance width="473"/>
  <unicode hex="04AD"/>
  <outline>
    <contour>
      <point x="264" y="-138" type="curve" smooth="yes"/>
      <point x="299" y="-138"/>
      <point x="320" y="-121"/>
      <point x="325" y="-87" type="curve" smooth="yes"/>
      <point x="344" y="32" type="line" smooth="yes"/>
      <point x="350" y="71"/>
      <point x="330" y="95"/>
      <point x="290" y="95" type="curve" smooth="yes"/>
      <point x="265" y="95" type="line"/>
      <point x="270" y="57" type="line"/>
      <point x="323" y="391" type="line"/>
      <point x="443" y="391" type="line" smooth="yes"/>
      <point x="482" y="391"/>
      <point x="506" y="412"/>
      <point x="506" y="449" type="curve" smooth="yes"/>
      <point x="506" y="474"/>
      <point x="486" y="489"/>
      <point x="450" y="489" type="curve" smooth="yes"/>
      <point x="91" y="489" type="line" smooth="yes"/>
      <point x="53" y="489"/>
      <point x="29" y="468"/>
      <point x="29" y="431" type="curve" smooth="yes"/>
      <point x="29" y="405"/>
      <point x="49" y="391"/>
      <point x="85" y="391" type="curve" smooth="yes"/>
      <point x="198" y="391" type="line"/>
      <point x="147" y="67" type="line"/>
      <point x="140" y="20"/>
      <point x="158" y="0"/>
      <point x="200" y="0" type="curve" smooth="yes"/>
      <point x="244" y="0" type="line"/>
      <point x="239" y="38" type="line"/>
      <point x="220" y="-78" type="line" smooth="yes"/>
      <point x="214" y="-117"/>
      <point x="232" y="-138"/>
    </contour>
  </outline>
</glyph>
<glyph name="hadescender-cy" format="2">
  <advance width="589"/>
  <unicode hex="04B3"/>
  <outline>
    <contour>
      <point x="456" y="-136" type="curve" smooth="yes"/>
      <point x="494" y="-136"/>
      <point x="512" y="-118"/>
      <point x="517" y="-84" type="curve" smooth="yes"/>
      <point x="534" y="28" type="line" smooth="yes"/>
      <point x="540" y="70"/>
      <point x="520" y="95"/>
      <point x="476" y="95" type="curve" smooth="yes"/>
      <point x="437" y="95" type="line"/>
      <point x="477" y="63" type="line"/>
      <point x="334" y="280" type="line"/>
      <point x="334" y="224" type="line"/>
      <point x="514" y="415" type="line" smooth="yes"/>
      <point x="548" y="451"/>
      <point x="530" y="497"/>
      <point x="479" y="497" type="curve" smooth="yes"/>
      <point x="449" y="497"/>
      <point x="434" y="487"/>
      <point x="413" y="464" type="curve" smooth="yes"/>
      <point x="274" y="310" type="line"/>
      <point x="308" y="310" type="line"/>
      <point x="215" y="458" type="line" smooth="yes"/>
      <point x="198" y="485"/>
      <point x="176" y="497"/>
      <point x="149" y="497" type="curve" smooth="yes"/>
      <point x="105" y="497"/>
      <point x="78" y="457"/>
      <point x="107" y="412" type="curve" smooth="yes"/>
      <point x="230" y="223" type="line"/>
      <point x="231" y="276" type="line"/>
      <point x="38" y="75" type="line" smooth="yes"/>
      <point x="4" y="39"/>
      <point x="22" y="-8"/>
      <point x="73" y="-8" type="curve" smooth="yes"/>
      <point x="102" y="-8"/>
      <point x="117" y="3"/>
      <point x="138" y="25" type="curve" smooth="yes"/>
      <point x="296" y="191" type="line"/>
      <point x="256" y="192" type="line"/>
      <point x="359" y="31" type="line" smooth="yes"/>
      <point x="375" y="5"/>
      <point x="398" y="-8"/>
      <point x="424" y="-8" type="curve" smooth="yes"/>
      <point x="443" y="-8" type="line"/>
      <point x="430" y="30" type="line"/>
      <point x="413" y="-73" type="line" smooth="yes"/>
      <point x="407" y="-112"/>
      <point x="420" y="-136"/>
    </contour>
  </outline>
</glyph>
<glyph name="cheverticalstroke-cy" format="2">
  <advance width="607"/>
  <unicode hex="04B9"/>
  <outline>
    <contour>
      <point x="435" y="-8" type="curve" smooth="yes"/>
      <point x="476" y="-8"/>
      <point x="499" y="13"/>
      <point x="506" y="55" type="curve" smooth="yes"/>
      <point x="564" y="423" type="line" smooth="yes"/>
      <point x="571" y="470"/>
      <point x="552" y="497"/>
      <point x="512" y="497" type="curve" smooth="yes"/>
      <point x="471" y="497"/>
      <point x="448" y="477"/>
      <point x="441" y="434" type="curve" smooth="yes"/>
      <point x="416" y="274" type="line"/>
      <point x="385" y="258"/>
      <point x="352" y="251"/>
      <point x="320" y="250" type="curve"/>
      <point x="341" y="238" type="line"/>
      <point x="356" y="329" type="line" smooth="yes"/>
      <point x="361" y="359"/>
      <point x="347" y="377"/>
      <point x="320" y="377" type="curve" smooth="yes"/>
      <point x="293" y="377"/>
      <point x="276" y="363"/>
      <point x="271" y="335" type="curve" smooth="yes"/>
      <point x="255" y="238" type="line"/>
      <point x="286" y="251" type="line"/>
      <point x="214" y="256"/>
      <point x="182" y="287"/>
      <point x="195" y="370" type="curve" smooth="yes"/>
      <point x="205" y="428" type="line" smooth="yes"/>
      <point x="212" y="471"/>
      <point x="191" y="497"/>
      <point x="150" y="497" type="curve" smooth="yes"/>
      <point x="111" y="497"/>
      <point x="87" y="478"/>
      <point x="81" y="439" type="curve" smooth="yes"/>
      <point x="69" y="362" type="line" smooth="yes"/>
      <point x="48" y="227"/>
      <point x="120" y="156"/>
      <point x="273" y="153" type="curve"/>
      <point x="245" y="173" type="line"/>
      <point x="234" y="104" type="line" smooth="yes"/>
      <point x="229" y="73"/>
      <point x="242" y="55"/>
      <point x="268" y="55" type="curve" smooth="yes"/>
      <point x="297" y="55"/>
      <point x="315" y="69"/>
      <point x="319" y="96" type="curve" smooth="yes"/>
      <point x="331" y="173" type="line"/>
      <point x="302" y="154" type="line"/>
      <point x="335" y="156"/>
      <point x="368" y="164"/>
      <point x="401" y="179" type="curve"/>
      <point x="383" y="66" type="line" smooth="yes"/>
      <point x="376" y="19"/>
      <point x="396" y="-8"/>
    </contour>
  </outline>
</glyph>
<glyph name="Cheabkhasian-cy" format="2">
  <advance width="963"/>
  <unicode hex="04BC"/>
  <anchor x="626" y="0" name="ogonek"/>
  <outline>
    <contour>
      <point x="585" y="-10" type="curve" smooth="yes"/>
      <point x="679" y="-10"/>
      <point x="771" y="12"/>
      <point x="842" y="51" type="curve" smooth="yes"/>
      <point x="904" y="85"/>
      <point x="864" y="185"/>
      <point x="795" y="148" type="curve" smooth="yes"/>
      <point x="737" y="117"/>
      <point x="674" y="100"/>
      <point x="599" y="100" type="curve" smooth="yes"/>
      <point x="455" y="100"/>
      <point x="372" y="188"/>
      <point x="384" y="329" type="curve"/>
      <point x="359" y="299" type="line"/>
      <point x="861" y="299" type="line" smooth="yes"/>
      <point x="887" y="299"/>
      <point x="917" y="305"/>
      <point x="925" y="350" type="curve" smooth="yes"/>
      <point x="950" y="496"/>
      <point x="881" y="715"/>
      <point x="620" y="715" type="curve" smooth="yes"/>
      <point x="400" y="715"/>
      <point x="276" y="565"/>
      <point x="253" y="377" type="curve"/>
      <point x="276" y="403" type="line"/>
      <point x="245" y="403" type="line" smooth="yes"/>
      <point x="194" y="403"/>
      <point x="174" y="424"/>
      <point x="178" y="471" type="curve" smooth="yes"/>
      <point x="179" y="481"/>
      <point x="180" y="490"/>
      <point x="181" y="500" type="curve" smooth="yes"/>
      <point x="187" y="537"/>
      <point x="163" y="554"/>
      <point x="125" y="554" type="curve" smooth="yes"/>
      <point x="89" y="554"/>
      <point x="64" y="538"/>
      <point x="57" y="508" type="curve"/>
      <point x="52" y="480" type="line"/>
      <point x="36" y="376"/>
      <point x="99" y="299"/>
      <point x="234" y="299" type="curve" smooth="yes"/>
      <point x="268" y="299" type="line"/>
      <point x="249" y="328" type="line"/>
      <point x="240" y="125"/>
      <point x="376" y="-10"/>
    </contour>
    <contour>
      <point x="618" y="610" type="curve" smooth="yes"/>
      <point x="760" y="610"/>
      <point x="823" y="506"/>
      <point x="800" y="352" type="curve"/>
      <point x="837" y="403" type="line"/>
      <point x="369" y="403" type="line"/>
      <point x="388" y="374" type="line"/>
      <point x="406" y="510"/>
      <point x="480" y="610"/>
    </contour>
  </outline>
</glyph>
<glyph name="cheabkhasian-cy" format="2">
  <advance width="661"/>
  <unicode hex="04BD"/>
  <anchor x="475" y="0" name="ogonek"/>
  <outline>
    <contour>
      <point x="414" y="-10" type="curve" smooth="yes"/>
      <point x="467" y="-10"/>
      <point x="538" y="4"/>
      <point x="585" y="35" type="curve" smooth="yes"/>
      <point x="639" y="71"/>
      <point x="607" y="149"/>
      <point x="545" y="113" type="curve" smooth="yes"/>
      <point x="510" y="93"/>
      <point x="465" y="85"/>
      <point x="425" y="85" type="curve" smooth="yes"/>
      <point x="334" y="85"/>
      <point x="283" y="138"/>
      <point x="290" y="224" type="curve"/>
      <point x="282" y="216" type="line"/>
      <point x="607" y="216" type="line" smooth="yes"/>
      <point x="628" y="216"/>
      <point x="640" y="221"/>
      <point x="643" y="249" type="curve" smooth="yes"/>
      <point x="659" y="380"/>
      <point x="602" y="499"/>
      <point x="441" y="499" type="curve" smooth="yes"/>
      <point x="305" y="499"/>
      <point x="203" y="406"/>
      <point x="178" y="276" type="curve"/>
      <point x="193" y="288" type="line"/>
      <point x="173" y="288" type="line" smooth="yes"/>
      <point x="134" y="288"/>
      <point x="124" y="304"/>
      <point x="128" y="334" type="curve" smooth="yes"/>
      <point x="129" y="342"/>
      <point x="130" y="350"/>
      <point x="131" y="357" type="curve" smooth="yes"/>
      <point x="134" y="379"/>
      <point x="117" y="399"/>
      <point x="85" y="399" type="curve" smooth="yes"/>
      <point x="54" y="399"/>
      <point x="37" y="384"/>
      <point x="32" y="361" type="curve" smooth="yes"/>
      <point x="31" y="356"/>
      <point x="30" y="349"/>
      <point x="29" y="342" type="curve" smooth="yes"/>
      <point x="19" y="271"/>
      <point x="51" y="216"/>
      <point x="148" y="216" type="curve" smooth="yes"/>
      <point x="174" y="216" type="line"/>
      <point x="172" y="226" type="line"/>
      <point x="166" y="81"/>
      <point x="264" y="-10"/>
    </contour>
    <contour>
      <point x="545" y="273" type="curve"/>
      <point x="561" y="288" type="line"/>
      <point x="294" y="288" type="line"/>
      <point x="298" y="284" type="line"/>
      <point x="312" y="351"/>
      <point x="355" y="414"/>
      <point x="441" y="414" type="curve" smooth="yes"/>
      <point x="526" y="414"/>
      <point x="556" y="352"/>
    </contour>
  </outline>
</glyph>
<glyph name="kahook-cy" format="2">
  <advance width="570"/>
  <unicode hex="04C4"/>
  <outline>
    <contour>
      <point x="311" y="-177" type="curve" smooth="yes"/>
      <point x="434" y="-138"/>
      <point x="479" y="-65"/>
      <point x="499" y="58" type="curve" smooth="yes"/>
      <point x="503" y="80" type="line" smooth="yes"/>
      <point x="529" y="222"/>
      <point x="437" y="291"/>
      <point x="329" y="291" type="curve"/>
      <point x="365" y="244" type="line"/>
      <point x="511" y="410" type="line" smooth="yes"/>
      <point x="562" y="468"/>
      <point x="480" y="528"/>
      <point x="433" y="475" type="curve" smooth="yes"/>
      <point x="274" y="299" type="line"/>
      <point x="205" y="299" type="line"/>
      <point x="226" y="430" type="line" smooth="yes"/>
      <point x="233" y="473"/>
      <point x="211" y="497"/>
      <point x="169" y="497" type="curve" smooth="yes"/>
      <point x="131" y="497"/>
      <point x="108" y="479"/>
      <point x="102" y="439" type="curve" smooth="yes"/>
      <point x="42" y="61" type="line" smooth="yes"/>
      <point x="35" y="17"/>
      <point x="56" y="-8"/>
      <point x="98" y="-8" type="curve" smooth="yes"/>
      <point x="136" y="-8"/>
      <point x="160" y="11"/>
      <point x="166" y="50" type="curve" smooth="yes"/>
      <point x="190" y="202" type="line"/>
      <point x="272" y="202" type="line" smooth="yes"/>
      <point x="363" y="202"/>
      <point x="391" y="156"/>
      <point x="378" y="80" type="curve" smooth="yes"/>
      <point x="374" y="56" type="line" smooth="yes"/>
      <point x="363" y="-13"/>
      <point x="344" y="-60"/>
      <point x="270" y="-85" type="curve" smooth="yes"/>
      <point x="203" y="-108"/>
      <point x="233" y="-202"/>
    </contour>
  </outline>
</glyph>
<glyph name="Eltail-cy" format="2">
  <advance width="792"/>
  <unicode hex="04C5"/>
  <outline>
    <contour>
      <point x="652" y="-140" type="curve" smooth="yes"/>
      <point x="736" y="28" type="line" smooth="yes"/>
      <point x="759" y="74"/>
      <point x="737" y="103"/>
      <point x="689" y="103" type="curve" smooth="yes"/>
      <point x="641" y="103" type="line"/>
      <point x="647" y="65" type="line"/>
      <point x="737" y="632" type="line"/>
      <point x="744" y="679"/>
      <point x="721" y="705"/>
      <point x="674" y="705" type="curve" smooth="yes"/>
      <point x="313" y="705" type="line" smooth="yes"/>
      <point x="272" y="705"/>
      <point x="247" y="684"/>
      <point x="240" y="643" type="curve" smooth="yes"/>
      <point x="213" y="476" type="line" smooth="yes"/>
      <point x="175" y="238"/>
      <point x="111" y="147"/>
      <point x="20" y="96" type="curve" smooth="yes"/>
      <point x="-13" y="78"/>
      <point x="-22" y="50"/>
      <point x="-5" y="19" type="curve" smooth="yes"/>
      <point x="13" y="-13"/>
      <point x="44" y="-17"/>
      <point x="76" y="-1" type="curve" smooth="yes"/>
      <point x="208" y="65"/>
      <point x="285" y="188"/>
      <point x="326" y="443" type="curve" smooth="yes"/>
      <point x="351" y="598" type="line"/>
      <point x="603" y="598" type="line"/>
      <point x="520" y="68" type="line"/>
      <point x="512" y="20"/>
      <point x="530" y="0"/>
      <point x="574" y="0" type="curve" smooth="yes"/>
      <point x="630" y="0" type="line"/>
      <point x="630" y="35" type="line"/>
      <point x="562" y="-101" type="line" smooth="yes"/>
      <point x="528" y="-169"/>
      <point x="620" y="-204"/>
    </contour>
  </outline>
</glyph>
<glyph name="eltail-cy" format="2">
  <advance width="627"/>
  <unicode hex="04C6"/>
  <outline>
    <contour>
      <point x="490" y="-106" type="curve" smooth="yes"/>
      <point x="557" y="26" type="line" smooth="yes"/>
      <point x="578" y="68"/>
      <point x="559" y="95"/>
      <point x="515" y="95" type="curve" smooth="yes"/>
      <point x="486" y="95" type="line"/>
      <point x="496" y="57" type="line"/>
      <point x="552" y="414" type="line" smooth="yes"/>
      <point x="560" y="462"/>
      <point x="537" y="489"/>
      <point x="489" y="489" type="curve" smooth="yes"/>
      <point x="235" y="489" type="line" smooth="yes"/>
      <point x="192" y="489"/>
      <point x="168" y="468"/>
      <point x="161" y="425" type="curve" smooth="yes"/>
      <point x="147" y="338" type="line" smooth="yes"/>
      <point x="124" y="192"/>
      <point x="92" y="129"/>
      <point x="25" y="98" type="curve" smooth="yes"/>
      <point x="-35" y="70"/>
      <point x="-5" y="-27"/>
      <point x="67" y="-2" type="curve" smooth="yes"/>
      <point x="183" y="38"/>
      <point x="227" y="127"/>
      <point x="260" y="329" type="curve" smooth="yes"/>
      <point x="270" y="391" type="line"/>
      <point x="424" y="391" type="line"/>
      <point x="374" y="75" type="line" smooth="yes"/>
      <point x="367" y="28"/>
      <point x="385" y="0"/>
      <point x="427" y="0" type="curve" smooth="yes"/>
      <point x="456" y="0" type="line"/>
      <point x="457" y="34" type="line"/>
      <point x="401" y="-74" type="line" smooth="yes"/>
      <point x="368" y="-137"/>
      <point x="460" y="-166"/>
    </contour>
  </outline>
</glyph>
<glyph name="Enhook-cy" format="2">
  <advance width="773"/>
  <unicode hex="04C7"/>
  <outline>
    <contour>
      <point x="432" y="-191" type="curve" smooth="yes"/>
      <point x="577" y="-183"/>
      <point x="636" y="-127"/>
      <point x="657" y="7" type="curve" smooth="yes"/>
      <point x="757" y="637" type="line" smooth="yes"/>
      <point x="765" y="686"/>
      <point x="747" y="713"/>
      <point x="704" y="713" type="curve" smooth="yes"/>
      <point x="661" y="713"/>
      <point x="638" y="692"/>
      <point x="631" y="649" type="curve" smooth="yes"/>
      <point x="593" y="411" type="line"/>
      <point x="231" y="411" type="line"/>
      <point x="267" y="637" type="line" smooth="yes"/>
      <point x="275" y="685"/>
      <point x="257" y="713"/>
      <point x="214" y="713" type="curve" smooth="yes"/>
      <point x="171" y="713"/>
      <point x="148" y="692"/>
      <point x="141" y="649" type="curve" smooth="yes"/>
      <point x="49" y="68" type="line" smooth="yes"/>
      <point x="41" y="20"/>
      <point x="60" y="-8"/>
      <point x="103" y="-8" type="curve" smooth="yes"/>
      <point x="146" y="-8"/>
      <point x="168" y="14"/>
      <point x="175" y="57" type="curve" smooth="yes"/>
      <point x="214" y="304" type="line"/>
      <point x="577" y="304" type="line"/>
      <point x="527" y="-7" type="line" smooth="yes"/>
      <point x="517" y="-69"/>
      <point x="486" y="-94"/>
      <point x="427" y="-98" type="curve" smooth="yes"/>
      <point x="368" y="-102"/>
      <point x="366" y="-195"/>
    </contour>
  </outline>
</glyph>
<glyph name="Entail-cy" format="2">
  <advance width="813"/>
  <unicode hex="04C9"/>
  <guideline x="812" y="347" angle="80.9868"/>
  <outline>
    <contour>
      <point x="672" y="-140" type="curve" smooth="yes"/>
      <point x="756" y="28" type="line" smooth="yes"/>
      <point x="779" y="74"/>
      <point x="757" y="103"/>
      <point x="709" y="103" type="curve" smooth="yes"/>
      <point x="661" y="103" type="line"/>
      <point x="667" y="65" type="line"/>
      <point x="758" y="637" type="line" smooth="yes"/>
      <point x="766" y="686"/>
      <point x="747" y="713"/>
      <point x="704" y="713" type="curve" smooth="yes"/>
      <point x="661" y="713"/>
      <point x="639" y="692"/>
      <point x="632" y="649" type="curve" smooth="yes"/>
      <point x="594" y="411" type="line"/>
      <point x="231" y="411" type="line"/>
      <point x="267" y="637" type="line" smooth="yes"/>
      <point x="275" y="685"/>
      <point x="257" y="713"/>
      <point x="214" y="713" type="curve" smooth="yes"/>
      <point x="171" y="713"/>
      <point x="148" y="692"/>
      <point x="141" y="649" type="curve" smooth="yes"/>
      <point x="49" y="68" type="line" smooth="yes"/>
      <point x="41" y="20"/>
      <point x="60" y="-8"/>
      <point x="103" y="-8" type="curve" smooth="yes"/>
      <point x="146" y="-8"/>
      <point x="168" y="14"/>
      <point x="175" y="57" type="curve" smooth="yes"/>
      <point x="214" y="304" type="line"/>
      <point x="577" y="304" type="line"/>
      <point x="540" y="68" type="line" smooth="yes"/>
      <point x="532" y="20"/>
      <point x="550" y="0"/>
      <point x="594" y="0" type="curve" smooth="yes"/>
      <point x="650" y="0" type="line"/>
      <point x="650" y="35" type="line"/>
      <point x="582" y="-101" type="line" smooth="yes"/>
      <point x="548" y="-169"/>
      <point x="640" y="-204"/>
    </contour>
  </outline>
</glyph>
<glyph name="entail-cy" format="2">
  <advance width="638"/>
  <unicode hex="04CA"/>
  <outline>
    <contour>
      <point x="502" y="-106" type="curve" smooth="yes"/>
      <point x="568" y="26" type="line" smooth="yes"/>
      <point x="589" y="68"/>
      <point x="570" y="95"/>
      <point x="526" y="95" type="curve" smooth="yes"/>
      <point x="497" y="95" type="line"/>
      <point x="507" y="57" type="line"/>
      <point x="565" y="424" type="line" smooth="yes"/>
      <point x="572" y="470"/>
      <point x="554" y="497"/>
      <point x="512" y="497" type="curve" smooth="yes"/>
      <point x="474" y="497"/>
      <point x="449" y="477"/>
      <point x="442" y="435" type="curve" smooth="yes"/>
      <point x="420" y="300" type="line"/>
      <point x="205" y="300" type="line"/>
      <point x="225" y="424" type="line" smooth="yes"/>
      <point x="232" y="470"/>
      <point x="213" y="497"/>
      <point x="171" y="497" type="curve" smooth="yes"/>
      <point x="133" y="497"/>
      <point x="108" y="477"/>
      <point x="101" y="435" type="curve" smooth="yes"/>
      <point x="43" y="66" type="line" smooth="yes"/>
      <point x="36" y="19"/>
      <point x="54" y="-8"/>
      <point x="96" y="-8" type="curve" smooth="yes"/>
      <point x="134" y="-8"/>
      <point x="160" y="12"/>
      <point x="167" y="55" type="curve" smooth="yes"/>
      <point x="190" y="202" type="line"/>
      <point x="405" y="202" type="line"/>
      <point x="385" y="75" type="line" smooth="yes"/>
      <point x="378" y="28"/>
      <point x="396" y="0"/>
      <point x="438" y="0" type="curve" smooth="yes"/>
      <point x="467" y="0" type="line"/>
      <point x="468" y="34" type="line"/>
      <point x="413" y="-74" type="line" smooth="yes"/>
      <point x="381" y="-137"/>
      <point x="472" y="-166"/>
    </contour>
  </outline>
</glyph>
<glyph name="Chekhakassian-cy" format="2">
  <advance width="735"/>
  <unicode hex="04CB"/>
  <guideline x="378" y="160" angle="261.1041"/>
  <outline>
    <contour>
      <point x="381" y="-173" type="curve" smooth="yes"/>
      <point x="418" y="-173"/>
      <point x="443" y="-152"/>
      <point x="449" y="-115" type="curve" smooth="yes"/>
      <point x="467" y="0" type="line"/>
      <point x="517" y="0" type="line" smooth="yes"/>
      <point x="558" y="0"/>
      <point x="584" y="24"/>
      <point x="591" y="66" type="curve" smooth="yes"/>
      <point x="682" y="638" type="line"/>
      <point x="689" y="685"/>
      <point x="672" y="713"/>
      <point x="628" y="713" type="curve" smooth="yes"/>
      <point x="589" y="713"/>
      <point x="563" y="692"/>
      <point x="556" y="649" type="curve" smooth="yes"/>
      <point x="514" y="387" type="line"/>
      <point x="470" y="365"/>
      <point x="415" y="356"/>
      <point x="367" y="356" type="curve" smooth="yes"/>
      <point x="254" y="356"/>
      <point x="210" y="414"/>
      <point x="231" y="548" type="curve" smooth="yes"/>
      <point x="245" y="638" type="line" smooth="yes"/>
      <point x="252" y="685"/>
      <point x="234" y="713"/>
      <point x="191" y="713" type="curve" smooth="yes"/>
      <point x="152" y="713"/>
      <point x="126" y="692"/>
      <point x="119" y="649" type="curve" smooth="yes"/>
      <point x="103" y="547" type="line" smooth="yes"/>
      <point x="73" y="355"/>
      <point x="169" y="246"/>
      <point x="344" y="246" type="curve" smooth="yes"/>
      <point x="400" y="246"/>
      <point x="457" y="257"/>
      <point x="496" y="275" type="curve"/>
      <point x="460" y="45" type="line"/>
      <point x="527" y="103" type="line"/>
      <point x="429" y="103" type="line" smooth="yes"/>
      <point x="391" y="103"/>
      <point x="366" y="82"/>
      <point x="360" y="43" type="curve" smooth="yes"/>
      <point x="335" y="-115" type="line" smooth="yes"/>
      <point x="329" y="-152"/>
      <point x="345" y="-173"/>
    </contour>
  </outline>
</glyph>
<glyph name="dzeabkhasian-cy" format="2">
  <advance width="516"/>
  <unicode hex="04E1"/>
  <outline>
    <contour>
      <point x="193" y="-190" type="curve" smooth="yes"/>
      <point x="359" y="-190"/>
      <point x="451" y="-89"/>
      <point x="451" y="43" type="curve" smooth="yes"/>
      <point x="451" y="138"/>
      <point x="383" y="219"/>
      <point x="261" y="219" type="curve" smooth="yes"/>
      <point x="202" y="219" type="line"/>
      <point x="236" y="191" type="line"/>
      <point x="464" y="394" type="line" smooth="yes"/>
      <point x="513" y="434"/>
      <point x="497" y="489"/>
      <point x="440" y="489" type="curve" smooth="yes"/>
      <point x="108" y="489" type="line" smooth="yes"/>
      <point x="75" y="489"/>
      <point x="56" y="471"/>
      <point x="51" y="440" type="curve" smooth="yes"/>
      <point x="46" y="411"/>
      <point x="65" y="391"/>
      <point x="101" y="391" type="curve" smooth="yes"/>
      <point x="364" y="391" type="line"/>
      <point x="367" y="422" type="line"/>
      <point x="121" y="200" type="line" smooth="yes"/>
      <point x="88" y="171"/>
      <point x="100" y="134"/>
      <point x="140" y="134" type="curve" smooth="yes"/>
      <point x="200" y="134" type="line" smooth="yes"/>
      <point x="285" y="134"/>
      <point x="327" y="94"/>
      <point x="327" y="36" type="curve" smooth="yes"/>
      <point x="327" y="-47"/>
      <point x="274" y="-95"/>
      <point x="181" y="-95" type="curve" smooth="yes"/>
      <point x="126" y="-95"/>
      <point x="69" y="-85"/>
      <point x="23" y="-55" type="curve" smooth="yes"/>
      <point x="-37" y="-16"/>
      <point x="-80" y="-101"/>
      <point x="-23" y="-136" type="curve" smooth="yes"/>
      <point x="38" y="-174"/>
      <point x="120" y="-190"/>
    </contour>
  </outline>
</glyph>
<glyph name="gedescender-cy" format="2">
  <advance width="457"/>
  <unicode hex="04F7"/>
  <outline>
    <contour>
      <point x="163" y="-138" type="curve" smooth="yes"/>
      <point x="198" y="-138"/>
      <point x="219" y="-121"/>
      <point x="224" y="-87" type="curve" smooth="yes"/>
      <point x="243" y="32" type="line" smooth="yes"/>
      <point x="249" y="71"/>
      <point x="229" y="95"/>
      <point x="189" y="95" type="curve" smooth="yes"/>
      <point x="164" y="95" type="line"/>
      <point x="167" y="57" type="line"/>
      <point x="220" y="391" type="line"/>
      <point x="421" y="391" type="line" smooth="yes"/>
      <point x="458" y="391"/>
      <point x="480" y="413"/>
      <point x="480" y="449" type="curve" smooth="yes"/>
      <point x="480" y="474"/>
      <point x="461" y="489"/>
      <point x="427" y="489" type="curve" smooth="yes"/>
      <point x="167" y="489" type="line" smooth="yes"/>
      <point x="129" y="489"/>
      <point x="107" y="470"/>
      <point x="101" y="432" type="curve"/>
      <point x="43" y="67" type="line" smooth="yes"/>
      <point x="36" y="20"/>
      <point x="55" y="0"/>
      <point x="97" y="0" type="curve" smooth="yes"/>
      <point x="141" y="0" type="line"/>
      <point x="138" y="38" type="line"/>
      <point x="119" y="-78" type="line" smooth="yes"/>
      <point x="113" y="-117"/>
      <point x="131" y="-138"/>
    </contour>
  </outline>
</glyph>
<glyph name="hahook-cy" format="2">
  <advance width="560"/>
  <unicode hex="04FD"/>
  <outline>
    <contour>
      <point x="317" y="-184" type="curve" smooth="yes"/>
      <point x="437" y="-170"/>
      <point x="491" y="-116"/>
      <point x="491" y="-18" type="curve" smooth="yes"/>
      <point x="491" y="23"/>
      <point x="474" y="68"/>
      <point x="436" y="126" type="curve" smooth="yes"/>
      <point x="334" y="280" type="line"/>
      <point x="333" y="224" type="line"/>
      <point x="513" y="415" type="line" smooth="yes"/>
      <point x="547" y="451"/>
      <point x="530" y="497"/>
      <point x="478" y="497" type="curve" smooth="yes"/>
      <point x="449" y="497"/>
      <point x="434" y="489"/>
      <point x="413" y="466" type="curve" smooth="yes"/>
      <point x="273" y="310" type="line"/>
      <point x="308" y="310" type="line"/>
      <point x="215" y="459" type="line" smooth="yes"/>
      <point x="198" y="486"/>
      <point x="175" y="497"/>
      <point x="149" y="497" type="curve" smooth="yes"/>
      <point x="105" y="497"/>
      <point x="77" y="456"/>
      <point x="106" y="411" type="curve" smooth="yes"/>
      <point x="230" y="223" type="line"/>
      <point x="231" y="276" type="line"/>
      <point x="37" y="75" type="line" smooth="yes"/>
      <point x="3" y="40"/>
      <point x="21" y="-8"/>
      <point x="73" y="-8" type="curve" smooth="yes"/>
      <point x="101" y="-8"/>
      <point x="117" y="2"/>
      <point x="138" y="25" type="curve" smooth="yes"/>
      <point x="295" y="191" type="line"/>
      <point x="256" y="192" type="line"/>
      <point x="331" y="75" type="line" smooth="yes"/>
      <point x="358" y="32"/>
      <point x="370" y="6"/>
      <point x="370" y="-18" type="curve" smooth="yes"/>
      <point x="370" y="-62"/>
      <point x="347" y="-85"/>
      <point x="299" y="-96" type="curve" smooth="yes"/>
      <point x="241" y="-109"/>
      <point x="259" y="-191"/>
    </contour>
  </outline>
</glyph>
<glyph name="Reversedze-cy" format="2">
  <advance width="635"/>
  <unicode hex="0510"/>
  <outline>
    <contour>
      <point x="298" y="-10" type="curve" smooth="yes"/>
      <point x="412" y="-10"/>
      <point x="494" y="19"/>
      <point x="550" y="50" type="curve" smooth="yes"/>
      <point x="611" y="84"/>
      <point x="585" y="177"/>
      <point x="507" y="139" type="curve" smooth="yes"/>
      <point x="474" y="123"/>
      <point x="417" y="98"/>
      <point x="320" y="98" type="curve" smooth="yes"/>
      <point x="218" y="98"/>
      <point x="166" y="129"/>
      <point x="169" y="197" type="curve" smooth="yes"/>
      <point x="172" y="267"/>
      <point x="224" y="306"/>
      <point x="318" y="306" type="curve" smooth="yes"/>
      <point x="445" y="306" type="line" smooth="yes"/>
      <point x="483" y="306"/>
      <point x="506" y="329"/>
      <point x="507" y="365" type="curve" smooth="yes"/>
      <point x="508" y="392"/>
      <point x="488" y="408"/>
      <point x="452" y="408" type="curve" smooth="yes"/>
      <point x="351" y="408" type="line" smooth="yes"/>
      <point x="270" y="408"/>
      <point x="232" y="435"/>
      <point x="235" y="496" type="curve" smooth="yes"/>
      <point x="238" y="563"/>
      <point x="295" y="607"/>
      <point x="394" y="607" type="curve" smooth="yes"/>
      <point x="477" y="607"/>
      <point x="525" y="584"/>
      <point x="561" y="561" type="curve" smooth="yes"/>
      <point x="633" y="515"/>
      <point x="673" y="616"/>
      <point x="618" y="654" type="curve" smooth="yes"/>
      <point x="579" y="681"/>
      <point x="508" y="715"/>
      <point x="401" y="715" type="curve" smooth="yes"/>
      <point x="231" y="715"/>
      <point x="120" y="633"/>
      <point x="111" y="512" type="curve" smooth="yes"/>
      <point x="105" y="430"/>
      <point x="147" y="375"/>
      <point x="223" y="356" type="curve"/>
      <point x="226" y="371" type="line"/>
      <point x="118" y="355"/>
      <point x="49" y="282"/>
      <point x="42" y="182" type="curve" smooth="yes"/>
      <point x="34" y="65"/>
      <point x="119" y="-10"/>
    </contour>
  </outline>
</glyph>
<glyph name="elhook-cy" format="2">
  <advance width="597"/>
  <unicode hex="0513"/>
  <outline>
    <contour>
      <point x="272" y="-191" type="curve" smooth="yes"/>
      <point x="404" y="-183"/>
      <point x="466" y="-133"/>
      <point x="487" y="-2" type="curve" smooth="yes"/>
      <point x="553" y="414" type="line" smooth="yes"/>
      <point x="561" y="462"/>
      <point x="538" y="489"/>
      <point x="490" y="489" type="curve" smooth="yes"/>
      <point x="236" y="489" type="line" smooth="yes"/>
      <point x="193" y="489"/>
      <point x="169" y="468"/>
      <point x="162" y="425" type="curve" smooth="yes"/>
      <point x="148" y="338" type="line" smooth="yes"/>
      <point x="126" y="202"/>
      <point x="93" y="129"/>
      <point x="26" y="98" type="curve" smooth="yes"/>
      <point x="-34" y="70"/>
      <point x="-4" y="-27"/>
      <point x="68" y="-2" type="curve" smooth="yes"/>
      <point x="184" y="38"/>
      <point x="230" y="137"/>
      <point x="261" y="329" type="curve" smooth="yes"/>
      <point x="271" y="391" type="line"/>
      <point x="425" y="391" type="line"/>
      <point x="362" y="-7" type="line" smooth="yes"/>
      <point x="352" y="-69"/>
      <point x="322" y="-93"/>
      <point x="264" y="-98" type="curve" smooth="yes"/>
      <point x="204" y="-103"/>
      <point x="206" y="-195"/>
    </contour>
  </outline>
</glyph>
<glyph name="Pedescender-cy" format="2">
  <advance width="813"/>
  <unicode hex="0524"/>
  <outline>
    <contour>
      <point x="668" y="-173" type="curve" smooth="yes"/>
      <point x="706" y="-173"/>
      <point x="727" y="-155"/>
      <point x="733" y="-117" type="curve" smooth="yes"/>
      <point x="757" y="36" type="line" smooth="yes"/>
      <point x="764" y="79"/>
      <point x="743" y="103"/>
      <point x="700" y="103" type="curve" smooth="yes"/>
      <point x="628" y="103" type="line"/>
      <point x="661" y="65" type="line"/>
      <point x="751" y="632" type="line"/>
      <point x="758" y="679"/>
      <point x="735" y="705"/>
      <point x="689" y="705" type="curve" smooth="yes"/>
      <point x="213" y="705" type="line" smooth="yes"/>
      <point x="172" y="705"/>
      <point x="147" y="684"/>
      <point x="140" y="643" type="curve" smooth="yes"/>
      <point x="48" y="63" type="line" smooth="yes"/>
      <point x="41" y="16"/>
      <point x="61" y="-8"/>
      <point x="103" y="-8" type="curve" smooth="yes"/>
      <point x="145" y="-8"/>
      <point x="169" y="13"/>
      <point x="175" y="53" type="curve" smooth="yes"/>
      <point x="261" y="598" type="line"/>
      <point x="618" y="598" type="line"/>
      <point x="535" y="76" type="line"/>
      <point x="527" y="28"/>
      <point x="545" y="0"/>
      <point x="589" y="0" type="curve" smooth="yes"/>
      <point x="640" y="0" type="line"/>
      <point x="623" y="-107" type="line" smooth="yes"/>
      <point x="616" y="-149"/>
      <point x="634" y="-173"/>
    </contour>
  </outline>
</glyph>
<glyph name="shhadescender-cy" format="2">
  <advance width="620"/>
  <unicode hex="0527"/>
  <outline>
    <contour>
      <point x="496" y="-138" type="curve" smooth="yes"/>
      <point x="531" y="-138"/>
      <point x="552" y="-121"/>
      <point x="557" y="-87" type="curve" smooth="yes"/>
      <point x="576" y="32" type="line" smooth="yes"/>
      <point x="582" y="71"/>
      <point x="562" y="95"/>
      <point x="522" y="95" type="curve" smooth="yes"/>
      <point x="497" y="95" type="line"/>
      <point x="500" y="57" type="line"/>
      <point x="537" y="293" type="line" smooth="yes"/>
      <point x="559" y="435"/>
      <point x="497" y="499"/>
      <point x="390" y="499" type="curve" smooth="yes"/>
      <point x="306" y="499"/>
      <point x="242" y="460"/>
      <point x="209" y="390" type="curve"/>
      <point x="220" y="390" type="line"/>
      <point x="260" y="641" type="line" smooth="yes"/>
      <point x="267" y="687"/>
      <point x="247" y="713"/>
      <point x="208" y="713" type="curve" smooth="yes"/>
      <point x="167" y="713"/>
      <point x="142" y="691"/>
      <point x="136" y="650" type="curve" smooth="yes"/>
      <point x="44" y="67" type="line" smooth="yes"/>
      <point x="37" y="21"/>
      <point x="56" y="-8"/>
      <point x="95" y="-8" type="curve" smooth="yes"/>
      <point x="136" y="-8"/>
      <point x="161" y="14"/>
      <point x="167" y="55" type="curve" smooth="yes"/>
      <point x="200" y="263" type="line" smooth="yes"/>
      <point x="213" y="348"/>
      <point x="261" y="401"/>
      <point x="340" y="401" type="curve" smooth="yes"/>
      <point x="401" y="401"/>
      <point x="423" y="364"/>
      <point x="412" y="291" type="curve" smooth="yes"/>
      <point x="377" y="69" type="line" smooth="yes"/>
      <point x="370" y="22"/>
      <point x="388" y="0"/>
      <point x="430" y="0" type="curve" smooth="yes"/>
      <point x="474" y="0" type="line"/>
      <point x="471" y="38" type="line"/>
      <point x="452" y="-78" type="line" smooth="yes"/>
      <point x="446" y="-117"/>
      <point x="464" y="-138"/>
    </contour>
  </outline>
</glyph>
<glyph name="eldescender-cy" format="2">
  <advance width="627"/>
  <unicode hex="052F"/>
  <outline>
    <contour>
      <point x="492" y="-138" type="curve" smooth="yes"/>
      <point x="527" y="-138"/>
      <point x="548" y="-121"/>
      <point x="553" y="-87" type="curve" smooth="yes"/>
      <point x="572" y="32" type="line" smooth="yes"/>
      <point x="578" y="71"/>
      <point x="558" y="95"/>
      <point x="518" y="95" type="curve" smooth="yes"/>
      <point x="493" y="95" type="line"/>
      <point x="496" y="57" type="line"/>
      <point x="552" y="414" type="line"/>
      <point x="560" y="462"/>
      <point x="537" y="489"/>
      <point x="489" y="489" type="curve" smooth="yes"/>
      <point x="235" y="489" type="line" smooth="yes"/>
      <point x="192" y="489"/>
      <point x="168" y="468"/>
      <point x="161" y="425" type="curve" smooth="yes"/>
      <point x="147" y="338" type="line" smooth="yes"/>
      <point x="124" y="192"/>
      <point x="92" y="129"/>
      <point x="25" y="98" type="curve" smooth="yes"/>
      <point x="-35" y="70"/>
      <point x="-5" y="-27"/>
      <point x="67" y="-2" type="curve" smooth="yes"/>
      <point x="183" y="38"/>
      <point x="227" y="127"/>
      <point x="260" y="329" type="curve" smooth="yes"/>
      <point x="270" y="391" type="line"/>
      <point x="424" y="391" type="line"/>
      <point x="373" y="67" type="line"/>
      <point x="366" y="20"/>
      <point x="384" y="0"/>
      <point x="426" y="0" type="curve" smooth="yes"/>
      <point x="470" y="0" type="line"/>
      <point x="467" y="38" type="line"/>
      <point x="448" y="-78" type="line" smooth="yes"/>
      <point x="442" y="-117"/>
      <point x="460" y="-138"/>
    </contour>
  </outline>
</glyph>
<glyph name="emdash" format="2">
  <advance width="1000"/>
  <unicode hex="2014"/>
  <outline>
    <contour>
      <point x="37" y="230" type="curve" smooth="yes"/>
      <point x="966" y="230" type="line" smooth="yes"/>
      <point x="990" y="230"/>
      <point x="1012" y="248"/>
      <point x="1012" y="273" type="curve" smooth="yes"/>
      <point x="1012" y="292"/>
      <point x="999" y="305"/>
      <point x="969" y="305" type="curve" smooth="yes"/>
      <point x="41" y="305" type="line" smooth="yes"/>
      <point x="15" y="305"/>
      <point x="-5" y="286"/>
      <point x="-5" y="262" type="curve" smooth="yes"/>
      <point x="-5" y="243"/>
      <point x="7" y="230"/>
    </contour>
  </outline>
</glyph>
<glyph name="daggerdbl" format="2">
  <advance width="345"/>
  <unicode hex="2021"/>
  <outline>
    <contour>
      <point x="158" y="149" type="curve" smooth="yes"/>
      <point x="188" y="149"/>
      <point x="206" y="164"/>
      <point x="211" y="195" type="curve" smooth="yes"/>
      <point x="223" y="271" type="line"/>
      <point x="295" y="271" type="line" smooth="yes"/>
      <point x="326" y="271"/>
      <point x="344" y="289"/>
      <point x="344" y="319" type="curve" smooth="yes"/>
      <point x="344" y="340"/>
      <point x="329" y="352"/>
      <point x="301" y="352" type="curve" smooth="yes"/>
      <point x="236" y="352" type="line"/>
      <point x="261" y="509" type="line"/>
      <point x="333" y="509" type="line" smooth="yes"/>
      <point x="363" y="509"/>
      <point x="382" y="527"/>
      <point x="382" y="557" type="curve" smooth="yes"/>
      <point x="382" y="578"/>
      <point x="366" y="590"/>
      <point x="338" y="590" type="curve" smooth="yes"/>
      <point x="273" y="590" type="line"/>
      <point x="284" y="660" type="line" smooth="yes"/>
      <point x="289" y="694"/>
      <point x="275" y="713"/>
      <point x="246" y="713" type="curve" smooth="yes"/>
      <point x="215" y="713"/>
      <point x="198" y="697"/>
      <point x="193" y="667" type="curve" smooth="yes"/>
      <point x="181" y="590" type="line"/>
      <point x="109" y="590" type="line" smooth="yes"/>
      <point x="79" y="590"/>
      <point x="60" y="571"/>
      <point x="60" y="541" type="curve" smooth="yes"/>
      <point x="60" y="520"/>
      <point x="75" y="509"/>
      <point x="103" y="509" type="curve" smooth="yes"/>
      <point x="168" y="509" type="line"/>
      <point x="143" y="352" type="line"/>
      <point x="72" y="352" type="line" smooth="yes"/>
      <point x="41" y="352"/>
      <point x="23" y="333"/>
      <point x="23" y="303" type="curve" smooth="yes"/>
      <point x="23" y="282"/>
      <point x="38" y="271"/>
      <point x="66" y="271" type="curve" smooth="yes"/>
      <point x="131" y="271" type="line"/>
      <point x="120" y="203" type="line" smooth="yes"/>
      <point x="115" y="169"/>
      <point x="129" y="149"/>
    </contour>
  </outline>
</glyph>
<glyph name="guilsinglright" format="2">
  <advance width="287"/>
  <unicode hex="203A"/>
  <outline>
    <contour>
      <point x="57" y="85" type="curve" smooth="yes"/>
      <point x="79" y="74"/>
      <point x="104" y="79"/>
      <point x="120" y="99" type="curve" smooth="yes"/>
      <point x="221" y="226" type="line" smooth="yes"/>
      <point x="242" y="253"/>
      <point x="244" y="283"/>
      <point x="233" y="309" type="curve" smooth="yes"/>
      <point x="185" y="418" type="line" smooth="yes"/>
      <point x="172" y="447"/>
      <point x="145" y="459"/>
      <point x="114" y="446" type="curve" smooth="yes"/>
      <point x="90" y="436"/>
      <point x="83" y="414"/>
      <point x="92" y="385" type="curve" smooth="yes"/>
      <point x="128" y="272" type="line"/>
      <point x="53" y="164" type="line" smooth="yes"/>
      <point x="26" y="126"/>
      <point x="32" y="98"/>
    </contour>
  </outline>
</glyph>
<glyph name="fraction" format="2">
  <advance width="190"/>
  <unicode hex="2044"/>
  <outline>
    <contour>
      <point x="-91" y="4" type="curve" smooth="yes"/>
      <point x="386" y="652" type="line" smooth="yes"/>
      <point x="425" y="705"/>
      <point x="352" y="753"/>
      <point x="315" y="702" type="curve" smooth="yes"/>
      <point x="-163" y="53" type="line" smooth="yes"/>
      <point x="-202" y="0"/>
      <point x="-128" y="-47"/>
    </contour>
  </outline>
</glyph>
<glyph name="colonsign" format="2">
  <advance width="600"/>
  <unicode hex="20A1"/>
  <outline>
    <contour>
      <point x="77" y="-123" type="curve" smooth="yes"/>
      <point x="94" y="-123"/>
      <point x="109" y="-114"/>
      <point x="116" y="-96" type="curve" smooth="yes"/>
      <point x="187" y="75" type="line"/>
      <point x="162" y="62" type="line"/>
      <point x="189" y="35"/>
      <point x="222" y="16"/>
      <point x="259" y="8" type="curve"/>
      <point x="249" y="36" type="line"/>
      <point x="205" y="-70" type="line" smooth="yes"/>
      <point x="193" y="-100"/>
      <point x="210" y="-123"/>
      <point x="240" y="-123" type="curve" smooth="yes"/>
      <point x="259" y="-123"/>
      <point x="272" y="-114"/>
      <point x="279" y="-97" type="curve" smooth="yes"/>
      <point x="328" y="21" type="line"/>
      <point x="299" y="-3" type="line"/>
      <point x="313" y="-4"/>
      <point x="326" y="-5"/>
      <point x="339" y="-5" type="curve" smooth="yes"/>
      <point x="417" y="-5"/>
      <point x="485" y="23"/>
      <point x="530" y="56" type="curve" smooth="yes"/>
      <point x="573" y="88"/>
      <point x="539" y="177"/>
      <point x="482" y="144" type="curve" smooth="yes"/>
      <point x="441" y="120"/>
      <point x="409" y="109"/>
      <point x="358" y="109" type="curve" smooth="yes"/>
      <point x="269" y="109"/>
      <point x="201" y="174"/>
      <point x="201" y="307" type="curve" smooth="yes"/>
      <point x="201" y="491"/>
      <point x="285" y="597"/>
      <point x="403" y="597" type="curve" smooth="yes"/>
      <point x="450" y="597"/>
      <point x="494" y="579"/>
      <point x="527" y="552" type="curve" smooth="yes"/>
      <point x="575" y="513"/>
      <point x="636" y="586"/>
      <point x="596" y="631" type="curve" smooth="yes"/>
      <point x="582" y="647"/>
      <point x="560" y="662"/>
      <point x="546" y="671" type="curve"/>
      <point x="551" y="638" type="line"/>
      <point x="610" y="777" type="line" smooth="yes"/>
      <point x="622" y="805"/>
      <point x="605" y="828"/>
      <point x="574" y="828" type="curve" smooth="yes"/>
      <point x="555" y="828"/>
      <point x="543" y="819"/>
      <point x="538" y="807" type="curve" smooth="yes"/>
      <point x="480" y="669" type="line"/>
      <point x="508" y="689" type="line"/>
      <point x="472" y="703"/>
      <point x="436" y="710"/>
      <point x="398" y="709" type="curve"/>
      <point x="407" y="685" type="line"/>
      <point x="445" y="776" type="line" smooth="yes"/>
      <point x="459" y="809"/>
      <point x="437" y="828"/>
      <point x="410" y="828" type="curve" smooth="yes"/>
      <point x="391" y="828"/>
      <point x="379" y="820"/>
      <point x="372" y="803" type="curve" smooth="yes"/>
      <point x="318" y="676" type="line"/>
      <point x="343" y="704" type="line"/>
      <point x="184" y="682"/>
      <point x="67" y="537"/>
      <point x="67" y="302" type="curve" smooth="yes"/>
      <point x="67" y="218"/>
      <point x="90" y="149"/>
      <point x="128" y="97" type="curve"/>
      <point x="128" y="138" type="line"/>
      <point x="41" y="-69" type="line" smooth="yes"/>
      <point x="29" y="-97"/>
      <point x="44" y="-123"/>
    </contour>
  </outline>
</glyph>
<glyph name="franc" format="2">
  <advance width="600"/>
  <unicode hex="20A3"/>
  <outline>
    <contour>
      <point x="130" y="-8" type="curve" smooth="yes"/>
      <point x="166" y="-8"/>
      <point x="191" y="10"/>
      <point x="197" y="47" type="curve" smooth="yes"/>
      <point x="214" y="153" type="line"/>
      <point x="183" y="119" type="line"/>
      <point x="365" y="119" type="line" smooth="yes"/>
      <point x="395" y="119"/>
      <point x="420" y="141"/>
      <point x="420" y="170" type="curve" smooth="yes"/>
      <point x="420" y="191"/>
      <point x="407" y="207"/>
      <point x="372" y="207" type="curve" smooth="yes"/>
      <point x="223" y="207" type="line"/>
      <point x="240" y="313" type="line"/>
      <point x="501" y="313" type="line" smooth="yes"/>
      <point x="536" y="313"/>
      <point x="562" y="338"/>
      <point x="562" y="373" type="curve" smooth="yes"/>
      <point x="562" y="396"/>
      <point x="547" y="415"/>
      <point x="508" y="415" type="curve" smooth="yes"/>
      <point x="256" y="415" type="line"/>
      <point x="286" y="603" type="line"/>
      <point x="568" y="603" type="line" smooth="yes"/>
      <point x="603" y="603"/>
      <point x="629" y="629"/>
      <point x="629" y="664" type="curve" smooth="yes"/>
      <point x="629" y="687"/>
      <point x="614" y="705"/>
      <point x="575" y="705" type="curve" smooth="yes"/>
      <point x="226" y="705" type="line" smooth="yes"/>
      <point x="195" y="705"/>
      <point x="170" y="684"/>
      <point x="165" y="653" type="curve" smooth="yes"/>
      <point x="90" y="175" type="line"/>
      <point x="124" y="207" type="line"/>
      <point x="60" y="207" type="line" smooth="yes"/>
      <point x="29" y="207"/>
      <point x="5" y="185"/>
      <point x="5" y="156" type="curve" smooth="yes"/>
      <point x="5" y="134"/>
      <point x="18" y="119"/>
      <point x="53" y="119" type="curve" smooth="yes"/>
      <point x="108" y="119" type="line"/>
      <point x="86" y="150" type="line"/>
      <point x="71" y="58" type="line" smooth="yes"/>
      <point x="63" y="12"/>
      <point x="89" y="-8"/>
    </contour>
  </outline>
</glyph>
<glyph name="peseta" format="2">
  <advance width="600"/>
  <unicode hex="20A7"/>
  <outline>
    <contour>
      <point x="128" y="-8" type="curve" smooth="yes"/>
      <point x="171" y="-8"/>
      <point x="195" y="15"/>
      <point x="202" y="58" type="curve" smooth="yes"/>
      <point x="230" y="235" type="line"/>
      <point x="287" y="235" type="line" smooth="yes"/>
      <point x="423" y="235"/>
      <point x="521" y="318"/>
      <point x="544" y="451" type="curve"/>
      <point x="520" y="426" type="line"/>
      <point x="570" y="426" type="line" smooth="yes"/>
      <point x="602" y="426"/>
      <point x="625" y="443"/>
      <point x="625" y="476" type="curve" smooth="yes"/>
      <point x="625" y="503"/>
      <point x="605" y="514"/>
      <point x="575" y="514" type="curve" smooth="yes"/>
      <point x="532" y="514" type="line"/>
      <point x="549" y="491" type="line"/>
      <point x="556" y="625"/>
      <point x="479" y="705"/>
      <point x="347" y="705" type="curve" smooth="yes"/>
      <point x="243" y="705" type="line" smooth="yes"/>
      <point x="199" y="705"/>
      <point x="173" y="682"/>
      <point x="166" y="639" type="curve" smooth="yes"/>
      <point x="146" y="514" type="line"/>
      <point x="102" y="514" type="line" smooth="yes"/>
      <point x="70" y="514"/>
      <point x="47" y="497"/>
      <point x="47" y="464" type="curve" smooth="yes"/>
      <point x="47" y="437"/>
      <point x="67" y="426"/>
      <point x="97" y="426" type="curve" smooth="yes"/>
      <point x="133" y="426" type="line"/>
      <point x="76" y="69" type="line" smooth="yes"/>
      <point x="69" y="21"/>
      <point x="85" y="-8"/>
    </contour>
    <contour>
      <point x="246" y="343" type="line"/>
      <point x="287" y="597" type="line"/>
      <point x="345" y="597" type="line" smooth="yes"/>
      <point x="401" y="597"/>
      <point x="436" y="568"/>
      <point x="436" y="504" type="curve" smooth="yes"/>
      <point x="436" y="404"/>
      <point x="388" y="343"/>
      <point x="305" y="343" type="curve" smooth="yes"/>
    </contour>
  </outline>
</glyph>
<glyph name="guarani" format="2">
  <advance width="600"/>
  <unicode hex="20B2"/>
  <outline>
    <contour>
      <point x="286" y="-123" type="curve" smooth="yes"/>
      <point x="311" y="-123"/>
      <point x="331" y="-106"/>
      <point x="335" y="-80" type="curve" smooth="yes"/>
      <point x="350" y="15" type="line"/>
      <point x="333" y="-3" type="line"/>
      <point x="393" y="-3"/>
      <point x="457" y="13"/>
      <point x="502" y="32" type="curve" smooth="yes"/>
      <point x="519" y="39"/>
      <point x="529" y="53"/>
      <point x="532" y="70" type="curve" smooth="yes"/>
      <point x="570" y="310" type="line" smooth="yes"/>
      <point x="576" y="349"/>
      <point x="550" y="381"/>
      <point x="512" y="381" type="curve" smooth="yes"/>
      <point x="390" y="381" type="line" smooth="yes"/>
      <point x="358" y="381"/>
      <point x="338" y="362"/>
      <point x="337" y="333" type="curve" smooth="yes"/>
      <point x="336" y="307"/>
      <point x="355" y="286"/>
      <point x="386" y="286" type="curve" smooth="yes"/>
      <point x="459" y="286" type="line"/>
      <point x="427" y="80" type="line"/>
      <point x="465" y="132" type="line"/>
      <point x="420" y="113"/>
      <point x="375" y="107"/>
      <point x="339" y="107" type="curve" smooth="yes"/>
      <point x="250" y="107"/>
      <point x="188" y="172"/>
      <point x="188" y="307" type="curve" smooth="yes"/>
      <point x="188" y="489"/>
      <point x="275" y="595"/>
      <point x="398" y="595" type="curve" smooth="yes"/>
      <point x="438" y="595"/>
      <point x="477" y="585"/>
      <point x="519" y="554" type="curve" smooth="yes"/>
      <point x="579" y="510"/>
      <point x="626" y="599"/>
      <point x="581" y="641" type="curve" smooth="yes"/>
      <point x="544" y="675"/>
      <point x="494" y="696"/>
      <point x="449" y="704" type="curve"/>
      <point x="457" y="685" type="line"/>
      <point x="471" y="772" type="line" smooth="yes"/>
      <point x="478" y="810"/>
      <point x="454" y="828"/>
      <point x="426" y="828" type="curve" smooth="yes"/>
      <point x="397" y="828"/>
      <point x="378" y="812"/>
      <point x="374" y="786" type="curve" smooth="yes"/>
      <point x="358" y="687" type="line"/>
      <point x="375" y="707" type="line"/>
      <point x="194" y="702"/>
      <point x="57" y="556"/>
      <point x="57" y="302" type="curve" smooth="yes"/>
      <point x="57" y="140"/>
      <point x="142" y="36"/>
      <point x="259" y="7" type="curve"/>
      <point x="251" y="20" type="line"/>
      <point x="238" y="-61" type="line" smooth="yes"/>
      <point x="232" y="-98"/>
      <point x="249" y="-123"/>
    </contour>
  </outline>
</glyph>
<glyph name="hryvnia" format="2">
  <advance width="600"/>
  <unicode hex="20B4"/>
  <outline>
    <contour>
      <point x="270" y="-10" type="curve" smooth="yes"/>
      <point x="365" y="-10"/>
      <point x="444" y="14"/>
      <point x="499" y="50" type="curve" smooth="yes"/>
      <point x="547" y="82"/>
      <point x="510" y="167"/>
      <point x="453" y="136" type="curve" smooth="yes"/>
      <point x="400" y="107"/>
      <point x="351" y="95"/>
      <point x="302" y="95" type="curve" smooth="yes"/>
      <point x="234" y="95"/>
      <point x="200" y="118"/>
      <point x="200" y="154" type="curve" smooth="yes"/>
      <point x="200" y="192"/>
      <point x="228" y="229"/>
      <point x="263" y="255" type="curve"/>
      <point x="220" y="231" type="line"/>
      <point x="504" y="231" type="line" smooth="yes"/>
      <point x="533" y="231"/>
      <point x="558" y="248"/>
      <point x="558" y="281" type="curve" smooth="yes"/>
      <point x="558" y="304"/>
      <point x="545" y="319"/>
      <point x="510" y="319" type="curve" smooth="yes"/>
      <point x="312" y="319" type="line"/>
      <point x="317" y="301" type="line"/>
      <point x="445" y="401" type="line"/>
      <point x="412" y="387" type="line"/>
      <point x="528" y="387" type="line" smooth="yes"/>
      <point x="558" y="387"/>
      <point x="583" y="404"/>
      <point x="583" y="438" type="curve" smooth="yes"/>
      <point x="583" y="460"/>
      <point x="571" y="475"/>
      <point x="540" y="475" type="curve" smooth="yes"/>
      <point x="497" y="475" type="line"/>
      <point x="502" y="453" type="line"/>
      <point x="549" y="496"/>
      <point x="578" y="539"/>
      <point x="578" y="596" type="curve" smooth="yes"/>
      <point x="578" y="668"/>
      <point x="507" y="715"/>
      <point x="397" y="715" type="curve" smooth="yes"/>
      <point x="321" y="715"/>
      <point x="244" y="695"/>
      <point x="184" y="663" type="curve" smooth="yes"/>
      <point x="123" y="630"/>
      <point x="159" y="545"/>
      <point x="226" y="577" type="curve" smooth="yes"/>
      <point x="272" y="599"/>
      <point x="310" y="611"/>
      <point x="356" y="611" type="curve" smooth="yes"/>
      <point x="413" y="611"/>
      <point x="443" y="594"/>
      <point x="443" y="560" type="curve" smooth="yes"/>
      <point x="443" y="519"/>
      <point x="413" y="489"/>
      <point x="368" y="453" type="curve"/>
      <point x="406" y="475" type="line"/>
      <point x="130" y="475" type="line" smooth="yes"/>
      <point x="99" y="475"/>
      <point x="75" y="458"/>
      <point x="75" y="426" type="curve" smooth="yes"/>
      <point x="75" y="404"/>
      <point x="89" y="387"/>
      <point x="123" y="387" type="curve" smooth="yes"/>
      <point x="315" y="387" type="line"/>
      <point x="307" y="401" type="line"/>
      <point x="175" y="302" type="line"/>
      <point x="219" y="319" type="line"/>
      <point x="106" y="319" type="line" smooth="yes"/>
      <point x="75" y="319"/>
      <point x="51" y="301"/>
      <point x="51" y="270" type="curve" smooth="yes"/>
      <point x="51" y="248"/>
      <point x="64" y="231"/>
      <point x="99" y="231" type="curve" smooth="yes"/>
      <point x="136" y="231" type="line"/>
      <point x="132" y="252" type="line"/>
      <point x="88" y="212"/>
      <point x="69" y="170"/>
      <point x="69" y="121" type="curve" smooth="yes"/>
      <point x="69" y="42"/>
      <point x="148" y="-10"/>
    </contour>
  </outline>
</glyph>
<glyph name="literSign" format="2">
  <advance width="600"/>
  <unicode hex="2113"/>
  <outline>
    <contour>
      <point x="293" y="-10" type="curve" smooth="yes"/>
      <point x="331" y="-10"/>
      <point x="381" y="3"/>
      <point x="419" y="31" type="curve" smooth="yes"/>
      <point x="467" y="67"/>
      <point x="436" y="137"/>
      <point x="384" y="104" type="curve" smooth="yes"/>
      <point x="359" y="88"/>
      <point x="345" y="86"/>
      <point x="328" y="86" type="curve" smooth="yes"/>
      <point x="288" y="86"/>
      <point x="277" y="119"/>
      <point x="284" y="162" type="curve" smooth="yes"/>
      <point x="306" y="297" type="line"/>
      <point x="338" y="330" type="line" smooth="yes"/>
      <point x="429" y="423"/>
      <point x="506" y="509"/>
      <point x="506" y="615" type="curve" smooth="yes"/>
      <point x="506" y="678"/>
      <point x="456" y="715"/>
      <point x="392" y="715" type="curve" smooth="yes"/>
      <point x="303" y="715"/>
      <point x="246" y="654"/>
      <point x="230" y="553" type="curve" smooth="yes"/>
      <point x="190" y="298" type="line"/>
      <point x="95" y="215" type="line" smooth="yes"/>
      <point x="57" y="181"/>
      <point x="98" y="139"/>
      <point x="133" y="170" type="curve" smooth="yes"/>
      <point x="193" y="222" type="line"/>
      <point x="181" y="245" type="line"/>
      <point x="165" y="138" type="line" smooth="yes"/>
      <point x="151" y="47"/>
      <point x="202" y="-10"/>
    </contour>
    <contour>
      <point x="321" y="396" type="curve"/>
      <point x="348" y="569" type="line" smooth="yes"/>
      <point x="354" y="605"/>
      <point x="374" y="630"/>
      <point x="403" y="630" type="curve" smooth="yes"/>
      <point x="422" y="630"/>
      <point x="431" y="618"/>
      <point x="431" y="595" type="curve" smooth="yes"/>
      <point x="431" y="537"/>
      <point x="386" y="472"/>
      <point x="339" y="415" type="curve" smooth="yes"/>
      <point x="334" y="409"/>
      <point x="327" y="402"/>
    </contour>
  </outline>
</glyph>
<glyph name="divisionslash" format="2">
  <advance width="600"/>
  <unicode hex="2215"/>
  <outline>
    <contour>
      <point x="186" y="-33" type="curve" smooth="yes"/>
      <point x="533" y="681" type="line" smooth="yes"/>
      <point x="563" y="742"/>
      <point x="474" y="780"/>
      <point x="446" y="722" type="curve" smooth="yes"/>
      <point x="97" y="7" type="line" smooth="yes"/>
      <point x="68" y="-53"/>
      <point x="157" y="-93"/>
    </contour>
  </outline>
</glyph>
<glyph name="bulletoperator" format="2">
  <advance width="600"/>
  <unicode hex="2219"/>
  <outline>
    <contour>
      <point x="304" y="194" type="curve" smooth="yes"/>
      <point x="350" y="194"/>
      <point x="378" y="224"/>
      <point x="378" y="268" type="curve" smooth="yes"/>
      <point x="378" y="311"/>
      <point x="350" y="341"/>
      <point x="304" y="341" type="curve" smooth="yes"/>
      <point x="258" y="341"/>
      <point x="229" y="311"/>
      <point x="229" y="268" type="curve" smooth="yes"/>
      <point x="229" y="224"/>
      <point x="258" y="194"/>
    </contour>
  </outline>
</glyph>
<glyph name="integral" format="2">
  <advance width="600"/>
  <unicode hex="222B"/>
  <outline>
    <contour>
      <point x="91" y="-190" type="curve" smooth="yes"/>
      <point x="225" y="-190"/>
      <point x="299" y="-153"/>
      <point x="321" y="-15" type="curve" smooth="yes"/>
      <point x="408" y="529" type="line" smooth="yes"/>
      <point x="418" y="591"/>
      <point x="450" y="615"/>
      <point x="526" y="617" type="curve" smooth="yes"/>
      <point x="588" y="619"/>
      <point x="594" y="715"/>
      <point x="515" y="715" type="curve" smooth="yes"/>
      <point x="382" y="715"/>
      <point x="306" y="676"/>
      <point x="284" y="539" type="curve" smooth="yes"/>
      <point x="198" y="-5" type="line" smooth="yes"/>
      <point x="188" y="-66"/>
      <point x="157" y="-91"/>
      <point x="80" y="-92" type="curve" smooth="yes"/>
      <point x="18" y="-93"/>
      <point x="12" y="-190"/>
    </contour>
  </outline>
</glyph>
<glyph name="greaterequal" format="2">
  <advance width="600"/>
  <unicode hex="2265"/>
  <outline>
    <contour>
      <point x="98" y="144" type="curve" smooth="yes"/>
      <point x="511" y="273" type="line" smooth="yes"/>
      <point x="545" y="284"/>
      <point x="567" y="309"/>
      <point x="567" y="343" type="curve" smooth="yes"/>
      <point x="567" y="367"/>
      <point x="549" y="387"/>
      <point x="519" y="397" type="curve" smooth="yes"/>
      <point x="148" y="526" type="line" smooth="yes"/>
      <point x="87" y="547"/>
      <point x="64" y="460"/>
      <point x="122" y="440" type="curve" smooth="yes"/>
      <point x="524" y="305" type="line"/>
      <point x="534" y="366" type="line"/>
      <point x="75" y="228" type="line" smooth="yes"/>
      <point x="18" y="211"/>
      <point x="37" y="125"/>
    </contour>
    <contour>
      <point x="63" y="0" type="curve" smooth="yes"/>
      <point x="469" y="0" type="line" smooth="yes"/>
      <point x="502" y="0"/>
      <point x="521" y="20"/>
      <point x="521" y="52" type="curve" smooth="yes"/>
      <point x="521" y="75"/>
      <point x="505" y="88"/>
      <point x="474" y="88" type="curve" smooth="yes"/>
      <point x="68" y="88" type="line" smooth="yes"/>
      <point x="35" y="88"/>
      <point x="16" y="68"/>
      <point x="16" y="36" type="curve" smooth="yes"/>
      <point x="16" y="13"/>
      <point x="32" y="0"/>
    </contour>
  </outline>
</glyph>
<glyph name="leftanglebracket-math" format="2">
  <advance width="600"/>
  <unicode hex="27E8"/>
  <outline>
    <contour>
      <point x="333" y="-19" type="curve" smooth="yes"/>
      <point x="348" y="-15"/>
      <point x="353" y="1"/>
      <point x="350" y="15" type="curve" smooth="yes"/>
      <point x="285" y="345" type="line"/>
      <point x="435" y="672" type="line" smooth="yes"/>
      <point x="443" y="689"/>
      <point x="437" y="706"/>
      <point x="424" y="712" type="curve" smooth="yes"/>
      <point x="410" y="718"/>
      <point x="394" y="711"/>
      <point x="387" y="695" type="curve" smooth="yes"/>
      <point x="231" y="355" type="line"/>
      <point x="228" y="334" type="line"/>
      <point x="298" y="8" type="line" smooth="yes"/>
      <point x="303" y="-17"/>
      <point x="319" y="-23"/>
    </contour>
  </outline>
</glyph>
